{"glyphs":{"0":{"ha":625,"x_min":0,"x_max":0,"o":"m 313 -21 b 561 233 488 -21 561 93 l 561 769 b 313 1024 561 910 488 1024 b 64 769 138 1024 64 910 l 64 233 b 313 -21 64 93 138 -21 z m 104 765 b 313 985 104 883 157 985 b 521 765 468 985 521 883 l 521 238 b 313 18 521 119 468 18 b 104 238 157 18 104 119 z m 313 68 b 469 243 432 68 469 151 l 469 760 b 313 935 469 851 432 935 b 156 760 193 935 156 851 l 156 243 b 313 68 156 151 193 68 z m 196 754 b 313 896 196 835 229 896 b 429 754 396 896 429 835 l 429 249 b 313 107 429 168 396 107 b 196 249 229 107 196 168 z "},"1":{"ha":379,"x_min":0,"x_max":0,"o":"m 301 0 l 301 1003 l 175 1003 l 14 835 l 39 811 l 185 964 l 261 964 l 261 0 z m 210 0 l 210 932 l 67 786 l 92 763 l 169 842 l 169 0 z "},"2":{"ha":608,"x_min":0,"x_max":0,"o":"m 156 86 l 558 86 l 558 125 l 196 125 l 196 211 b 342 368 196 285 207 294 l 433 418 b 558 618 519 465 558 511 l 558 769 b 313 1024 558 910 488 1024 b 64 769 138 1024 64 910 l 64 653 l 104 653 l 104 765 b 313 985 104 883 157 985 b 518 765 468 985 518 883 l 518 631 b 392 444 518 532 492 499 l 301 396 b 156 226 181 329 156 307 z m 104 39 l 104 244 b 253 429 104 339 149 374 l 339 475 b 467 646 456 536 467 563 l 467 760 b 313 935 467 851 432 935 b 154 760 193 935 154 851 l 154 653 l 194 653 l 194 754 b 313 896 194 835 228 896 b 426 754 396 896 426 835 l 426 658 b 297 501 426 585 424 568 l 214 457 b 64 258 124 408 64 363 l 64 0 l 558 0 l 558 39 z "},"3":{"ha":610,"x_min":0,"x_max":0,"o":"m 457 453 b 550 626 524 472 550 551 l 550 769 b 301 1024 550 910 476 1024 b 53 769 126 1024 53 910 l 53 653 l 93 653 l 93 765 b 301 985 93 883 146 985 b 510 765 457 985 510 883 l 510 629 b 389 453 510 556 489 482 b 510 276 489 424 510 350 l 510 238 b 301 18 510 119 457 18 b 93 238 146 18 93 119 l 93 268 l 53 268 l 53 233 b 301 -21 53 93 126 -21 b 550 233 476 -21 550 93 l 550 279 b 457 453 550 353 524 433 z m 181 475 l 303 475 b 458 633 424 475 458 563 l 458 760 b 301 935 458 851 421 935 b 143 760 182 935 143 851 l 143 653 l 183 653 l 183 754 b 301 896 183 835 218 896 b 418 754 385 896 418 835 l 418 638 b 300 515 418 565 385 515 l 181 515 z m 181 390 l 300 390 b 418 268 385 390 418 339 l 418 249 b 301 107 418 168 385 107 b 183 249 218 107 183 168 l 183 268 l 143 268 l 143 243 b 301 68 143 151 182 68 b 458 243 421 68 458 151 l 458 272 b 303 431 458 343 424 431 l 181 431 z "},"4":{"ha":629,"x_min":0,"x_max":0,"o":"m 421 0 l 421 286 l 72 286 l 72 361 l 294 1003 l 254 1003 l 32 361 l 32 247 l 381 247 l 381 0 z m 124 333 l 421 333 l 421 749 l 381 749 l 381 372 l 168 372 l 388 1003 l 347 1003 l 124 363 z m 597 333 l 597 372 l 513 372 l 513 749 l 472 749 l 472 333 z m 513 0 l 513 247 l 597 247 l 597 286 l 472 286 l 472 0 z "},"5":{"ha":613,"x_min":0,"x_max":0,"o":"m 67 208 b 314 -21 75 81 150 -21 b 563 233 489 -21 563 93 l 563 335 b 518 542 563 425 551 492 b 364 621 488 588 439 621 b 197 543 274 621 219 572 l 197 878 l 536 878 l 536 917 l 157 917 l 157 428 b 356 582 161 442 206 582 b 485 518 417 582 457 561 b 522 331 514 472 522 410 l 522 238 b 314 18 522 119 469 18 b 107 208 171 18 115 103 z m 106 361 l 106 964 l 536 964 l 536 1003 l 65 1003 l 65 361 z m 201 361 b 338 496 219 438 261 496 b 410 458 371 496 394 485 b 431 321 429 425 431 378 l 431 249 b 314 107 431 168 397 107 b 199 208 246 107 210 146 l 156 208 b 314 68 165 131 210 68 b 471 243 433 68 471 151 l 471 325 b 440 482 471 392 464 444 b 344 535 418 518 390 535 b 165 361 235 535 188 451 z "},"6":{"ha":619,"x_min":0,"x_max":0,"o":"m 521 238 b 313 18 521 119 468 18 b 104 238 157 18 104 119 l 104 765 b 313 985 104 883 157 985 b 521 765 468 985 521 883 l 521 708 l 561 708 l 561 769 b 313 1024 561 910 488 1024 b 64 769 138 1024 64 910 l 64 233 b 313 -21 64 93 138 -21 b 561 233 488 -21 561 93 l 561 335 b 517 542 561 425 550 492 b 363 621 486 588 438 621 b 196 543 272 621 218 572 l 196 754 b 313 896 196 835 229 896 b 431 754 397 896 431 835 l 431 708 l 471 708 l 471 760 b 313 935 471 851 432 935 b 156 760 193 935 156 851 l 156 428 b 354 582 160 442 204 582 b 483 518 415 582 456 561 b 521 331 513 472 521 410 z m 156 243 b 313 68 156 151 193 68 b 469 243 432 68 469 151 l 469 325 b 439 482 469 392 463 444 b 343 535 417 518 389 535 b 156 258 196 535 156 392 z m 196 264 b 336 496 196 386 229 496 b 408 458 369 496 393 485 b 429 321 428 425 429 378 l 429 249 b 313 107 429 168 396 107 b 196 249 229 107 196 168 z "},"7":{"ha":525,"x_min":0,"x_max":0,"o":"m 188 0 l 496 889 l 496 1003 l 33 1003 l 33 964 l 456 964 l 456 889 l 147 0 z m 94 0 l 404 888 l 404 917 l 33 917 l 33 878 l 360 878 l 54 0 z "},"8":{"ha":617,"x_min":0,"x_max":0,"o":"m 153 453 b 60 279 86 433 60 353 l 60 233 b 308 -21 60 93 133 -21 b 557 233 483 -21 557 93 l 557 279 b 464 453 557 353 531 433 b 557 626 531 472 557 551 l 557 769 b 308 1024 557 910 483 1024 b 60 769 133 1024 60 910 l 60 626 b 153 453 60 551 86 472 z m 517 629 b 396 453 517 556 496 482 b 517 276 496 424 517 350 l 517 238 b 308 18 517 119 464 18 b 100 238 153 18 100 119 l 100 276 b 221 453 100 350 121 424 b 100 629 121 482 100 556 l 100 765 b 308 985 100 883 153 985 b 517 765 464 985 517 883 z m 465 760 b 308 935 465 851 428 935 b 151 760 189 935 151 851 l 151 633 b 308 475 151 563 186 475 b 465 633 431 475 465 563 z m 465 272 b 308 431 465 343 431 431 b 151 272 186 431 151 343 l 151 243 b 308 68 151 151 189 68 b 465 243 428 68 465 151 z m 425 638 b 308 515 425 565 392 515 b 192 638 225 515 192 565 l 192 754 b 308 896 192 835 225 896 b 425 754 392 896 425 835 z m 425 249 b 308 107 425 168 392 107 b 192 249 225 107 192 168 l 192 268 b 308 390 192 339 225 390 b 425 268 392 390 425 339 z "},"9":{"ha":619,"x_min":0,"x_max":0,"o":"m 99 765 b 307 985 99 883 151 985 b 515 765 463 985 515 883 l 515 238 b 307 18 515 119 463 18 b 99 238 151 18 99 119 l 99 268 l 58 268 l 58 233 b 307 -21 58 93 132 -21 b 556 233 482 -21 556 93 l 556 769 b 307 1024 556 910 482 1024 b 58 769 132 1024 58 910 l 58 668 b 103 461 58 578 69 511 b 257 382 133 415 182 382 b 424 460 347 382 401 431 l 424 249 b 307 107 424 168 390 107 b 189 249 222 107 189 168 l 189 268 l 149 268 l 149 243 b 307 68 149 151 188 68 b 464 243 426 68 464 151 l 464 575 b 265 421 460 561 415 421 b 136 485 204 421 164 442 b 99 672 107 531 99 593 z m 464 760 b 307 935 464 851 426 935 b 150 760 188 935 150 851 l 150 678 b 181 521 150 611 157 558 b 276 468 203 485 231 468 b 464 744 424 468 464 611 z m 424 739 b 283 507 424 617 390 507 b 211 544 250 507 226 518 b 190 682 192 578 190 625 l 190 754 b 307 896 190 835 224 896 b 424 754 390 896 424 835 z "},"ð":{"ha":671,"x_min":0,"x_max":0,"o":"m 167 476 l 167 964 l 417 964 b 558 818 518 964 558 901 l 558 185 b 417 39 558 101 518 39 l 167 39 l 167 429 l 29 429 l 29 390 l 126 390 l 126 0 l 425 0 b 599 182 549 0 599 78 l 599 821 b 425 1003 599 925 549 1003 l 126 1003 l 126 515 l 29 515 l 29 476 z m 376 476 l 376 515 l 258 515 l 258 878 l 397 878 b 467 810 451 878 467 850 l 467 193 b 397 125 467 153 451 125 l 258 125 l 258 390 l 376 390 l 376 429 l 218 429 l 218 86 l 406 86 b 507 189 481 86 507 131 l 507 814 b 406 917 507 872 481 917 l 218 917 l 218 476 z "},"Ł":{"ha":513,"x_min":0,"x_max":0,"o":"m 486 0 l 486 39 l 182 39 l 182 456 l 53 374 l 74 343 l 142 386 l 142 0 z m 486 86 l 486 125 l 274 125 l 274 469 l 444 578 l 425 608 l 233 488 l 233 86 z m 182 506 l 182 1003 l 142 1003 l 142 522 l 10 438 l 31 407 z m 400 647 l 381 678 l 274 608 l 274 1003 l 233 1003 l 233 539 z "},"ł":{"ha":513,"x_min":0,"x_max":0,"o":"m 486 0 l 486 39 l 182 39 l 182 456 l 53 374 l 74 343 l 142 386 l 142 0 z m 486 86 l 486 125 l 274 125 l 274 469 l 444 578 l 425 608 l 233 488 l 233 86 z m 182 506 l 182 1003 l 142 1003 l 142 522 l 10 438 l 31 407 z m 400 647 l 381 678 l 274 608 l 274 1003 l 233 1003 l 233 539 z "},"Š":{"ha":599,"x_min":0,"x_max":0,"o":""},"š":{"ha":599,"x_min":0,"x_max":0,"o":"m 504 238 b 296 18 504 119 451 18 b 88 238 140 18 88 119 l 88 268 l 47 268 l 47 233 b 296 -21 47 93 121 -21 b 544 233 471 -21 544 93 l 544 303 b 394 501 544 407 485 453 l 311 546 b 182 703 185 613 182 629 l 182 754 b 297 896 182 835 215 896 b 414 754 381 896 414 835 l 414 653 l 454 653 l 454 760 b 297 935 454 851 415 935 b 142 760 179 935 142 851 l 142 690 b 269 519 142 607 153 581 l 356 474 b 504 289 460 418 504 383 z m 413 249 b 296 107 413 168 379 107 b 178 249 211 107 178 168 l 178 268 l 138 268 l 138 243 b 296 68 138 151 176 68 b 453 243 415 68 453 151 l 453 271 b 307 440 453 351 428 374 l 217 489 b 90 675 117 543 90 576 l 90 765 b 297 985 90 883 143 985 b 504 765 451 985 504 883 l 504 653 l 544 653 l 544 769 b 297 1024 544 910 471 1024 b 50 769 124 1024 50 910 l 50 663 b 175 463 50 556 89 510 l 267 413 b 413 256 401 339 413 329 z m 435 1243 l 343 1117 l 249 1117 l 157 1243 l 117 1243 l 228 1090 l 364 1090 l 475 1243 z m 356 1243 l 296 1158 l 236 1243 l 196 1243 l 264 1150 l 328 1150 l 396 1243 z "},"Ý":{"ha":575,"x_min":0,"x_max":0,"o":""},"ý":{"ha":642,"x_min":0,"x_max":0,"o":"m 69 1003 l 69 667 b 114 460 69 576 81 510 b 268 381 144 414 193 381 b 435 447 353 381 396 410 l 435 249 b 318 107 435 168 401 107 b 200 249 235 107 200 168 l 200 268 l 160 268 l 160 243 b 318 68 160 151 199 68 b 475 243 438 68 475 151 l 475 574 b 276 419 471 560 425 419 b 147 483 215 419 175 440 b 110 671 118 529 110 592 l 110 1003 z m 526 1003 l 526 238 b 318 18 526 119 474 18 b 110 238 163 18 110 119 l 110 268 l 69 268 l 69 233 b 318 -21 69 93 143 -21 b 567 233 493 -21 567 93 l 567 1003 z m 161 1003 l 161 676 b 192 519 161 610 168 557 b 288 467 214 483 242 467 b 475 743 435 467 475 610 l 475 1003 l 435 1003 l 435 738 b 294 506 435 615 401 506 b 222 543 261 506 238 517 b 201 681 203 576 201 624 l 201 1003 z m 296 1090 l 394 1243 l 354 1243 l 257 1090 z m 376 1090 l 506 1243 l 464 1243 l 336 1090 z "},"Þ":{"ha":604,"x_min":0,"x_max":0,"o":"m 169 771 l 368 771 b 510 625 469 771 510 708 l 510 378 b 368 232 510 294 469 232 l 169 232 l 169 0 l 210 0 l 210 193 l 376 193 b 550 375 500 193 550 271 l 550 628 b 376 810 550 732 500 810 l 210 810 l 210 1003 l 169 1003 z m 78 1003 l 78 0 l 118 0 l 118 1003 z m 169 724 l 169 279 l 357 279 b 458 382 432 279 458 324 l 458 621 b 357 724 458 679 432 724 z m 210 685 l 349 685 b 418 617 403 685 418 657 l 418 386 b 349 318 418 346 403 318 l 210 318 z "},"þ":{"ha":604,"x_min":0,"x_max":0,"o":"m 169 771 l 368 771 b 510 625 469 771 510 708 l 510 378 b 368 232 510 294 469 232 l 169 232 l 169 0 l 210 0 l 210 193 l 376 193 b 550 375 500 193 550 271 l 550 628 b 376 810 550 732 500 810 l 210 810 l 210 1003 l 169 1003 z m 78 1003 l 78 0 l 118 0 l 118 1003 z m 169 724 l 169 279 l 357 279 b 458 382 432 279 458 324 l 458 621 b 357 724 458 679 432 724 z m 210 685 l 349 685 b 418 617 403 685 418 657 l 418 386 b 349 318 418 346 403 318 l 210 318 z "},"Ž":{"ha":544,"x_min":0,"x_max":0,"o":""},"ž":{"ha":544,"x_min":0,"x_max":0,"o":"m 511 0 l 511 39 l 68 39 l 68 79 l 414 917 l 40 917 l 40 878 l 351 878 l 33 107 l 33 0 z m 511 86 l 511 125 l 185 125 l 504 896 l 504 1003 l 40 1003 l 40 964 l 471 964 l 471 922 l 128 86 z m 411 1243 l 319 1117 l 225 1117 l 133 1243 l 93 1243 l 204 1090 l 340 1090 l 451 1243 z m 332 1243 l 272 1158 l 213 1243 l 172 1243 l 240 1150 l 304 1150 l 372 1243 z "},"¦":{"ha":288,"x_min":0,"x_max":0,"o":"m 210 -36 l 210 363 l 169 363 l 169 -36 z m 118 -36 l 118 363 l 78 363 l 78 -36 z m 210 640 l 210 1039 l 169 1039 l 169 640 z m 118 640 l 118 1039 l 78 1039 l 78 640 z "},"−":{"ha":692,"x_min":0,"x_max":0,"o":"m 35 432 l 35 393 l 657 393 l 657 432 z m 657 476 l 657 515 l 35 515 l 35 476 z "},"×":{"ha":650,"x_min":0,"x_max":0,"o":"m 101 199 l 129 171 l 325 367 l 521 171 l 549 199 l 325 422 z m 293 454 l 69 678 l 42 650 l 238 454 l 42 258 l 69 231 z m 549 710 l 521 738 l 325 542 l 129 738 l 101 710 l 325 486 z m 357 454 l 581 231 l 608 258 l 413 454 l 608 650 l 581 678 z "}," ":{"ha":225,"x_min":0,"x_max":0,"o":""},"!":{"ha":279,"x_min":0,"x_max":0,"o":"m 193 222 l 210 1003 l 169 1003 l 158 222 z m 121 222 l 110 1003 l 69 1003 l 86 222 z m 204 0 l 204 125 l 165 125 l 165 0 z m 114 0 l 114 125 l 75 125 l 75 0 z "},"\"":{"ha":422,"x_min":0,"x_max":0,"o":"m 168 711 l 181 1003 l 143 1003 l 132 711 z m 100 711 l 89 1003 l 51 1003 l 64 711 z m 358 711 l 371 1003 l 333 1003 l 322 711 z m 290 711 l 279 1003 l 242 1003 l 254 711 z "},"#":{"ha":813,"x_min":0,"x_max":0,"o":"m 33 367 l 22 328 l 163 328 l 78 0 l 119 0 l 214 367 z m 285 636 l 379 1003 l 338 1003 l 253 676 l 115 676 l 104 636 z m 93 597 l 82 558 l 222 558 l 193 446 l 56 446 l 44 407 l 225 407 l 274 597 z m 779 636 l 790 676 l 650 676 l 735 1003 l 693 1003 l 599 636 z m 588 597 l 539 407 l 719 407 l 731 446 l 590 446 l 619 558 l 757 558 l 768 597 z m 528 367 l 433 0 l 475 0 l 560 328 l 697 328 l 708 367 z m 258 367 l 164 0 l 206 0 l 290 328 l 432 328 l 347 0 l 389 0 l 483 367 z m 554 636 l 649 1003 l 607 1003 l 522 676 l 381 676 l 465 1003 l 424 1003 l 329 636 z m 318 597 l 269 407 l 494 407 l 543 597 z m 463 446 l 321 446 l 350 558 l 492 558 z "},"$":{"ha":564,"x_min":0,"x_max":0,"o":"m 310 -21 l 347 -21 l 347 69 b 517 303 463 96 517 194 b 379 508 517 407 475 456 l 288 558 b 179 703 183 615 179 629 b 282 813 179 751 207 813 b 386 699 358 813 386 751 l 386 625 l 426 625 l 426 703 b 282 851 426 769 392 851 b 139 706 172 851 139 758 l 139 689 b 246 536 139 619 158 583 l 340 485 b 476 297 451 424 476 390 b 310 104 476 210 435 119 z m 215 1024 l 215 932 b 47 714 100 906 47 810 l 47 663 b 160 476 47 556 83 518 l 251 426 b 385 283 357 369 385 354 b 281 190 385 243 357 190 b 175 332 203 190 175 243 l 175 351 l 135 351 l 135 324 b 281 151 135 232 167 151 b 425 289 389 151 425 228 b 290 450 425 369 392 396 l 200 499 b 88 675 106 549 88 581 l 88 710 b 253 899 88 785 122 885 l 253 1024 z m 310 1024 l 310 899 b 476 708 438 886 476 792 l 476 625 l 517 625 l 517 714 b 347 933 517 810 463 907 l 347 1024 z m 253 103 b 85 318 117 121 85 218 l 85 351 l 44 351 l 44 317 b 215 69 44 196 99 96 l 215 -21 l 253 -21 z "},"%":{"ha":814,"x_min":0,"x_max":0,"o":"m 197 989 b 321 847 286 989 321 936 l 321 700 b 197 558 321 611 286 558 b 74 700 108 558 74 611 l 74 847 b 197 989 74 936 108 989 z m 110 707 b 197 592 110 640 129 592 b 285 707 265 592 285 640 l 285 840 b 197 956 285 907 265 956 b 110 840 129 956 110 907 z m 38 693 b 197 524 38 589 88 524 b 357 693 307 524 357 589 l 357 854 b 197 1024 357 958 307 1024 b 38 854 88 1024 38 958 z m 197 921 b 249 832 243 921 249 882 l 249 715 b 197 626 249 665 243 626 b 146 715 151 626 146 665 l 146 832 b 197 921 146 882 151 921 z m 232 0 l 701 1003 l 661 1003 l 192 0 z m 153 0 l 624 1003 l 583 1003 l 113 0 z m 617 444 b 740 303 706 444 740 392 l 740 156 b 617 14 740 67 706 14 b 493 156 528 14 493 67 l 493 303 b 617 444 493 392 528 444 z m 529 163 b 617 47 529 96 549 47 b 704 163 685 47 704 96 l 704 296 b 617 411 704 363 685 411 b 529 296 549 411 529 363 z m 457 149 b 617 -21 457 44 507 -21 b 776 149 726 -21 776 44 l 776 310 b 617 479 776 414 726 479 b 457 310 507 479 457 414 z m 617 376 b 668 288 663 376 668 338 l 668 171 b 617 82 668 121 663 82 b 565 171 571 82 565 121 l 565 288 b 617 376 565 338 571 376 z "},"&":{"ha":647,"x_min":0,"x_max":0,"o":"m 467 431 l 307 431 b 151 272 186 431 151 343 l 151 243 b 308 68 151 151 189 68 b 467 243 428 68 467 151 z m 153 453 b 60 279 86 433 60 353 l 60 233 b 308 -21 60 93 133 -21 b 557 233 483 -21 557 93 l 557 390 l 613 390 l 613 431 l 517 431 l 517 238 b 308 18 517 119 464 18 b 100 238 153 18 100 119 l 100 276 b 221 453 100 350 121 424 b 100 629 121 482 100 556 l 100 765 b 308 985 100 883 153 985 b 517 765 464 985 517 883 l 517 653 l 557 653 l 557 769 b 308 1024 557 910 483 1024 b 60 769 133 1024 60 910 l 60 626 b 153 453 60 551 86 472 z m 192 268 b 310 390 192 339 225 390 l 426 390 l 426 249 b 308 107 426 168 392 107 b 192 249 225 107 192 168 z m 613 515 l 310 515 b 192 638 225 515 192 565 l 192 754 b 308 896 192 835 225 896 b 426 754 392 896 426 835 l 426 653 l 467 653 l 467 760 b 308 935 467 851 428 935 b 151 760 189 935 151 851 l 151 633 b 307 475 151 563 186 475 l 613 475 z "},"'":{"ha":232,"x_min":0,"x_max":0,"o":"m 168 711 l 181 1003 l 143 1003 l 132 711 z m 100 711 l 89 1003 l 51 1003 l 64 711 z "},"(":{"ha":332,"x_min":0,"x_max":0,"o":"m 89 501 b 233 1093 89 765 179 992 l 200 1106 b 50 501 157 1028 50 794 b 200 -103 50 208 157 -25 l 233 -90 b 89 501 179 11 89 238 z m 178 501 b 308 1068 178 701 228 917 l 276 1079 b 139 501 206 950 139 729 b 276 -76 139 274 206 53 l 308 -65 b 178 501 228 86 178 301 z "},")":{"ha":332,"x_min":0,"x_max":0,"o":"m 243 501 b 99 -90 243 238 153 11 l 132 -103 b 282 501 175 -25 282 208 b 132 1106 282 794 175 1028 l 99 1093 b 243 501 153 992 243 765 z m 154 501 b 24 -65 154 301 104 86 l 56 -76 b 193 501 126 53 193 274 b 56 1079 193 729 126 950 l 24 1068 b 154 501 104 917 154 701 z "},"*":{"ha":486,"x_min":0,"x_max":0,"o":"m 243 840 l 143 679 l 171 657 l 243 782 l 315 657 l 343 679 z m 224 854 l 42 894 l 29 861 l 168 836 l 68 739 l 96 717 z m 229 871 l 213 1058 l 178 1058 l 196 918 l 76 988 l 64 954 z m 390 717 l 418 739 l 318 836 l 457 861 l 444 894 l 263 854 z m 422 954 l 410 988 l 290 918 l 308 1058 l 274 1058 l 257 871 z "},"+":{"ha":692,"x_min":0,"x_max":0,"o":"m 35 432 l 35 393 l 285 393 l 285 143 l 325 143 l 325 432 z m 325 476 l 325 765 l 285 765 l 285 515 l 35 515 l 35 476 z m 657 476 l 657 515 l 407 515 l 407 765 l 367 765 l 367 476 z m 367 432 l 367 143 l 407 143 l 407 393 l 657 393 l 657 432 z "},",":{"ha":229,"x_min":0,"x_max":0,"o":"m 42 -167 l 111 125 l 71 125 l 4 -167 z m 110 -167 l 197 125 l 157 125 l 72 -167 z "},"-":{"ha":432,"x_min":0,"x_max":0,"o":"m 375 389 l 375 429 l 57 429 l 57 389 z m 375 475 l 375 515 l 57 515 l 57 475 z "},".":{"ha":218,"x_min":0,"x_max":0,"o":"m 174 0 l 174 125 l 135 125 l 135 0 z m 83 0 l 83 125 l 44 125 l 44 0 z "},"/":{"ha":444,"x_min":0,"x_max":0,"o":"m 147 -42 l 428 1044 l 388 1044 l 107 -42 z m 57 -42 l 338 1044 l 297 1044 l 17 -42 z "},":":{"ha":271,"x_min":0,"x_max":0,"o":"m 200 0 l 200 125 l 161 125 l 161 0 z m 110 0 l 110 125 l 71 125 l 71 0 z m 200 396 l 200 521 l 161 521 l 161 396 z m 110 396 l 110 521 l 71 521 l 71 396 z "},";":{"ha":281,"x_min":0,"x_max":0,"o":"m 56 -167 l 125 125 l 85 125 l 18 -167 z m 124 -167 l 211 125 l 171 125 l 86 -167 z m 210 396 l 210 521 l 171 521 l 171 396 z m 119 396 l 119 521 l 81 521 l 81 396 z "},"<":{"ha":488,"x_min":0,"x_max":0,"o":"m 381 799 l 353 819 l 19 453 l 19 439 l 353 72 l 381 93 l 60 446 z m 419 124 l 447 144 l 172 446 l 447 747 l 419 768 l 125 446 z "},"=":{"ha":764,"x_min":0,"x_max":0,"o":"m 71 349 l 71 310 l 693 310 l 693 349 z m 693 393 l 693 432 l 71 432 l 71 393 z m 71 610 l 71 571 l 693 571 l 693 610 z m 693 654 l 693 693 l 71 693 l 71 654 z "},">":{"ha":488,"x_min":0,"x_max":0,"o":"m 428 446 l 107 93 l 135 72 l 468 439 l 468 453 l 135 819 l 107 799 z m 363 446 l 68 768 l 40 747 l 315 446 l 40 144 l 68 124 z "},"?":{"ha":576,"x_min":0,"x_max":0,"o":"m 247 0 l 247 125 l 208 125 l 208 0 z m 157 0 l 157 125 l 118 125 l 118 0 z m 157 222 l 157 289 b 269 446 157 364 179 399 l 356 492 b 442 647 432 532 442 564 l 442 760 b 286 935 442 851 404 935 b 129 760 168 935 129 851 l 129 653 l 169 653 l 169 754 b 286 896 169 835 203 896 b 401 754 368 896 401 835 l 401 660 b 314 518 401 586 392 560 l 231 474 b 118 303 153 432 118 376 l 118 222 z m 247 222 l 247 256 b 317 369 247 329 292 356 l 408 419 b 533 619 494 467 533 513 l 533 769 b 286 1024 533 910 460 1024 b 39 769 113 1024 39 910 l 39 653 l 79 653 l 79 765 b 286 985 79 883 132 985 b 493 765 440 985 493 883 l 493 632 b 367 446 493 533 467 500 l 276 397 b 208 271 250 383 208 350 l 208 222 z "},"@":{"ha":1144,"x_min":0,"x_max":0,"o":"m 351 333 b 388 521 351 414 358 476 b 522 586 414 561 458 586 b 725 432 665 586 713 465 l 725 603 l 688 603 l 688 540 b 514 624 683 549 633 624 b 358 544 439 624 389 590 b 314 338 325 494 314 428 l 314 265 b 358 58 314 175 325 108 b 514 -21 389 13 439 -21 b 714 85 651 -21 714 85 b 881 -15 714 85 731 -15 b 1083 319 1057 -15 1083 119 l 1083 546 b 768 879 1083 765 976 879 l 378 879 b 63 546 169 879 63 765 l 63 65 b 378 -268 63 -154 169 -268 l 604 -268 l 604 -231 l 378 -231 b 100 68 201 -231 100 -132 l 100 543 b 378 842 100 743 201 842 l 768 842 b 1046 543 944 842 1046 743 l 1046 319 b 878 22 1046 142 1024 22 b 725 171 749 22 725 110 b 522 17 713 138 665 17 b 388 82 458 17 414 42 b 351 269 358 126 351 189 z m 604 -182 l 604 -144 l 378 -144 b 189 74 274 -144 189 -78 l 189 538 b 378 756 189 689 274 756 l 768 756 b 957 538 872 756 957 689 l 957 321 b 869 103 957 192 951 103 b 813 247 815 103 813 143 l 813 603 l 775 603 l 775 247 b 874 65 775 117 782 65 b 994 321 985 65 994 172 l 994 540 b 768 793 994 711 903 793 l 378 793 b 151 540 243 793 151 711 l 151 71 b 378 -182 151 -100 243 -182 z m 533 536 b 436 483 486 536 457 515 b 408 328 413 447 408 394 l 408 275 b 436 119 408 208 413 156 b 533 67 457 88 486 67 b 715 301 653 67 715 174 b 533 536 715 429 653 536 z m 446 324 b 467 461 446 381 447 428 b 540 499 482 488 507 499 b 678 301 636 499 678 408 b 540 104 678 194 636 104 b 467 142 507 104 482 115 b 446 279 447 175 446 222 z "},"A":{"ha":617,"x_min":0,"x_max":0,"o":"m 485 0 l 457 285 l 160 285 l 132 0 l 172 0 l 196 246 l 421 246 l 444 0 z m 308 985 b 456 811 426 985 447 903 l 533 0 l 574 0 l 496 819 b 308 1024 486 915 463 1024 b 121 819 154 1024 131 915 l 43 0 l 83 0 l 161 811 b 308 985 169 903 190 985 z m 165 332 l 451 332 l 407 801 b 308 935 399 886 381 935 b 210 801 236 935 218 886 z m 249 804 b 308 896 256 878 271 896 b 368 804 346 896 361 878 l 408 371 l 208 371 z "},"B":{"ha":611,"x_min":0,"x_max":0,"o":"m 510 185 b 368 39 510 79 454 39 l 118 39 l 118 964 l 364 964 b 506 817 458 964 506 914 l 506 629 b 392 453 506 557 489 479 b 510 276 493 418 510 343 z m 311 475 b 456 635 417 475 456 558 l 456 813 b 354 917 456 882 424 917 l 169 917 l 169 475 z m 357 86 b 460 189 411 86 460 111 l 460 272 b 311 431 460 346 417 431 l 169 431 l 169 86 z m 376 0 b 550 182 500 0 550 78 l 550 279 b 457 453 550 353 524 433 b 546 626 519 472 546 551 l 546 821 b 372 1003 546 925 496 1003 l 78 1003 l 78 0 z m 414 638 b 300 515 414 565 381 515 l 210 515 l 210 878 l 344 878 b 414 810 399 878 414 850 z m 418 193 b 349 125 418 153 403 125 l 210 125 l 210 390 l 300 390 b 418 268 385 390 418 339 z "},"C":{"ha":606,"x_min":0,"x_max":0,"o":"m 107 765 b 315 985 107 883 160 985 b 524 765 471 985 524 883 l 524 653 l 564 653 l 564 769 b 315 1024 564 910 490 1024 b 67 769 140 1024 67 910 l 67 233 b 315 -21 67 93 140 -21 b 564 233 490 -21 564 93 l 564 268 l 524 268 l 524 238 b 315 18 524 119 471 18 b 107 238 160 18 107 119 z m 158 243 b 315 68 158 151 196 68 b 474 243 435 68 474 151 l 474 268 l 433 268 l 433 249 b 315 107 433 168 400 107 b 199 249 232 107 199 168 l 199 754 b 315 896 199 835 232 896 b 433 754 400 896 433 835 l 433 653 l 474 653 l 474 760 b 315 935 474 851 435 935 b 158 760 196 935 158 851 z "},"D":{"ha":622,"x_min":0,"x_max":0,"o":"m 78 1003 l 78 0 l 376 0 b 550 182 500 0 550 78 l 550 821 b 376 1003 550 925 500 1003 z m 118 964 l 368 964 b 510 818 469 964 510 901 l 510 185 b 368 39 510 101 469 39 l 118 39 z m 169 917 l 169 86 l 357 86 b 458 189 432 86 458 131 l 458 814 b 357 917 458 872 432 917 z m 210 878 l 349 878 b 418 810 403 878 418 850 l 418 193 b 349 125 418 153 403 125 l 210 125 z "},"E":{"ha":503,"x_min":0,"x_max":0,"o":"m 450 0 l 450 39 l 118 39 l 118 964 l 450 964 l 450 1003 l 78 1003 l 78 0 z m 429 476 l 429 515 l 210 515 l 210 878 l 450 878 l 450 917 l 169 917 l 169 476 z m 450 86 l 450 125 l 210 125 l 210 390 l 429 390 l 429 429 l 169 429 l 169 86 z "},"F":{"ha":486,"x_min":0,"x_max":0,"o":"m 118 0 l 118 964 l 450 964 l 450 1003 l 78 1003 l 78 0 z m 429 476 l 429 515 l 210 515 l 210 878 l 450 878 l 450 917 l 169 917 l 169 476 z m 210 0 l 210 390 l 429 390 l 429 429 l 169 429 l 169 0 z "},"G":{"ha":625,"x_min":0,"x_max":0,"o":"m 107 765 b 315 985 107 883 160 985 b 524 765 471 985 524 883 l 524 653 l 564 653 l 564 769 b 315 1024 564 910 490 1024 b 67 769 140 1024 67 910 l 67 233 b 315 -21 67 93 140 -21 b 564 233 490 -21 564 93 l 564 515 l 268 515 l 268 476 l 524 476 l 524 238 b 315 18 524 119 471 18 b 107 238 160 18 107 119 z m 158 243 b 315 68 158 151 196 68 b 474 243 435 68 474 151 l 474 429 l 268 429 l 268 390 l 433 390 l 433 249 b 315 107 433 168 399 107 b 199 249 232 107 199 168 l 199 754 b 315 896 199 835 232 896 b 433 754 400 896 433 835 l 433 653 l 474 653 l 474 760 b 315 935 474 851 435 935 b 158 760 196 935 158 851 z "},"H":{"ha":656,"x_min":0,"x_max":0,"o":"m 486 476 l 486 1003 l 446 1003 l 446 515 l 210 515 l 210 1003 l 169 1003 l 169 476 z m 486 0 l 486 429 l 169 429 l 169 0 l 210 0 l 210 390 l 446 390 l 446 0 z m 578 0 l 578 1003 l 538 1003 l 538 0 z m 118 0 l 118 1003 l 78 1003 l 78 0 z "},"I":{"ha":288,"x_min":0,"x_max":0,"o":"m 210 0 l 210 1003 l 169 1003 l 169 0 z m 118 0 l 118 1003 l 78 1003 l 78 0 z "},"J":{"ha":583,"x_min":0,"x_max":0,"o":"m 468 1003 l 468 238 b 267 18 468 119 411 18 b 64 238 122 18 64 119 l 64 268 l 25 268 l 25 233 b 267 -21 25 93 99 -21 b 508 233 435 -21 508 93 l 508 1003 z m 376 1003 l 376 249 b 267 107 376 168 343 107 b 156 249 189 107 156 168 l 156 268 l 114 268 l 114 243 b 267 68 114 151 158 68 b 417 243 375 68 417 151 l 417 1003 z "},"K":{"ha":600,"x_min":0,"x_max":0,"o":"m 283 475 b 432 635 371 475 425 539 l 460 1003 l 418 1003 l 390 638 b 272 515 385 565 357 515 l 210 515 l 210 1003 l 169 1003 l 169 475 z m 550 0 l 522 279 b 429 453 515 353 489 433 b 522 626 489 472 517 551 l 550 1003 l 510 1003 l 481 631 b 360 453 475 563 460 483 b 482 275 454 425 475 346 l 510 0 z m 460 0 l 432 271 b 283 431 421 376 371 431 l 169 431 l 169 0 l 210 0 l 210 390 l 272 390 b 390 268 357 390 383 339 l 418 0 z m 118 0 l 118 1003 l 78 1003 l 78 0 z "},"L":{"ha":449,"x_min":0,"x_max":0,"o":"m 422 0 l 422 39 l 118 39 l 118 1003 l 78 1003 l 78 0 z m 422 86 l 422 125 l 210 125 l 210 1003 l 169 1003 l 169 86 z "},"M":{"ha":986,"x_min":0,"x_max":0,"o":"m 468 0 l 468 758 b 317 935 468 858 422 935 b 167 758 211 935 167 858 l 167 0 l 207 0 l 207 754 b 317 896 207 835 240 896 b 428 754 393 896 428 835 l 428 0 z m 558 0 l 558 754 b 669 896 558 835 593 896 b 779 754 746 896 779 835 l 779 0 l 819 0 l 819 758 b 669 935 819 858 775 935 b 518 758 564 935 518 858 l 518 0 z m 493 949 b 317 1024 454 993 397 1024 b 75 769 149 1024 75 910 l 75 0 l 115 0 l 115 764 b 317 985 115 888 176 985 b 493 871 385 985 450 964 b 669 985 536 964 601 985 b 871 764 810 985 871 888 l 871 0 l 911 0 l 911 769 b 669 1024 911 910 838 1024 b 493 949 589 1024 532 993 z "},"N":{"ha":647,"x_min":0,"x_max":0,"o":"m 324 1024 b 75 769 149 1024 75 910 l 75 0 l 115 0 l 115 765 b 324 985 115 883 168 985 b 532 765 479 985 532 883 l 532 0 l 572 0 l 572 769 b 324 1024 572 910 499 1024 z m 324 935 b 167 760 204 935 167 851 l 167 0 l 207 0 l 207 754 b 324 896 207 835 240 896 b 440 754 407 896 440 835 l 440 0 l 481 0 l 481 760 b 324 935 481 851 443 935 z "},"O":{"ha":631,"x_min":0,"x_max":0,"o":"m 315 -21 b 564 233 490 -21 564 93 l 564 769 b 315 1024 564 910 490 1024 b 67 769 140 1024 67 910 l 67 233 b 315 -21 67 93 140 -21 z m 107 765 b 315 985 107 883 160 985 b 524 765 471 985 524 883 l 524 238 b 315 18 524 119 471 18 b 107 238 160 18 107 119 z m 315 68 b 472 243 435 68 472 151 l 472 760 b 315 935 472 851 435 935 b 158 760 196 935 158 851 l 158 243 b 315 68 158 151 196 68 z m 199 754 b 315 896 199 835 232 896 b 432 754 399 896 432 835 l 432 249 b 315 107 432 168 399 107 b 199 249 232 107 199 168 z "},"P":{"ha":599,"x_min":0,"x_max":0,"o":"m 118 0 l 118 964 l 368 964 b 510 818 469 964 510 901 l 510 571 b 368 425 510 488 469 425 l 169 425 l 169 0 l 210 0 l 210 386 l 376 386 b 550 568 500 386 550 464 l 550 821 b 376 1003 550 925 500 1003 l 78 1003 l 78 0 z m 169 917 l 169 472 l 357 472 b 458 575 432 472 458 517 l 458 814 b 357 917 458 872 432 917 z m 210 878 l 349 878 b 418 810 403 878 418 850 l 418 579 b 349 511 418 539 403 511 l 210 511 z "},"Q":{"ha":631,"x_min":0,"x_max":0,"o":"m 442 53 b 315 18 410 32 382 18 b 107 238 160 18 107 119 l 107 765 b 315 985 107 883 160 985 b 524 765 471 985 524 883 l 524 238 b 478 89 524 185 515 142 l 583 -24 l 614 3 l 531 92 b 564 233 553 132 564 181 l 564 769 b 315 1024 564 910 490 1024 b 67 769 140 1024 67 910 l 67 233 b 315 -21 67 93 140 -21 b 433 1 361 -21 401 -12 l 513 -87 l 543 -60 z m 304 210 l 274 183 l 339 110 b 315 107 332 107 324 107 b 199 249 232 107 199 168 l 199 754 b 315 896 199 835 232 896 b 432 754 399 896 432 835 l 432 249 b 428 203 432 232 431 217 l 368 267 l 338 240 l 440 129 b 472 243 460 160 472 197 l 472 760 b 315 935 472 851 435 935 b 158 760 196 935 158 851 l 158 243 b 315 68 158 151 196 68 b 408 92 364 68 388 78 z "},"R":{"ha":614,"x_min":0,"x_max":0,"o":"m 283 475 b 460 633 401 475 460 536 l 460 813 b 358 917 460 882 428 917 l 169 917 l 169 475 z m 571 0 l 529 279 b 443 453 514 381 496 433 b 550 626 510 472 550 536 l 550 821 b 376 1003 550 925 500 1003 l 78 1003 l 78 0 l 118 0 l 118 964 l 368 964 b 510 817 463 964 510 914 l 510 629 b 374 453 510 540 481 488 b 490 276 456 431 476 374 l 531 0 z m 481 0 l 438 272 b 283 431 424 363 393 431 l 169 431 l 169 0 l 210 0 l 210 390 l 286 390 b 397 268 357 390 383 356 l 439 0 z m 418 638 b 286 515 418 550 371 515 l 210 515 l 210 878 l 349 878 b 418 810 403 878 418 850 z "},"S":{"ha":599,"x_min":0,"x_max":0,"o":"m 504 238 b 296 18 504 119 451 18 b 88 238 140 18 88 119 l 88 268 l 47 268 l 47 233 b 296 -21 47 93 121 -21 b 544 233 471 -21 544 93 l 544 303 b 394 501 544 407 485 453 l 311 546 b 182 703 185 613 182 629 l 182 754 b 297 896 182 835 215 896 b 414 754 381 896 414 835 l 414 653 l 454 653 l 454 760 b 297 935 454 851 415 935 b 142 760 179 935 142 851 l 142 690 b 269 519 142 607 153 581 l 356 474 b 504 289 460 418 504 383 z m 413 249 b 296 107 413 168 379 107 b 178 249 211 107 178 168 l 178 268 l 138 268 l 138 243 b 296 68 138 151 176 68 b 453 243 415 68 453 151 l 453 271 b 307 440 453 351 428 374 l 217 489 b 90 675 117 543 90 576 l 90 765 b 297 985 90 883 143 985 b 504 765 451 985 504 883 l 504 653 l 544 653 l 544 769 b 297 1024 544 910 471 1024 b 50 769 124 1024 50 910 l 50 663 b 175 463 50 556 89 510 l 267 413 b 413 256 401 339 413 329 z "},"T":{"ha":493,"x_min":0,"x_max":0,"o":"m 313 0 l 313 878 l 465 878 l 465 917 l 272 917 l 272 0 z m 465 964 l 465 1003 l 28 1003 l 28 964 z m 221 0 l 221 917 l 28 917 l 28 878 l 181 878 l 181 0 z "},"U":{"ha":647,"x_min":0,"x_max":0,"o":"m 324 -21 b 572 233 499 -21 572 93 l 572 1003 l 532 1003 l 532 238 b 324 18 532 119 479 18 b 115 238 168 18 115 119 l 115 1003 l 75 1003 l 75 233 b 324 -21 75 93 149 -21 z m 324 68 b 481 243 443 68 481 151 l 481 1003 l 440 1003 l 440 249 b 324 107 440 168 407 107 b 207 249 240 107 207 168 l 207 1003 l 167 1003 l 167 243 b 324 68 167 151 204 68 z "},"V":{"ha":617,"x_min":0,"x_max":0,"o":"m 308 18 b 161 192 190 18 169 100 l 83 1003 l 43 1003 l 121 183 b 308 -21 131 88 154 -21 b 496 183 463 -21 486 88 l 574 1003 l 533 1003 l 456 192 b 308 18 447 100 426 18 z m 132 1003 l 211 201 b 308 68 219 114 236 68 b 406 201 381 68 397 114 l 485 1003 l 444 1003 l 368 199 b 308 107 361 125 346 107 b 249 199 271 107 256 125 l 172 1003 z "},"W":{"ha":986,"x_min":0,"x_max":0,"o":"m 428 1003 l 428 249 b 317 107 428 168 393 107 b 207 249 240 107 207 168 l 207 1003 l 167 1003 l 167 244 b 317 68 167 144 211 68 b 468 244 422 68 468 144 l 468 1003 z m 518 1003 l 518 244 b 669 68 518 144 564 68 b 819 244 775 68 819 144 l 819 1003 l 779 1003 l 779 249 b 669 107 779 168 746 107 b 558 249 593 107 558 168 l 558 1003 z m 493 54 b 669 -21 532 10 589 -21 b 911 233 838 -21 911 93 l 911 1003 l 871 1003 l 871 239 b 669 18 871 115 810 18 b 493 132 601 18 536 39 b 317 18 450 39 385 18 b 115 239 176 18 115 115 l 115 1003 l 75 1003 l 75 233 b 317 -21 75 93 149 -21 b 493 54 397 -21 454 10 z "},"X":{"ha":606,"x_min":0,"x_max":0,"o":"m 465 1003 l 424 1003 l 396 638 b 303 517 390 565 363 517 b 210 638 243 517 215 565 l 182 1003 l 140 1003 l 168 635 b 303 476 175 539 229 476 b 438 635 376 476 431 539 z m 556 0 l 528 279 b 435 453 521 353 494 433 b 528 626 494 472 522 551 l 556 1003 l 515 1003 l 486 631 b 365 453 481 563 465 483 b 488 275 460 425 481 346 l 515 0 z m 90 0 l 118 275 b 240 453 125 346 146 425 b 119 631 140 483 125 563 l 90 1003 l 50 1003 l 78 626 b 171 453 83 551 111 472 b 78 279 111 433 85 353 l 50 0 z m 424 0 l 465 0 l 438 271 b 303 429 426 376 376 429 b 168 271 229 429 179 376 l 140 0 l 182 0 l 210 268 b 303 389 217 339 243 389 b 396 268 363 389 389 339 z "},"Y":{"ha":575,"x_min":0,"x_max":0,"o":"m 261 457 b 124 629 153 464 131 549 l 89 1003 l 49 1003 l 85 621 b 221 424 93 539 118 449 l 221 0 l 261 0 z m 313 0 l 353 0 l 353 424 b 490 621 457 449 482 539 l 526 1003 l 486 1003 l 451 629 b 313 457 444 549 422 464 z m 288 550 b 213 647 238 550 219 574 l 179 1003 l 143 1003 l 178 640 b 288 511 185 564 213 511 b 397 640 363 511 390 564 l 432 1003 l 396 1003 l 363 647 b 288 550 356 574 338 550 z "},"Z":{"ha":544,"x_min":0,"x_max":0,"o":"m 511 0 l 511 39 l 68 39 l 68 79 l 414 917 l 40 917 l 40 878 l 351 878 l 33 107 l 33 0 z m 511 86 l 511 125 l 185 125 l 504 896 l 504 1003 l 40 1003 l 40 964 l 471 964 l 471 922 l 128 86 z "},"[":{"ha":342,"x_min":0,"x_max":0,"o":"m 308 -151 l 308 -112 l 118 -112 l 118 1115 l 308 1115 l 308 1154 l 78 1154 l 78 -151 z m 308 -75 l 308 -36 l 210 -36 l 210 1039 l 308 1039 l 308 1078 l 169 1078 l 169 -75 z "},"\\":{"ha":444,"x_min":0,"x_max":0,"o":"m 338 -42 l 57 1044 l 17 1044 l 297 -42 z m 428 -42 l 147 1044 l 107 1044 l 388 -42 z "},"]":{"ha":342,"x_min":0,"x_max":0,"o":"m 264 -151 l 264 1154 l 33 1154 l 33 1115 l 224 1115 l 224 -112 l 33 -112 l 33 -151 z m 172 -75 l 172 1078 l 33 1078 l 33 1039 l 132 1039 l 132 -36 l 33 -36 l 33 -75 z "},"_":{"ha":624,"x_min":0,"x_max":0,"o":"m 624 -64 l 624 -24 l 0 -24 l 0 -64 z m 624 22 l 624 63 l 0 63 l 0 22 z "},"`":{"ha":390,"x_min":0,"x_max":0,"o":"m 271 1090 l 174 1243 l 133 1243 l 232 1090 z m 192 1090 l 64 1243 l 22 1243 l 151 1090 z "},"a":{"ha":647,"x_min":0,"x_max":0,"o":"m 481 332 l 481 760 b 324 935 481 851 443 935 b 167 760 204 935 167 851 l 167 332 z m 207 754 b 324 896 207 835 240 896 b 440 754 407 896 440 835 l 440 371 l 207 371 z m 324 1024 b 75 769 149 1024 75 910 l 75 0 l 115 0 l 115 765 b 324 985 115 883 168 985 b 532 765 479 985 532 883 l 532 0 l 572 0 l 572 769 b 324 1024 572 910 499 1024 z m 167 285 l 167 0 l 207 0 l 207 246 l 440 246 l 440 0 l 481 0 l 481 285 z "},"b":{"ha":611,"x_min":0,"x_max":0,"o":"m 510 185 b 368 39 510 79 454 39 l 118 39 l 118 964 l 364 964 b 506 817 458 964 506 914 l 506 629 b 392 453 506 557 489 479 b 510 276 493 418 510 343 z m 311 475 b 456 635 417 475 456 558 l 456 813 b 354 917 456 882 424 917 l 169 917 l 169 475 z m 357 86 b 460 189 411 86 460 111 l 460 272 b 311 431 460 346 417 431 l 169 431 l 169 86 z m 376 0 b 550 182 500 0 550 78 l 550 279 b 457 453 550 353 524 433 b 546 626 519 472 546 551 l 546 821 b 372 1003 546 925 496 1003 l 78 1003 l 78 0 z m 414 638 b 300 515 414 565 381 515 l 210 515 l 210 878 l 344 878 b 414 810 399 878 414 850 z m 418 193 b 349 125 418 153 403 125 l 210 125 l 210 390 l 300 390 b 418 268 385 390 418 339 z "},"c":{"ha":606,"x_min":0,"x_max":0,"o":"m 107 765 b 315 985 107 883 160 985 b 524 765 471 985 524 883 l 524 653 l 564 653 l 564 769 b 315 1024 564 910 490 1024 b 67 769 140 1024 67 910 l 67 233 b 315 -21 67 93 140 -21 b 564 233 490 -21 564 93 l 564 268 l 524 268 l 524 238 b 315 18 524 119 471 18 b 107 238 160 18 107 119 z m 158 243 b 315 68 158 151 196 68 b 474 243 435 68 474 151 l 474 268 l 433 268 l 433 249 b 315 107 433 168 400 107 b 199 249 232 107 199 168 l 199 754 b 315 896 199 835 232 896 b 433 754 400 896 433 835 l 433 653 l 474 653 l 474 760 b 315 935 474 851 435 935 b 158 760 196 935 158 851 z "},"d":{"ha":622,"x_min":0,"x_max":0,"o":"m 78 1003 l 78 0 l 376 0 b 550 182 500 0 550 78 l 550 821 b 376 1003 550 925 500 1003 z m 118 964 l 368 964 b 510 818 469 964 510 901 l 510 185 b 368 39 510 101 469 39 l 118 39 z m 169 917 l 169 86 l 357 86 b 458 189 432 86 458 131 l 458 814 b 357 917 458 872 432 917 z m 210 878 l 349 878 b 418 810 403 878 418 850 l 418 193 b 349 125 418 153 403 125 l 210 125 z "},"e":{"ha":625,"x_min":0,"x_max":0,"o":"m 158 429 l 158 243 b 315 68 158 151 196 68 b 474 243 435 68 474 151 l 474 268 l 433 268 l 433 249 b 315 107 433 168 400 107 b 199 249 232 107 199 168 l 199 390 l 564 390 l 564 769 b 315 1024 564 910 490 1024 b 67 769 140 1024 67 910 l 67 233 b 315 -21 67 93 140 -21 b 564 233 490 -21 564 93 l 564 268 l 524 268 l 524 238 b 315 18 524 119 471 18 b 107 238 160 18 107 119 l 107 765 b 315 985 107 883 160 985 b 524 765 471 985 524 883 l 524 429 z m 472 476 l 472 760 b 315 935 472 851 435 935 b 158 760 196 935 158 851 l 158 476 z m 199 754 b 315 896 199 835 232 896 b 432 754 399 896 432 835 l 432 515 l 199 515 z "},"f":{"ha":607,"x_min":0,"x_max":0,"o":"m 115 0 l 115 765 b 324 985 115 883 168 985 b 532 765 479 985 532 883 l 532 653 l 572 653 l 572 769 b 324 1024 572 910 499 1024 b 75 769 149 1024 75 910 l 75 0 z m 518 476 l 518 515 l 207 515 l 207 754 b 324 896 207 835 240 896 b 442 754 408 896 442 835 l 442 653 l 482 653 l 482 760 b 324 935 482 851 443 935 b 167 760 204 935 167 851 l 167 476 z m 167 429 l 167 0 l 207 0 l 207 390 l 518 390 l 518 429 z "},"g":{"ha":625,"x_min":0,"x_max":0,"o":"m 107 765 b 315 985 107 883 160 985 b 524 765 471 985 524 883 l 524 653 l 564 653 l 564 769 b 315 1024 564 910 490 1024 b 67 769 140 1024 67 910 l 67 233 b 315 -21 67 93 140 -21 b 564 233 490 -21 564 93 l 564 515 l 268 515 l 268 476 l 524 476 l 524 238 b 315 18 524 119 471 18 b 107 238 160 18 107 119 z m 158 243 b 315 68 158 151 196 68 b 474 243 435 68 474 151 l 474 429 l 268 429 l 268 390 l 433 390 l 433 249 b 315 107 433 168 400 107 b 199 249 232 107 199 168 l 199 754 b 315 896 199 835 232 896 b 433 754 399 896 433 835 l 433 653 l 474 653 l 474 760 b 315 935 474 851 435 935 b 158 760 196 935 158 851 z "},"h":{"ha":656,"x_min":0,"x_max":0,"o":"m 486 476 l 486 1003 l 446 1003 l 446 515 l 210 515 l 210 1003 l 169 1003 l 169 476 z m 486 0 l 486 429 l 169 429 l 169 0 l 210 0 l 210 390 l 446 390 l 446 0 z m 578 0 l 578 1003 l 538 1003 l 538 0 z m 118 0 l 118 1003 l 78 1003 l 78 0 z "},"i":{"ha":288,"x_min":0,"x_max":0,"o":"m 210 0 l 210 1003 l 169 1003 l 169 0 z m 118 0 l 118 1003 l 78 1003 l 78 0 z "},"j":{"ha":383,"x_min":0,"x_max":0,"o":"m 25 -7 l 60 -7 b 308 247 235 -7 308 93 l 308 1003 l 268 1003 l 268 251 b 60 32 268 119 215 32 l 25 32 z m 25 79 l 60 79 b 217 257 179 79 217 151 l 217 1003 l 176 1003 l 176 263 b 60 118 176 168 143 118 l 25 118 z "},"k":{"ha":618,"x_min":0,"x_max":0,"o":"m 458 0 l 458 272 b 303 431 458 343 424 431 l 169 431 l 169 0 l 210 0 l 210 390 l 300 390 b 418 268 385 390 418 339 l 418 0 z m 118 0 l 118 1003 l 78 1003 l 78 0 z m 418 1003 l 418 638 b 300 515 418 565 385 515 l 210 515 l 210 1003 l 169 1003 l 169 475 l 303 475 b 458 633 424 475 458 563 l 458 1003 z m 457 453 b 550 626 524 472 550 551 l 550 1003 l 510 1003 l 510 629 b 389 453 510 556 489 482 b 510 276 489 424 510 350 l 510 0 l 550 0 l 550 279 b 457 453 550 353 524 433 z "},"l":{"ha":449,"x_min":0,"x_max":0,"o":"m 422 0 l 422 39 l 118 39 l 118 1003 l 78 1003 l 78 0 z m 422 86 l 422 125 l 210 125 l 210 1003 l 169 1003 l 169 86 z "},"m":{"ha":990,"x_min":0,"x_max":0,"o":"m 915 0 l 915 738 b 871 944 915 828 904 894 b 715 1024 840 990 789 1024 b 519 919 614 1024 563 981 b 363 1024 481 989 433 1024 b 203 936 275 1024 219 963 l 203 1003 l 169 1003 l 169 829 b 356 985 169 829 217 985 b 485 908 415 985 457 958 b 508 835 494 890 503 864 b 708 985 538 914 601 985 b 838 921 768 985 810 964 b 875 733 867 875 875 813 l 875 0 z m 118 0 l 118 1003 l 78 1003 l 78 0 z m 824 0 l 824 728 b 793 885 824 794 817 847 b 699 938 771 921 742 938 b 522 661 563 938 522 794 l 522 0 l 563 0 l 563 667 b 692 899 563 789 597 899 b 763 861 721 899 747 888 b 783 724 782 828 783 781 l 783 0 z m 471 0 l 471 728 b 440 885 471 794 464 847 b 346 938 418 921 389 938 b 169 661 210 938 169 794 l 169 0 l 210 0 l 210 667 b 339 899 210 789 244 899 b 410 861 368 899 394 888 b 431 724 429 828 431 781 l 431 0 z "},"n":{"ha":650,"x_min":0,"x_max":0,"o":"m 483 0 l 483 728 b 453 885 483 794 476 847 b 357 938 431 921 403 938 b 169 661 210 938 169 794 l 169 0 l 210 0 l 210 667 b 350 899 210 789 243 899 b 422 861 383 899 407 888 b 443 724 442 828 443 781 l 443 0 z m 575 0 l 575 738 b 531 944 575 828 564 894 b 376 1024 500 990 451 1024 b 203 936 275 1024 219 963 l 203 1003 l 169 1003 l 169 829 b 368 985 169 829 211 985 b 497 921 429 985 469 964 b 535 733 526 875 535 813 l 535 0 z m 118 0 l 118 1003 l 78 1003 l 78 0 z "},"o":{"ha":631,"x_min":0,"x_max":0,"o":"m 315 -21 b 564 233 490 -21 564 93 l 564 769 b 315 1024 564 910 490 1024 b 67 769 140 1024 67 910 l 67 233 b 315 -21 67 93 140 -21 z m 107 765 b 315 985 107 883 160 985 b 524 765 471 985 524 883 l 524 238 b 315 18 524 119 471 18 b 107 238 160 18 107 119 z m 315 68 b 472 243 435 68 472 151 l 472 760 b 315 935 472 851 435 935 b 158 760 196 935 158 851 l 158 243 b 315 68 158 151 196 68 z m 199 754 b 315 896 199 835 232 896 b 432 754 399 896 432 835 l 432 249 b 315 107 432 168 399 107 b 199 249 232 107 199 168 z "},"p":{"ha":599,"x_min":0,"x_max":0,"o":"m 118 0 l 118 964 l 368 964 b 510 818 469 964 510 901 l 510 571 b 368 425 510 488 469 425 l 169 425 l 169 0 l 210 0 l 210 386 l 376 386 b 550 568 500 386 550 464 l 550 821 b 376 1003 550 925 500 1003 l 78 1003 l 78 0 z m 169 917 l 169 472 l 357 472 b 458 575 432 472 458 517 l 458 814 b 357 917 458 872 432 917 z m 210 878 l 349 878 b 418 810 403 878 418 850 l 418 579 b 349 511 418 539 403 511 l 210 511 z "},"q":{"ha":631,"x_min":0,"x_max":0,"o":"m 442 53 b 315 18 410 32 382 18 b 107 238 160 18 107 119 l 107 765 b 315 985 107 883 160 985 b 524 765 471 985 524 883 l 524 238 b 478 89 524 185 515 142 l 583 -24 l 614 3 l 531 92 b 564 233 553 132 564 181 l 564 769 b 315 1024 564 910 490 1024 b 67 769 140 1024 67 910 l 67 233 b 315 -21 67 93 140 -21 b 433 1 361 -21 401 -12 l 513 -87 l 543 -60 z m 304 210 l 274 183 l 339 110 b 315 107 332 107 324 107 b 199 249 232 107 199 168 l 199 754 b 315 896 199 835 232 896 b 432 754 399 896 432 835 l 432 249 b 428 203 432 232 431 217 l 368 267 l 338 240 l 440 129 b 472 243 460 160 472 197 l 472 760 b 315 935 472 851 435 935 b 158 760 196 935 158 851 l 158 243 b 315 68 158 151 196 68 b 408 92 364 68 388 78 z "},"r":{"ha":615,"x_min":0,"x_max":0,"o":"m 169 475 l 303 475 b 458 633 424 475 458 563 l 458 814 b 357 917 458 872 432 917 l 169 917 z m 118 0 l 118 964 l 368 964 b 510 818 469 964 510 901 l 510 629 b 389 453 510 556 489 482 b 510 276 489 424 510 350 l 510 0 l 550 0 l 550 279 b 457 453 550 353 524 433 b 550 626 524 472 550 551 l 550 821 b 376 1003 550 925 500 1003 l 78 1003 l 78 0 z m 418 638 b 300 515 418 565 385 515 l 210 515 l 210 878 l 349 878 b 418 810 403 878 418 850 z m 458 0 l 458 272 b 303 431 458 343 424 431 l 169 431 l 169 0 l 210 0 l 210 390 l 300 390 b 418 268 385 390 418 339 l 418 0 z "},"s":{"ha":599,"x_min":0,"x_max":0,"o":"m 504 238 b 296 18 504 119 451 18 b 88 238 140 18 88 119 l 88 268 l 47 268 l 47 233 b 296 -21 47 93 121 -21 b 544 233 471 -21 544 93 l 544 303 b 394 501 544 407 485 453 l 311 546 b 182 703 185 613 182 629 l 182 754 b 297 896 182 835 215 896 b 414 754 381 896 414 835 l 414 653 l 454 653 l 454 760 b 297 935 454 851 415 935 b 142 760 179 935 142 851 l 142 690 b 269 519 142 607 153 581 l 356 474 b 504 289 460 418 504 383 z m 413 249 b 296 107 413 168 379 107 b 178 249 211 107 178 168 l 178 268 l 138 268 l 138 243 b 296 68 138 151 176 68 b 453 243 415 68 453 151 l 453 271 b 307 440 453 351 428 374 l 217 489 b 90 675 117 543 90 576 l 90 765 b 297 985 90 883 143 985 b 504 765 451 985 504 883 l 504 653 l 544 653 l 544 769 b 297 1024 544 910 471 1024 b 50 769 124 1024 50 910 l 50 663 b 175 463 50 556 89 510 l 267 413 b 413 256 401 339 413 329 z "},"t":{"ha":597,"x_min":0,"x_max":0,"o":"m 75 1003 l 75 233 b 324 -21 75 93 149 -21 b 572 233 499 -21 572 93 l 572 268 l 532 268 l 532 238 b 324 18 532 119 479 18 b 115 238 168 18 115 119 l 115 1003 z m 167 632 l 167 243 b 324 68 167 151 204 68 b 482 243 443 68 482 151 l 482 268 l 442 268 l 442 249 b 324 107 442 168 408 107 b 207 249 240 107 207 168 l 207 593 l 556 593 l 556 632 z m 556 679 l 556 718 l 207 718 l 207 1003 l 167 1003 l 167 679 z "},"u":{"ha":650,"x_min":0,"x_max":0,"o":"m 167 1003 l 167 275 b 197 118 167 208 174 156 b 293 65 219 82 247 65 b 481 342 440 65 481 208 l 481 1003 l 440 1003 l 440 336 b 300 104 440 214 407 104 b 226 142 267 104 242 115 b 207 279 207 175 207 222 l 207 1003 z m 75 1003 l 75 265 b 119 58 75 175 86 108 b 274 -21 150 13 199 -21 b 447 67 375 -21 431 40 l 447 0 l 481 0 l 481 174 b 282 18 481 174 439 18 b 153 82 221 18 181 39 b 115 269 124 128 115 190 l 115 1003 z m 532 1003 l 532 0 l 572 0 l 572 1003 z "},"v":{"ha":589,"x_min":0,"x_max":0,"o":"m 294 -21 b 468 182 429 -21 458 86 l 546 1003 l 506 1003 l 428 189 b 294 18 419 99 397 18 b 161 189 192 18 169 99 l 83 1003 l 43 1003 l 121 182 b 294 -21 131 86 160 -21 z m 294 107 b 250 196 265 107 257 128 l 174 1003 l 133 1003 l 210 193 b 294 68 217 115 233 68 b 379 193 356 68 372 115 l 456 1003 l 415 1003 l 339 196 b 294 107 332 128 324 107 z "},"w":{"ha":872,"x_min":0,"x_max":0,"o":"m 372 214 b 306 107 372 132 344 107 b 250 196 275 107 257 128 l 174 1003 l 135 1003 l 213 192 b 307 68 219 115 240 68 b 413 222 383 68 413 132 l 413 1003 l 372 1003 z m 500 1003 l 460 1003 l 460 222 b 565 68 460 132 489 68 b 660 192 632 68 653 115 l 738 1003 l 699 1003 l 622 196 b 567 107 615 128 597 107 b 500 214 528 107 500 132 z m 436 40 b 564 -21 464 -7 506 -21 b 751 182 713 -21 742 86 l 829 1003 l 790 1003 l 713 188 b 564 18 704 99 676 18 b 436 124 490 18 458 60 b 308 18 414 60 382 18 b 160 188 196 18 168 99 l 82 1003 l 43 1003 l 121 182 b 308 -21 131 86 160 -21 b 436 40 367 -21 408 -7 z "},"x":{"ha":608,"x_min":0,"x_max":0,"o":"m 449 1003 l 408 1003 l 408 638 b 304 517 408 565 378 517 b 200 638 231 517 200 565 l 200 1003 l 160 1003 l 160 633 b 304 475 160 563 194 475 b 449 633 414 475 449 563 z m 447 453 b 540 626 514 472 540 551 l 540 1003 l 500 1003 l 500 629 b 379 453 500 556 479 482 b 500 276 479 424 500 350 l 500 0 l 540 0 l 540 279 b 447 453 540 353 514 433 z m 161 453 b 68 279 94 433 68 353 l 68 0 l 108 0 l 108 276 b 229 453 108 350 129 424 b 108 629 129 482 108 556 l 108 1003 l 68 1003 l 68 626 b 161 453 68 551 94 472 z m 408 0 l 449 0 l 449 272 b 304 431 449 343 414 431 b 160 272 194 431 160 343 l 160 0 l 200 0 l 200 268 b 304 389 200 339 231 389 b 408 268 378 389 408 339 z "},"y":{"ha":642,"x_min":0,"x_max":0,"o":"m 69 1003 l 69 667 b 114 460 69 576 81 510 b 268 381 144 414 193 381 b 435 447 353 381 396 410 l 435 249 b 318 107 435 168 401 107 b 200 249 235 107 200 168 l 200 268 l 160 268 l 160 243 b 318 68 160 151 199 68 b 475 243 438 68 475 151 l 475 574 b 276 419 471 560 425 419 b 147 483 215 419 175 440 b 110 671 118 529 110 592 l 110 1003 z m 526 1003 l 526 238 b 318 18 526 119 474 18 b 110 238 163 18 110 119 l 110 268 l 69 268 l 69 233 b 318 -21 69 93 143 -21 b 567 233 493 -21 567 93 l 567 1003 z m 161 1003 l 161 676 b 192 519 161 610 168 557 b 288 467 214 483 242 467 b 475 743 435 467 475 610 l 475 1003 l 435 1003 l 435 738 b 294 506 435 615 401 506 b 222 543 261 506 238 517 b 201 681 203 576 201 624 l 201 1003 z "},"z":{"ha":544,"x_min":0,"x_max":0,"o":"m 511 0 l 511 39 l 68 39 l 68 79 l 414 917 l 40 917 l 40 878 l 351 878 l 33 107 l 33 0 z m 511 86 l 511 125 l 185 125 l 504 896 l 504 1003 l 40 1003 l 40 964 l 471 964 l 471 922 l 128 86 z "},"|":{"ha":288,"x_min":0,"x_max":0,"o":"m 210 -36 l 210 1039 l 169 1039 l 169 -36 z m 118 -36 l 118 1039 l 78 1039 l 78 -36 z "},"Ä":{"ha":617,"x_min":0,"x_max":0,"o":""},"Å":{"ha":617,"x_min":0,"x_max":0,"o":"m 485 0 l 457 285 l 160 285 l 132 0 l 172 0 l 196 246 l 421 246 l 444 0 z m 308 985 b 456 811 426 985 447 903 l 533 0 l 574 0 l 496 819 b 308 1024 486 915 463 1024 b 121 819 154 1024 131 915 l 43 0 l 83 0 l 161 811 b 308 985 169 903 190 985 z m 165 332 l 451 332 l 407 801 b 308 935 399 886 381 935 b 210 801 236 935 218 886 z m 249 804 b 308 896 256 878 271 896 b 368 804 346 896 361 878 l 408 371 l 208 371 z m 171 1179 b 308 1042 171 1103 232 1042 b 446 1179 385 1042 446 1103 b 308 1317 446 1256 385 1317 b 171 1179 232 1317 171 1256 z m 415 1179 b 308 1069 415 1119 369 1069 b 201 1179 247 1069 201 1119 b 308 1289 201 1239 247 1289 b 415 1179 369 1289 415 1239 z m 229 1179 b 308 1100 229 1136 265 1100 b 388 1179 351 1100 388 1136 b 308 1258 388 1222 351 1258 b 229 1179 265 1258 229 1222 z m 308 1231 b 357 1179 335 1231 357 1207 b 308 1128 357 1151 335 1128 b 260 1179 282 1128 260 1151 b 308 1231 260 1207 282 1231 z "},"Ç":{"ha":606,"x_min":0,"x_max":0,"o":"m 332 -264 b 403 -193 382 -264 403 -239 l 403 -183 b 333 -114 403 -132 385 -114 l 282 -114 l 282 19 b 107 238 157 33 107 122 l 107 765 b 315 985 107 883 160 985 b 524 765 471 985 524 883 l 524 653 l 564 653 l 564 769 b 315 1024 564 910 490 1024 b 67 769 140 1024 67 910 l 67 233 b 257 -15 67 103 129 6 l 257 -139 l 328 -139 b 375 -186 369 -139 375 -158 l 375 -194 b 326 -239 375 -219 367 -239 l 290 -239 b 242 -194 250 -239 242 -219 l 242 -189 l 218 -189 l 218 -194 b 294 -264 218 -233 233 -264 z m 158 243 b 315 68 158 151 196 68 b 474 243 435 68 474 151 l 474 268 l 433 268 l 433 249 b 315 107 433 168 400 107 b 199 249 232 107 199 168 l 199 754 b 315 896 199 835 232 896 b 433 754 400 896 433 835 l 433 653 l 474 653 l 474 760 b 315 935 474 851 435 935 b 158 760 196 935 158 851 z m 347 -322 b 464 -182 417 -322 464 -286 b 347 -56 464 -71 417 -56 l 339 -56 l 339 -19 b 564 233 497 -10 564 99 l 564 268 l 524 268 l 524 238 b 314 18 524 119 471 18 l 314 -81 l 340 -81 b 436 -185 406 -81 436 -93 b 340 -297 436 -269 403 -297 l 300 -297 b 190 -196 211 -297 190 -250 l 190 -189 l 167 -189 l 167 -196 b 304 -322 167 -264 193 -322 z "},"É":{"ha":503,"x_min":0,"x_max":0,"o":""},"Ñ":{"ha":647,"x_min":0,"x_max":0,"o":""},"Ö":{"ha":631,"x_min":0,"x_max":0,"o":""},"Ü":{"ha":647,"x_min":0,"x_max":0,"o":"m 324 -21 b 572 233 499 -21 572 93 l 572 1003 l 532 1003 l 532 238 b 324 18 532 119 479 18 b 115 238 168 18 115 119 l 115 1003 l 75 1003 l 75 233 b 324 -21 75 93 149 -21 z m 324 68 b 481 243 443 68 481 151 l 481 1003 l 440 1003 l 440 249 b 324 107 440 168 407 107 b 207 249 240 107 207 168 l 207 1003 l 167 1003 l 167 243 b 324 68 167 151 204 68 z m 282 1090 l 282 1215 l 243 1215 l 243 1090 z m 196 1090 l 196 1215 l 157 1215 l 157 1090 z m 490 1090 l 490 1215 l 451 1215 l 451 1090 z m 404 1090 l 404 1215 l 365 1215 l 365 1090 z "},"á":{"ha":647,"x_min":0,"x_max":0,"o":""},"à":{"ha":647,"x_min":0,"x_max":0,"o":"m 481 332 l 481 760 b 324 935 481 851 443 935 b 167 760 204 935 167 851 l 167 332 z m 207 754 b 324 896 207 835 240 896 b 440 754 407 896 440 835 l 440 371 l 207 371 z m 324 1024 b 75 769 149 1024 75 910 l 75 0 l 115 0 l 115 765 b 324 985 115 883 168 985 b 532 765 479 985 532 883 l 532 0 l 572 0 l 572 769 b 324 1024 572 910 499 1024 z m 167 285 l 167 0 l 207 0 l 207 246 l 440 246 l 440 0 l 481 0 l 481 285 z m 383 1090 l 286 1243 l 246 1243 l 344 1090 z m 304 1090 l 176 1243 l 135 1243 l 264 1090 z "},"â":{"ha":647,"x_min":0,"x_max":0,"o":""},"ä":{"ha":647,"x_min":0,"x_max":0,"o":"m 481 332 l 481 760 b 324 935 481 851 443 935 b 167 760 204 935 167 851 l 167 332 z m 207 754 b 324 896 207 835 240 896 b 440 754 407 896 440 835 l 440 371 l 207 371 z m 324 1024 b 75 769 149 1024 75 910 l 75 0 l 115 0 l 115 765 b 324 985 115 883 168 985 b 532 765 479 985 532 883 l 532 0 l 572 0 l 572 769 b 324 1024 572 910 499 1024 z m 167 285 l 167 0 l 207 0 l 207 246 l 440 246 l 440 0 l 481 0 l 481 285 z m 282 1090 l 282 1215 l 243 1215 l 243 1090 z m 196 1090 l 196 1215 l 157 1215 l 157 1090 z m 490 1090 l 490 1215 l 451 1215 l 451 1090 z m 404 1090 l 404 1215 l 365 1215 l 365 1090 z "},"ã":{"ha":647,"x_min":0,"x_max":0,"o":""},"å":{"ha":647,"x_min":0,"x_max":0,"o":"m 481 332 l 481 760 b 324 935 481 851 443 935 b 167 760 204 935 167 851 l 167 332 z m 207 754 b 324 896 207 835 240 896 b 440 754 407 896 440 835 l 440 371 l 207 371 z m 324 1024 b 75 769 149 1024 75 910 l 75 0 l 115 0 l 115 765 b 324 985 115 883 168 985 b 532 765 479 985 532 883 l 532 0 l 572 0 l 572 769 b 324 1024 572 910 499 1024 z m 167 285 l 167 0 l 207 0 l 207 246 l 440 246 l 440 0 l 481 0 l 481 285 z m 186 1179 b 324 1042 186 1103 247 1042 b 461 1179 400 1042 461 1103 b 324 1317 461 1256 400 1317 b 186 1179 247 1317 186 1256 z m 431 1179 b 324 1069 431 1119 385 1069 b 217 1179 263 1069 217 1119 b 324 1289 217 1239 263 1289 b 431 1179 385 1289 431 1239 z m 244 1179 b 324 1100 244 1136 281 1100 b 403 1179 367 1100 403 1136 b 324 1258 403 1222 367 1258 b 244 1179 281 1258 244 1222 z m 324 1231 b 372 1179 350 1231 372 1207 b 324 1128 372 1151 350 1128 b 275 1179 297 1128 275 1151 b 324 1231 275 1207 297 1231 z "},"ç":{"ha":606,"x_min":0,"x_max":0,"o":"m 332 -264 b 403 -193 382 -264 403 -239 l 403 -183 b 333 -114 403 -132 385 -114 l 282 -114 l 282 19 b 107 238 157 33 107 122 l 107 765 b 315 985 107 883 160 985 b 524 765 471 985 524 883 l 524 653 l 564 653 l 564 769 b 315 1024 564 910 490 1024 b 67 769 140 1024 67 910 l 67 233 b 257 -15 67 103 129 6 l 257 -139 l 328 -139 b 375 -186 369 -139 375 -158 l 375 -194 b 326 -239 375 -219 367 -239 l 290 -239 b 242 -194 250 -239 242 -219 l 242 -189 l 218 -189 l 218 -194 b 294 -264 218 -233 233 -264 z m 158 243 b 315 68 158 151 196 68 b 474 243 435 68 474 151 l 474 268 l 433 268 l 433 249 b 315 107 433 168 400 107 b 199 249 232 107 199 168 l 199 754 b 315 896 199 835 232 896 b 433 754 399 896 433 835 l 433 653 l 474 653 l 474 760 b 315 935 474 851 435 935 b 158 760 196 935 158 851 z m 347 -322 b 464 -182 417 -322 464 -286 b 347 -56 464 -71 417 -56 l 339 -56 l 339 -19 b 564 233 497 -10 564 99 l 564 268 l 524 268 l 524 238 b 314 18 524 119 471 18 l 314 -81 l 340 -81 b 436 -185 406 -81 436 -93 b 340 -297 436 -269 403 -297 l 300 -297 b 190 -196 211 -297 190 -250 l 190 -189 l 167 -189 l 167 -196 b 304 -322 167 -264 193 -322 z "},"é":{"ha":625,"x_min":0,"x_max":0,"o":""},"è":{"ha":625,"x_min":0,"x_max":0,"o":"m 158 429 l 158 243 b 315 68 158 151 196 68 b 474 243 435 68 474 151 l 474 268 l 433 268 l 433 249 b 315 107 433 168 400 107 b 199 249 232 107 199 168 l 199 390 l 564 390 l 564 769 b 315 1024 564 910 490 1024 b 67 769 140 1024 67 910 l 67 233 b 315 -21 67 93 140 -21 b 564 233 490 -21 564 93 l 564 268 l 524 268 l 524 238 b 315 18 524 119 471 18 b 107 238 160 18 107 119 l 107 765 b 315 985 107 883 160 985 b 524 765 471 985 524 883 l 524 429 z m 472 476 l 472 760 b 315 935 472 851 435 935 b 158 760 196 935 158 851 l 158 476 z m 199 754 b 315 896 199 835 232 896 b 432 754 399 896 432 835 l 432 515 l 199 515 z m 375 1090 l 278 1243 l 238 1243 l 336 1090 z m 296 1090 l 168 1243 l 126 1243 l 256 1090 z "},"ê":{"ha":625,"x_min":0,"x_max":0,"o":""},"ë":{"ha":625,"x_min":0,"x_max":0,"o":"m 158 429 l 158 243 b 315 68 158 151 196 68 b 474 243 435 68 474 151 l 474 268 l 433 268 l 433 249 b 315 107 433 168 400 107 b 199 249 232 107 199 168 l 199 390 l 564 390 l 564 769 b 315 1024 564 910 490 1024 b 67 769 140 1024 67 910 l 67 233 b 315 -21 67 93 140 -21 b 564 233 490 -21 564 93 l 564 268 l 524 268 l 524 238 b 315 18 524 119 471 18 b 107 238 160 18 107 119 l 107 765 b 315 985 107 883 160 985 b 524 765 471 985 524 883 l 524 429 z m 472 476 l 472 760 b 315 935 472 851 435 935 b 158 760 196 935 158 851 l 158 476 z m 199 754 b 315 896 199 835 232 896 b 432 754 399 896 432 835 l 432 515 l 199 515 z m 274 1090 l 274 1215 l 235 1215 l 235 1090 z m 188 1090 l 188 1215 l 149 1215 l 149 1090 z m 482 1090 l 482 1215 l 443 1215 l 443 1090 z m 396 1090 l 396 1215 l 357 1215 l 357 1090 z "},"í":{"ha":507,"x_min":0,"x_max":0,"o":""},"ì":{"ha":288,"x_min":0,"x_max":0,"o":"m 210 0 l 210 1003 l 169 1003 l 169 0 z m 118 0 l 118 1003 l 78 1003 l 78 0 z m 204 1090 l 107 1243 l 67 1243 l 165 1090 z m 125 1090 l -3 1243 l -44 1243 l 85 1090 z "},"î":{"ha":440,"x_min":0,"x_max":0,"o":""},"ï":{"ha":288,"x_min":0,"x_max":0,"o":"m 210 0 l 210 1003 l 169 1003 l 169 0 z m 118 0 l 118 1003 l 78 1003 l 78 0 z m 101 1090 l 101 1215 l 63 1215 l 63 1090 z m 15 1090 l 15 1215 l -24 1215 l -24 1090 z m 310 1090 l 310 1215 l 271 1215 l 271 1090 z m 224 1090 l 224 1215 l 185 1215 l 185 1090 z "},"ñ":{"ha":650,"x_min":0,"x_max":0,"o":""},"ó":{"ha":631,"x_min":0,"x_max":0,"o":""},"ò":{"ha":631,"x_min":0,"x_max":0,"o":"m 315 -21 b 564 233 490 -21 564 93 l 564 769 b 315 1024 564 910 490 1024 b 67 769 140 1024 67 910 l 67 233 b 315 -21 67 93 140 -21 z m 107 765 b 315 985 107 883 160 985 b 524 765 471 985 524 883 l 524 238 b 315 18 524 119 471 18 b 107 238 160 18 107 119 z m 315 68 b 472 243 435 68 472 151 l 472 760 b 315 935 472 851 435 935 b 158 760 196 935 158 851 l 158 243 b 315 68 158 151 196 68 z m 199 754 b 315 896 199 835 232 896 b 432 754 399 896 432 835 l 432 249 b 315 107 432 168 399 107 b 199 249 232 107 199 168 z m 375 1090 l 278 1243 l 238 1243 l 336 1090 z m 296 1090 l 168 1243 l 126 1243 l 256 1090 z "},"ô":{"ha":631,"x_min":0,"x_max":0,"o":""},"ö":{"ha":631,"x_min":0,"x_max":0,"o":"m 315 -21 b 564 233 490 -21 564 93 l 564 769 b 315 1024 564 910 490 1024 b 67 769 140 1024 67 910 l 67 233 b 315 -21 67 93 140 -21 z m 107 765 b 315 985 107 883 160 985 b 524 765 471 985 524 883 l 524 238 b 315 18 524 119 471 18 b 107 238 160 18 107 119 z m 315 68 b 472 243 435 68 472 151 l 472 760 b 315 935 472 851 435 935 b 158 760 196 935 158 851 l 158 243 b 315 68 158 151 196 68 z m 199 754 b 315 896 199 835 232 896 b 432 754 399 896 432 835 l 432 249 b 315 107 432 168 399 107 b 199 249 232 107 199 168 z m 274 1090 l 274 1215 l 235 1215 l 235 1090 z m 188 1090 l 188 1215 l 149 1215 l 149 1090 z m 482 1090 l 482 1215 l 443 1215 l 443 1090 z m 396 1090 l 396 1215 l 357 1215 l 357 1090 z "},"õ":{"ha":631,"x_min":0,"x_max":0,"o":""},"ú":{"ha":650,"x_min":0,"x_max":0,"o":""},"ù":{"ha":650,"x_min":0,"x_max":0,"o":"m 167 1003 l 167 275 b 197 118 167 208 174 156 b 293 65 219 82 247 65 b 481 342 440 65 481 208 l 481 1003 l 440 1003 l 440 336 b 300 104 440 214 407 104 b 226 142 267 104 242 115 b 207 279 207 175 207 222 l 207 1003 z m 75 1003 l 75 265 b 119 58 75 175 86 108 b 274 -21 150 13 199 -21 b 447 67 375 -21 431 40 l 447 0 l 481 0 l 481 174 b 282 18 481 174 439 18 b 153 82 221 18 181 39 b 115 269 124 128 115 190 l 115 1003 z m 532 1003 l 532 0 l 572 0 l 572 1003 z m 382 1090 l 285 1243 l 244 1243 l 343 1090 z m 303 1090 l 175 1243 l 133 1243 l 263 1090 z "},"û":{"ha":650,"x_min":0,"x_max":0,"o":""},"ü":{"ha":650,"x_min":0,"x_max":0,"o":"m 167 1003 l 167 275 b 197 118 167 208 174 156 b 293 65 219 82 247 65 b 481 342 440 65 481 208 l 481 1003 l 440 1003 l 440 336 b 300 104 440 214 407 104 b 226 142 267 104 242 115 b 207 279 207 175 207 222 l 207 1003 z m 75 1003 l 75 265 b 119 58 75 175 86 108 b 274 -21 150 13 199 -21 b 447 67 375 -21 431 40 l 447 0 l 481 0 l 481 174 b 282 18 481 174 439 18 b 153 82 221 18 181 39 b 115 269 124 128 115 190 l 115 1003 z m 532 1003 l 532 0 l 572 0 l 572 1003 z m 281 1090 l 281 1215 l 242 1215 l 242 1090 z m 194 1090 l 194 1215 l 156 1215 l 156 1090 z m 489 1090 l 489 1215 l 450 1215 l 450 1090 z m 403 1090 l 403 1215 l 364 1215 l 364 1090 z "},"†":{"ha":646,"x_min":0,"x_max":0,"o":"m 47 665 l 47 626 l 257 626 l 257 -14 l 297 -14 l 297 665 z m 297 713 l 297 1017 l 257 1017 l 257 751 l 47 751 l 47 713 z m 599 713 l 599 751 l 389 751 l 389 1017 l 349 1017 l 349 713 z m 349 665 l 349 -14 l 389 -14 l 389 626 l 599 626 l 599 665 z "},"°":{"ha":422,"x_min":0,"x_max":0,"o":"m 38 839 b 211 665 38 743 115 665 b 385 839 307 665 385 743 b 211 1013 385 935 307 1013 b 38 839 115 1013 38 935 z m 71 839 b 211 979 71 917 133 979 b 351 839 289 979 351 917 b 211 699 351 761 289 699 b 71 839 133 699 71 761 z m 106 839 b 211 733 106 781 153 733 b 317 839 269 733 317 781 b 211 944 317 897 269 944 b 106 839 153 944 106 897 z m 139 839 b 211 911 139 879 171 911 b 283 839 251 911 283 879 b 211 767 283 799 251 767 b 139 839 171 767 139 799 z "},"¢":{"ha":561,"x_min":0,"x_max":0,"o":"m 217 872 b 47 632 100 846 47 751 l 47 371 b 217 131 47 251 100 156 l 217 -14 l 257 -14 l 257 164 b 88 375 138 175 88 263 l 88 628 b 257 839 88 740 138 828 l 257 1017 l 217 1017 z m 386 371 b 282 251 382 299 349 251 b 179 386 213 251 179 306 l 179 617 b 282 751 179 697 213 751 b 386 617 353 751 386 697 l 386 571 l 426 571 l 426 622 b 282 790 426 714 388 790 b 139 622 176 790 139 714 l 139 381 b 282 213 139 289 176 213 b 426 371 383 213 424 283 z m 308 839 b 476 628 428 828 476 740 l 476 571 l 517 571 l 517 632 b 349 872 517 751 463 846 l 349 1017 l 308 1017 z m 308 -14 l 349 -14 l 349 131 b 517 371 461 157 517 251 l 476 371 b 308 164 475 263 428 175 z "},"•":{"ha":542,"x_min":0,"x_max":0,"o":"m 68 501 b 271 299 68 389 158 299 b 474 501 383 299 474 389 b 271 704 474 614 383 704 b 68 501 158 704 68 614 z m 271 665 b 433 501 361 665 433 593 b 271 338 433 410 361 338 b 108 501 181 338 108 410 b 271 665 108 593 181 665 z m 271 385 b 382 501 332 385 382 433 b 271 618 382 569 332 618 b 160 501 210 618 160 569 b 271 385 160 433 210 385 z "},"¶":{"ha":674,"x_min":0,"x_max":0,"o":"m 596 -21 l 596 1003 l 222 1003 b 49 821 99 1003 49 925 l 49 539 b 222 357 49 435 99 357 l 281 357 l 281 -21 l 321 -21 l 321 396 l 231 396 b 89 542 129 396 89 458 l 89 818 b 231 964 89 901 129 964 l 556 964 l 556 -21 z m 413 -21 l 413 482 l 250 482 b 181 550 196 482 181 510 l 181 810 b 250 878 181 850 196 878 l 464 878 l 464 -21 l 504 -21 l 504 917 l 242 917 b 140 814 167 917 140 872 l 140 546 b 242 443 140 488 167 443 l 372 443 l 372 -21 z "},"ß":{"ha":1197,"x_min":0,"x_max":0,"o":"m 504 238 b 296 18 504 119 451 18 b 88 238 140 18 88 119 l 88 268 l 47 268 l 47 233 b 296 -21 47 93 121 -21 b 544 233 471 -21 544 93 l 544 303 b 394 501 544 407 485 453 l 311 546 b 182 703 185 613 182 629 l 182 754 b 297 896 182 835 215 896 b 414 754 381 896 414 835 l 414 653 l 454 653 l 454 760 b 297 935 454 851 415 935 b 142 760 179 935 142 851 l 142 690 b 269 519 142 607 153 581 l 356 474 b 504 289 460 418 504 383 z m 413 249 b 296 107 413 168 379 107 b 178 249 211 107 178 168 l 178 268 l 138 268 l 138 243 b 296 68 138 151 176 68 b 453 243 415 68 453 151 l 453 271 b 307 440 453 351 428 374 l 217 489 b 90 675 117 543 90 576 l 90 765 b 297 985 90 883 143 985 b 504 765 451 985 504 883 l 504 653 l 544 653 l 544 769 b 297 1024 544 910 471 1024 b 50 769 124 1024 50 910 l 50 663 b 175 463 50 556 89 510 l 267 413 b 413 256 401 339 413 329 z m 1103 238 b 894 18 1103 119 1050 18 b 686 238 739 18 686 119 l 686 268 l 646 268 l 646 233 b 894 -21 646 93 719 -21 b 1143 233 1069 -21 1143 93 l 1143 303 b 993 501 1143 407 1083 453 l 910 546 b 781 703 783 613 781 629 l 781 754 b 896 896 781 835 814 896 b 1013 754 979 896 1013 835 l 1013 653 l 1053 653 l 1053 760 b 896 935 1053 851 1014 935 b 740 760 778 935 740 851 l 740 690 b 868 519 740 607 751 581 l 954 474 b 1103 289 1058 418 1103 383 z m 1011 249 b 894 107 1011 168 978 107 b 776 249 810 107 776 168 l 776 268 l 736 268 l 736 243 b 894 68 736 151 775 68 b 1051 243 1014 68 1051 151 l 1051 271 b 906 440 1051 351 1026 374 l 815 489 b 689 675 715 543 689 576 l 689 765 b 896 985 689 883 742 985 b 1103 765 1050 985 1103 883 l 1103 653 l 1143 653 l 1143 769 b 896 1024 1143 910 1069 1024 b 649 769 722 1024 649 910 l 649 663 b 774 463 649 556 688 510 l 865 413 b 1011 256 1000 339 1011 329 z "},"®":{"ha":722,"x_min":0,"x_max":0,"o":"m 361 399 b 61 699 196 399 61 533 b 361 999 61 863 196 999 b 661 699 526 999 661 863 b 361 399 661 533 526 399 z m 361 424 b 632 699 510 424 632 547 b 361 972 632 849 510 972 b 90 699 213 972 90 849 b 361 424 90 547 213 424 z m 506 533 l 506 600 b 460 674 506 631 497 660 b 506 751 496 690 506 721 l 506 771 b 408 864 506 824 478 864 l 233 864 l 233 533 l 258 533 l 258 839 l 399 839 b 481 769 454 839 481 814 l 481 751 b 418 674 481 715 467 690 b 481 597 476 654 481 626 l 481 533 z m 444 761 b 390 814 444 790 431 814 l 294 814 l 294 688 l 371 688 b 444 750 417 688 444 706 z m 444 533 l 444 592 b 376 663 444 621 435 663 l 294 663 l 294 533 l 319 533 l 319 638 l 371 638 b 419 588 414 638 419 617 l 419 533 z m 361 374 b 686 699 540 374 686 519 b 361 1024 686 876 540 1024 b 36 699 182 1024 36 876 b 361 374 36 519 182 374 z m 361 450 b 115 699 226 450 115 563 b 361 947 115 835 226 947 b 607 699 496 947 607 835 b 361 450 607 563 496 450 z m 419 750 b 371 713 419 719 401 713 l 319 713 l 319 789 l 382 789 b 419 757 408 789 419 781 z "},"©":{"ha":1111,"x_min":0,"x_max":0,"o":"m 556 -21 b 1078 501 843 -21 1078 214 b 556 1024 1078 789 843 1024 b 33 501 268 1024 33 789 b 556 -21 33 214 268 -21 z m 556 14 b 68 501 288 14 68 233 b 556 989 68 769 288 989 b 1043 501 824 989 1043 769 b 556 14 1043 233 824 14 z m 556 44 b 1007 501 804 44 1007 249 b 556 958 1007 754 804 958 b 104 501 307 958 104 754 b 556 44 104 249 307 44 z m 556 79 b 139 501 326 79 139 268 b 556 924 139 735 326 924 b 972 501 785 924 972 735 b 556 79 972 268 785 79 z m 754 426 l 754 418 b 556 206 754 292 696 206 b 357 418 415 206 357 292 l 357 585 b 556 797 357 711 415 797 b 754 585 696 797 754 711 l 754 571 l 789 571 l 789 588 b 556 832 789 731 718 832 b 322 588 393 832 322 731 l 322 415 b 556 171 322 272 393 171 b 789 415 718 171 789 272 l 789 426 z m 667 426 b 556 290 667 344 640 290 b 446 426 472 290 446 344 l 446 576 b 556 713 446 658 472 713 b 667 581 640 713 667 658 l 667 571 l 701 571 l 701 581 b 556 747 701 679 661 747 b 411 581 450 747 411 679 l 411 422 b 556 256 411 324 450 256 b 701 422 661 256 701 324 l 701 426 z "},"´":{"ha":393,"x_min":0,"x_max":0,"o":"m 161 1090 l 260 1243 l 219 1243 l 122 1090 z m 242 1090 l 371 1243 l 329 1243 l 201 1090 z "},"¨":{"ha":472,"x_min":0,"x_max":0,"o":"m 194 1090 l 194 1215 l 156 1215 l 156 1090 z m 108 1090 l 108 1215 l 69 1215 l 69 1090 z m 403 1090 l 403 1215 l 364 1215 l 364 1090 z m 317 1090 l 317 1215 l 278 1215 l 278 1090 z "},"Æ":{"ha":853,"x_min":0,"x_max":0,"o":"m 467 332 l 467 917 l 397 917 b 268 785 315 917 286 874 l 176 332 z m 426 371 l 222 371 l 304 779 b 401 878 321 860 351 878 l 426 878 z m 53 0 l 213 793 b 393 964 233 894 269 964 l 800 964 l 800 1003 l 389 1003 b 176 799 232 1003 199 908 l 15 0 z m 800 0 l 800 39 l 467 39 l 467 285 l 167 285 l 110 0 l 147 0 l 197 246 l 426 246 l 426 0 z m 779 476 l 779 515 l 558 515 l 558 878 l 800 878 l 800 917 l 518 917 l 518 476 z m 800 86 l 800 125 l 558 125 l 558 390 l 779 390 l 779 429 l 518 429 l 518 86 z "},"Ø":{"ha":631,"x_min":0,"x_max":0,"o":"m 410 911 b 315 938 381 931 347 938 b 156 760 196 938 156 851 l 156 243 b 199 111 156 194 167 143 z m 196 754 b 315 899 196 838 229 899 b 372 886 339 899 357 894 l 197 221 b 196 249 197 221 196 236 z m 124 -56 l 154 -56 l 183 54 b 107 238 121 100 107 175 l 107 765 b 315 985 107 883 160 985 b 424 963 344 985 378 983 l 449 1058 l 418 1058 l 406 1011 b 315 1024 379 1018 349 1024 b 67 769 140 1024 67 910 l 67 233 b 147 33 67 153 90 81 z m 507 1058 l 476 1058 l 447 949 b 524 765 510 903 524 828 l 524 238 b 315 18 524 119 471 18 b 207 40 286 18 253 19 l 182 -56 l 213 -56 l 225 -8 b 315 -21 251 -17 282 -21 b 564 233 490 -21 564 93 l 564 769 b 483 969 564 850 540 922 z m 221 92 b 315 65 250 72 283 65 b 475 243 435 65 475 151 l 475 760 b 432 892 475 808 464 860 z m 435 249 b 315 104 435 165 401 104 b 258 117 292 104 274 108 l 433 782 b 435 754 433 782 435 767 z "},"±":{"ha":728,"x_min":0,"x_max":0,"o":"m 53 39 l 53 0 l 675 0 l 675 39 z m 675 83 l 675 122 l 53 122 l 53 83 z m 385 503 l 385 214 l 425 214 l 425 464 l 675 464 l 675 503 z m 53 503 l 53 464 l 303 464 l 303 214 l 343 214 l 343 503 z m 343 547 l 343 836 l 303 836 l 303 586 l 53 586 l 53 547 z m 675 547 l 675 586 l 425 586 l 425 836 l 385 836 l 385 547 z "},"¥":{"ha":617,"x_min":0,"x_max":0,"o":"m 308 539 b 425 667 393 539 418 590 l 456 1003 l 415 1003 l 385 675 b 308 578 378 601 357 578 b 232 675 260 578 239 601 l 201 1003 l 161 1003 l 192 667 b 308 539 199 590 224 539 z m 564 356 l 564 394 l 374 394 l 374 451 b 513 649 476 476 504 567 l 546 1003 l 506 1003 l 474 657 b 333 486 467 576 438 499 l 333 356 z m 283 356 l 283 486 b 143 657 179 499 150 576 l 111 1003 l 71 1003 l 104 649 b 243 451 113 567 140 476 l 243 394 l 53 394 l 53 356 z m 564 169 l 564 208 l 374 208 l 374 276 l 564 276 l 564 315 l 333 315 l 333 169 z m 283 169 l 283 315 l 53 315 l 53 276 l 243 276 l 243 208 l 53 208 l 53 169 z m 53 129 l 53 90 l 243 90 l 243 0 l 283 0 l 283 129 z m 333 129 l 333 0 l 374 0 l 374 90 l 564 90 l 564 129 z "},"ª":{"ha":531,"x_min":0,"x_max":0,"o":"m 125 707 b 163 556 125 644 138 589 b 243 513 181 531 204 513 b 388 714 349 513 388 610 b 243 915 388 818 349 915 b 163 872 204 915 181 897 b 125 721 138 839 125 783 z m 356 714 b 253 546 356 618 322 546 b 189 576 224 546 203 557 b 160 710 167 606 160 654 l 160 718 b 189 851 160 774 167 822 b 253 882 203 871 224 882 b 356 714 322 882 356 810 z m 49 701 b 97 500 49 622 64 546 b 221 440 124 464 164 440 b 363 500 314 440 357 493 l 363 451 l 397 451 l 397 604 b 231 474 388 558 336 474 b 124 524 185 474 147 490 b 83 704 94 564 83 632 l 83 724 b 124 904 83 796 94 864 b 231 954 147 938 185 954 b 397 824 336 954 388 869 l 397 976 l 363 976 l 363 926 b 221 988 357 935 314 988 b 97 928 164 988 124 964 b 49 726 64 882 49 806 z m 464 451 l 464 978 l 429 978 l 429 451 z "},"º":{"ha":508,"x_min":0,"x_max":0,"o":"m 463 731 b 254 988 463 908 376 988 b 46 731 132 988 46 908 l 46 697 b 254 440 46 519 132 440 b 463 697 376 440 463 519 z m 156 714 b 254 882 156 839 194 882 b 353 714 314 882 353 839 b 254 546 353 589 314 546 b 156 714 194 546 156 589 z m 121 714 b 254 513 121 567 174 513 b 388 714 335 513 388 567 b 254 915 388 861 335 915 b 121 714 174 915 121 861 z m 428 703 b 254 474 428 542 357 474 b 81 703 151 474 81 542 l 81 725 b 254 954 81 886 149 954 b 428 725 357 954 428 886 z "},"æ":{"ha":999,"x_min":0,"x_max":0,"o":"m 504 881 b 689 985 544 963 615 985 b 897 765 844 985 897 883 l 897 429 l 532 429 l 532 243 b 689 68 532 151 569 68 b 847 243 808 68 847 151 l 847 268 l 807 268 l 807 249 b 689 107 807 168 774 107 b 572 249 606 107 572 168 l 572 390 l 938 390 l 938 769 b 689 1024 938 910 864 1024 b 506 950 601 1024 543 996 b 324 1024 469 996 410 1024 b 75 769 149 1024 75 910 l 75 0 l 115 0 l 115 765 b 324 985 115 883 168 985 b 504 881 397 985 468 961 z m 481 476 l 481 760 b 324 935 481 851 443 935 b 167 760 204 935 167 851 l 167 476 z m 846 476 l 846 760 b 689 935 846 851 808 935 b 532 760 569 935 532 851 l 532 476 z m 207 754 b 324 896 207 835 240 896 b 440 754 407 896 440 835 l 440 515 l 207 515 z m 572 754 b 689 896 572 835 606 896 b 806 754 772 896 806 835 l 806 515 l 572 515 z m 167 429 l 167 0 l 207 0 l 207 390 l 440 390 l 440 233 b 689 -21 440 93 514 -21 b 938 233 864 -21 938 93 l 938 268 l 897 268 l 897 238 b 689 18 897 119 844 18 b 481 238 533 18 481 119 l 481 429 z "},"ø":{"ha":631,"x_min":0,"x_max":0,"o":"m 410 911 b 315 938 381 931 347 938 b 156 760 196 938 156 851 l 156 243 b 199 111 156 194 167 143 z m 196 754 b 315 899 196 838 229 899 b 372 886 339 899 357 894 l 197 221 b 196 249 197 221 196 236 z m 124 -56 l 154 -56 l 183 54 b 107 238 121 100 107 175 l 107 765 b 315 985 107 883 160 985 b 424 963 344 985 378 983 l 449 1058 l 418 1058 l 406 1011 b 315 1024 379 1018 349 1024 b 67 769 140 1024 67 910 l 67 233 b 147 33 67 153 90 81 z m 507 1058 l 476 1058 l 447 949 b 524 765 510 903 524 828 l 524 238 b 315 18 524 119 471 18 b 207 40 286 18 253 19 l 182 -56 l 213 -56 l 225 -8 b 315 -21 251 -17 282 -21 b 564 233 490 -21 564 93 l 564 769 b 483 969 564 850 540 922 z m 221 92 b 315 65 250 72 283 65 b 475 243 435 65 475 151 l 475 760 b 432 892 475 808 464 860 z m 435 249 b 315 104 435 165 401 104 b 258 117 292 104 274 108 l 433 782 b 435 754 433 782 435 767 z "},"¿":{"ha":576,"x_min":0,"x_max":0,"o":"m 329 933 l 329 808 l 368 808 l 368 933 z m 419 933 l 419 808 l 458 808 l 458 933 z m 419 711 l 419 644 b 307 488 419 569 397 535 l 221 442 b 135 286 144 401 135 369 l 135 174 b 290 -1 135 82 172 -1 b 447 174 408 -1 447 82 l 447 281 l 407 281 l 407 179 b 290 38 407 99 374 38 b 175 179 208 38 175 99 l 175 274 b 263 415 175 347 185 374 l 346 460 b 458 631 424 501 458 557 l 458 711 z m 329 711 l 329 678 b 260 564 329 604 285 578 l 168 514 b 43 314 82 467 43 421 l 43 164 b 290 -90 43 24 117 -90 b 538 164 464 -90 538 24 l 538 281 l 497 281 l 497 168 b 290 -51 497 50 444 -51 b 83 168 136 -51 83 50 l 83 301 b 210 488 83 400 110 433 l 300 536 b 368 663 326 550 368 583 l 368 711 z "},"¡":{"ha":279,"x_min":0,"x_max":0,"o":"m 158 711 l 169 -69 l 210 -69 l 193 711 z m 86 711 l 69 -69 l 110 -69 l 121 711 z m 165 933 l 165 808 l 204 808 l 204 933 z m 75 933 l 75 808 l 114 808 l 114 933 z "},"«":{"ha":531,"x_min":0,"x_max":0,"o":"m 174 190 l 68 432 l 174 674 l 136 674 l 28 432 l 136 190 z m 260 190 l 157 432 l 260 674 l 222 674 l 117 432 l 222 190 z m 396 190 l 290 432 l 396 674 l 358 674 l 250 432 l 358 190 z m 482 190 l 379 432 l 482 674 l 444 674 l 339 432 l 444 190 z "},"»":{"ha":531,"x_min":0,"x_max":0,"o":"m 394 190 l 503 432 l 394 674 l 357 674 l 463 432 l 357 190 z m 308 190 l 414 432 l 308 674 l 271 674 l 374 432 l 271 190 z m 172 190 l 281 432 l 172 674 l 135 674 l 240 432 l 135 190 z m 86 190 l 192 432 l 86 674 l 49 674 l 151 432 l 49 190 z "},"…":{"ha":654,"x_min":0,"x_max":0,"o":"m 174 0 l 174 125 l 135 125 l 135 0 z m 83 0 l 83 125 l 44 125 l 44 0 z m 392 0 l 392 125 l 353 125 l 353 0 z m 301 0 l 301 125 l 263 125 l 263 0 z m 610 0 l 610 125 l 571 125 l 571 0 z m 519 0 l 519 125 l 481 125 l 481 0 z "},"À":{"ha":617,"x_min":0,"x_max":0,"o":""},"Ã":{"ha":617,"x_min":0,"x_max":0,"o":"m 485 0 l 457 285 l 160 285 l 132 0 l 172 0 l 196 246 l 421 246 l 444 0 z m 308 985 b 456 811 426 985 447 903 l 533 0 l 574 0 l 496 819 b 308 1024 486 915 463 1024 b 121 819 154 1024 131 915 l 43 0 l 83 0 l 161 811 b 308 985 169 903 190 985 z m 165 332 l 451 332 l 407 801 b 308 935 399 886 381 935 b 210 801 236 935 218 886 z m 249 804 b 308 896 256 878 271 896 b 368 804 346 896 361 878 l 408 371 l 208 371 z m 375 1076 b 503 1169 435 1076 481 1122 l 475 1186 b 375 1108 456 1144 424 1108 b 242 1150 328 1108 286 1150 b 165 1094 211 1150 182 1132 l 193 1076 b 242 1118 208 1108 222 1118 b 375 1076 285 1118 326 1076 z m 242 1219 b 114 1126 182 1219 136 1174 l 142 1110 b 242 1188 161 1151 193 1188 b 375 1146 289 1188 331 1146 b 451 1201 406 1146 435 1164 l 424 1219 b 375 1178 408 1188 394 1178 b 242 1219 332 1178 290 1219 z "},"Õ":{"ha":631,"x_min":0,"x_max":0,"o":""},"Œ":{"ha":857,"x_min":0,"x_max":0,"o":"m 315 68 b 472 243 435 68 472 151 l 472 760 b 315 935 472 851 435 935 b 158 760 196 935 158 851 l 158 243 b 315 68 158 151 196 68 z m 199 754 b 315 896 199 835 232 896 b 432 754 399 896 432 835 l 432 249 b 315 107 432 168 399 107 b 199 249 232 107 199 168 z m 308 -21 b 432 18 354 -21 406 -3 l 432 0 l 804 0 l 804 39 l 472 39 l 472 96 b 313 18 439 46 386 18 b 107 238 160 18 107 119 l 107 765 b 313 985 107 883 160 985 b 472 907 386 985 439 957 l 472 964 l 804 964 l 804 1003 l 432 1003 l 432 985 b 308 1024 406 1006 354 1024 b 67 769 140 1024 67 910 l 67 233 b 308 -21 67 93 140 -21 z m 783 476 l 783 515 l 564 515 l 564 878 l 804 878 l 804 917 l 524 917 l 524 476 z m 804 86 l 804 125 l 564 125 l 564 390 l 783 390 l 783 429 l 524 429 l 524 86 z "},"œ":{"ha":990,"x_min":0,"x_max":0,"o":"m 315 68 b 472 243 435 68 472 151 l 472 760 b 315 935 472 851 435 935 b 158 760 196 935 158 851 l 158 243 b 315 68 158 151 196 68 z m 199 754 b 315 896 199 835 232 896 b 432 754 399 896 432 835 l 432 249 b 315 107 432 168 399 107 b 199 249 232 107 199 168 z m 838 476 l 838 760 b 681 935 838 851 800 935 b 524 760 561 935 524 851 l 524 476 z m 564 754 b 681 896 564 835 597 896 b 797 754 764 896 797 835 l 797 515 l 564 515 z m 497 122 b 315 18 456 35 389 18 b 107 238 160 18 107 119 l 107 765 b 315 985 107 883 160 985 b 497 881 389 985 456 968 b 681 985 539 968 606 985 b 889 765 836 985 889 883 l 889 429 l 524 429 l 524 243 b 681 68 524 151 561 68 b 839 243 800 68 839 151 l 839 268 l 799 268 l 799 249 b 681 107 799 168 765 107 b 564 249 597 107 564 168 l 564 390 l 929 390 l 929 769 b 681 1024 929 910 856 1024 b 497 950 593 1024 535 996 b 315 1024 461 994 401 1024 b 67 769 140 1024 67 910 l 67 233 b 315 -21 67 93 140 -21 b 497 53 401 -21 461 7 b 681 -21 535 7 593 -21 b 929 233 856 -21 929 93 l 929 268 l 889 268 l 889 238 b 681 18 889 119 836 18 b 497 122 606 18 539 35 z "},"–":{"ha":613,"x_min":0,"x_max":0,"o":"m 556 389 l 556 429 l 57 429 l 57 389 z m 556 475 l 556 515 l 57 515 l 57 475 z "},"—":{"ha":951,"x_min":0,"x_max":0,"o":"m 894 389 l 894 429 l 57 429 l 57 389 z m 894 475 l 894 515 l 57 515 l 57 475 z "},"“":{"ha":450,"x_min":0,"x_max":0,"o":"m 353 711 l 419 1003 l 382 1003 l 313 711 z m 267 711 l 351 1003 l 314 1003 l 226 711 z m 163 711 l 229 1003 l 192 1003 l 122 711 z m 76 711 l 161 1003 l 124 1003 l 36 711 z "},"”":{"ha":447,"x_min":0,"x_max":0,"o":"m 76 711 l 146 1003 l 106 1003 l 39 711 z m 144 711 l 232 1003 l 192 1003 l 107 711 z m 267 711 l 336 1003 l 296 1003 l 229 711 z m 335 711 l 422 1003 l 382 1003 l 297 711 z "},"‘":{"ha":260,"x_min":0,"x_max":0,"o":"m 192 1003 l 122 711 l 163 711 l 229 1003 z m 124 1003 l 36 711 l 76 711 l 161 1003 z "},"’":{"ha":257,"x_min":0,"x_max":0,"o":"m 76 711 l 146 1003 l 106 1003 l 39 711 z m 144 711 l 232 1003 l 192 1003 l 107 711 z "},"÷":{"ha":706,"x_min":0,"x_max":0,"o":"m 378 165 l 418 165 l 418 290 l 378 290 z m 328 290 l 288 290 l 288 165 l 328 165 z m 378 617 l 418 617 l 418 742 l 378 742 z m 328 742 l 288 742 l 288 617 l 328 617 z m 42 432 l 42 393 l 664 393 l 664 432 z m 664 476 l 664 515 l 42 515 l 42 476 z "},"ÿ":{"ha":642,"x_min":0,"x_max":0,"o":""},"Ÿ":{"ha":575,"x_min":0,"x_max":0,"o":"m 261 457 b 124 629 153 464 131 549 l 89 1003 l 49 1003 l 85 621 b 221 424 93 539 118 449 l 221 0 l 261 0 z m 313 0 l 353 0 l 353 424 b 490 621 457 449 482 539 l 526 1003 l 486 1003 l 451 629 b 313 457 444 549 422 464 z m 288 550 b 213 647 238 550 219 574 l 179 1003 l 143 1003 l 178 640 b 288 511 185 564 213 511 b 397 640 363 511 390 564 l 432 1003 l 396 1003 l 363 647 b 288 550 356 574 338 550 z m 246 1090 l 246 1215 l 207 1215 l 207 1090 z m 160 1090 l 160 1215 l 121 1215 l 121 1090 z m 454 1090 l 454 1215 l 415 1215 l 415 1090 z m 368 1090 l 368 1215 l 329 1215 l 329 1090 z "},"⁄":{"ha":594,"x_min":0,"x_max":0,"o":"m 122 0 l 592 1003 l 551 1003 l 82 0 z m 43 0 l 514 1003 l 474 1003 l 3 0 z "},"¤":{"ha":736,"x_min":0,"x_max":0,"o":"m 150 496 b 368 275 150 371 246 275 b 586 496 490 275 586 371 b 368 717 586 621 490 717 b 150 496 246 717 150 621 z m 368 678 b 546 496 465 678 546 596 b 368 314 546 396 465 314 b 190 496 271 314 190 396 b 368 678 190 596 271 678 z m 649 108 l 682 131 l 582 269 b 681 496 643 326 681 407 b 582 722 681 585 643 665 l 682 861 l 649 883 l 529 718 b 640 496 607 667 640 576 b 529 274 640 415 607 325 z m 207 274 b 96 496 129 325 96 415 b 207 718 96 576 129 667 l 88 883 l 54 861 l 154 722 b 56 496 93 665 56 585 b 154 269 56 407 93 326 l 54 131 l 88 108 z m 129 79 l 163 57 l 260 203 b 368 183 293 190 331 183 b 476 203 406 183 443 190 l 574 57 l 607 79 l 492 251 b 368 222 457 232 408 222 b 244 251 328 222 279 232 z m 607 913 l 574 935 l 476 789 b 368 808 443 801 406 808 b 260 789 331 808 293 801 l 163 935 l 129 913 l 244 740 b 368 769 279 760 328 769 b 492 740 408 769 457 760 z "},"‹":{"ha":308,"x_min":0,"x_max":0,"o":"m 174 190 l 68 432 l 174 674 l 136 674 l 28 432 l 136 190 z m 260 190 l 157 432 l 260 674 l 222 674 l 117 432 l 222 190 z "},"›":{"ha":308,"x_min":0,"x_max":0,"o":"m 172 190 l 281 432 l 172 674 l 135 674 l 240 432 l 135 190 z m 86 190 l 192 432 l 86 674 l 49 674 l 151 432 l 49 190 z "},"ﬁ":{"ha":896,"x_min":0,"x_max":0,"o":"m 115 0 l 115 765 b 324 985 115 883 168 985 b 532 765 479 985 532 883 l 532 653 l 572 653 l 572 769 b 324 1024 572 910 499 1024 b 75 769 149 1024 75 910 l 75 0 z m 518 476 l 518 515 l 207 515 l 207 754 b 324 896 207 835 240 896 b 442 754 408 896 442 835 l 442 653 l 482 653 l 482 760 b 324 935 482 851 443 935 b 167 760 204 935 167 851 l 167 476 z m 167 429 l 167 0 l 207 0 l 207 390 l 518 390 l 518 429 z m 818 0 l 818 1003 l 778 1003 l 778 0 z m 726 0 l 726 1003 l 686 1003 l 686 0 z "},"ﬂ":{"ha":1050,"x_min":0,"x_max":0,"o":"m 115 0 l 115 765 b 324 985 115 883 168 985 b 532 765 479 985 532 883 l 532 653 l 572 653 l 572 769 b 324 1024 572 910 499 1024 b 75 769 149 1024 75 910 l 75 0 z m 518 476 l 518 515 l 207 515 l 207 754 b 324 896 207 835 240 896 b 442 754 408 896 442 835 l 442 653 l 482 653 l 482 760 b 324 935 482 851 443 935 b 167 760 204 935 167 851 l 167 476 z m 167 429 l 167 0 l 207 0 l 207 390 l 518 390 l 518 429 z m 1031 0 l 1031 39 l 726 39 l 726 1003 l 686 1003 l 686 0 z m 1031 86 l 1031 125 l 818 125 l 818 1003 l 778 1003 l 778 86 z "},"‡":{"ha":646,"x_min":0,"x_max":0,"o":"m 297 397 l 297 665 l 47 665 l 47 626 l 257 626 l 257 436 l 47 436 l 47 397 z m 599 397 l 599 436 l 389 436 l 389 626 l 599 626 l 599 665 l 349 665 l 349 397 z m 349 350 l 349 -14 l 389 -14 l 389 311 l 599 311 l 599 350 z m 47 350 l 47 311 l 257 311 l 257 -14 l 297 -14 l 297 350 z m 599 713 l 599 751 l 389 751 l 389 1017 l 349 1017 l 349 713 z m 297 713 l 297 1017 l 257 1017 l 257 751 l 47 751 l 47 713 z "},"·":{"ha":243,"x_min":0,"x_max":0,"o":"m 186 439 l 186 564 l 147 564 l 147 439 z m 96 439 l 96 564 l 57 564 l 57 439 z "},"‚":{"ha":231,"x_min":0,"x_max":0,"o":"m 39 -146 l 108 146 l 68 146 l 1 -146 z m 107 -146 l 194 146 l 154 146 l 69 -146 z "},"„":{"ha":421,"x_min":0,"x_max":0,"o":"m 39 -146 l 108 146 l 68 146 l 1 -146 z m 107 -146 l 194 146 l 154 146 l 69 -146 z m 229 -146 l 299 146 l 258 146 l 192 -146 z m 297 -146 l 385 146 l 344 146 l 260 -146 z "},"‰":{"ha":1188,"x_min":0,"x_max":0,"o":"m 197 989 b 321 847 286 989 321 936 l 321 700 b 197 558 321 611 286 558 b 74 700 108 558 74 611 l 74 847 b 197 989 74 936 108 989 z m 110 707 b 197 592 110 640 129 592 b 285 707 265 592 285 640 l 285 840 b 197 956 285 907 265 956 b 110 840 129 956 110 907 z m 38 693 b 197 524 38 589 88 524 b 357 693 307 524 357 589 l 357 854 b 197 1024 357 958 307 1024 b 38 854 88 1024 38 958 z m 197 921 b 249 832 243 921 249 882 l 249 715 b 197 626 249 665 243 626 b 146 715 151 626 146 665 l 146 832 b 197 921 146 882 151 921 z m 232 0 l 701 1003 l 661 1003 l 192 0 z m 153 0 l 624 1003 l 583 1003 l 113 0 z m 617 444 b 740 303 706 444 740 392 l 740 156 b 617 14 740 67 706 14 b 493 156 528 14 493 67 l 493 303 b 617 444 493 392 528 444 z m 529 163 b 617 47 529 96 549 47 b 704 163 685 47 704 96 l 704 296 b 617 411 704 363 685 411 b 529 296 549 411 529 363 z m 457 149 b 617 -21 457 44 507 -21 b 776 149 726 -21 776 44 l 776 310 b 617 479 776 414 726 479 b 457 310 507 479 457 414 z m 617 376 b 668 288 663 376 668 338 l 668 171 b 617 82 668 121 663 82 b 565 171 571 82 565 121 l 565 288 b 617 376 565 338 571 376 z m 990 444 b 1114 303 1079 444 1114 392 l 1114 156 b 990 14 1114 67 1079 14 b 867 156 901 14 867 67 l 867 303 b 990 444 867 392 901 444 z m 903 163 b 990 47 903 96 922 47 b 1078 163 1058 47 1078 96 l 1078 296 b 990 411 1078 363 1058 411 b 903 296 922 411 903 363 z m 831 149 b 990 -21 831 44 881 -21 b 1150 149 1100 -21 1150 44 l 1150 310 b 990 479 1150 414 1100 479 b 831 310 881 479 831 414 z m 990 376 b 1042 288 1036 376 1042 338 l 1042 171 b 990 82 1042 121 1036 82 b 939 171 944 82 939 121 l 939 288 b 990 376 939 338 944 376 z "},"Â":{"ha":617,"x_min":0,"x_max":0,"o":""},"Ê":{"ha":503,"x_min":0,"x_max":0,"o":"m 450 0 l 450 39 l 118 39 l 118 964 l 450 964 l 450 1003 l 78 1003 l 78 0 z m 429 476 l 429 515 l 210 515 l 210 878 l 450 878 l 450 917 l 169 917 l 169 476 z m 450 86 l 450 125 l 210 125 l 210 390 l 429 390 l 429 429 l 169 429 l 169 86 z m 443 1090 l 332 1243 l 196 1243 l 85 1090 l 125 1090 l 217 1217 l 311 1217 l 403 1090 z m 364 1090 l 296 1183 l 232 1183 l 164 1090 l 204 1090 l 264 1175 l 324 1090 z "},"Á":{"ha":617,"x_min":0,"x_max":0,"o":""},"Ë":{"ha":503,"x_min":0,"x_max":0,"o":""},"È":{"ha":503,"x_min":0,"x_max":0,"o":"m 450 0 l 450 39 l 118 39 l 118 964 l 450 964 l 450 1003 l 78 1003 l 78 0 z m 429 476 l 429 515 l 210 515 l 210 878 l 450 878 l 450 917 l 169 917 l 169 476 z m 450 86 l 450 125 l 210 125 l 210 390 l 429 390 l 429 429 l 169 429 l 169 86 z m 324 1090 l 226 1243 l 186 1243 l 285 1090 z m 244 1090 l 117 1243 l 75 1243 l 204 1090 z "},"Í":{"ha":507,"x_min":0,"x_max":0,"o":""},"Î":{"ha":288,"x_min":0,"x_max":0,"o":"m 210 0 l 210 1003 l 169 1003 l 169 0 z m 118 0 l 118 1003 l 78 1003 l 78 0 z m 322 1090 l 211 1243 l 75 1243 l -36 1090 l 4 1090 l 96 1217 l 190 1217 l 282 1090 z m 243 1090 l 175 1183 l 111 1183 l 43 1090 l 83 1090 l 143 1175 l 203 1090 z "},"Ï":{"ha":453,"x_min":0,"x_max":0,"o":""},"Ì":{"ha":288,"x_min":0,"x_max":0,"o":"m 210 0 l 210 1003 l 169 1003 l 169 0 z m 118 0 l 118 1003 l 78 1003 l 78 0 z m 204 1090 l 107 1243 l 67 1243 l 165 1090 z m 125 1090 l -3 1243 l -44 1243 l 85 1090 z "},"Ó":{"ha":631,"x_min":0,"x_max":0,"o":""},"Ô":{"ha":631,"x_min":0,"x_max":0,"o":"m 315 -21 b 564 233 490 -21 564 93 l 564 769 b 315 1024 564 910 490 1024 b 67 769 140 1024 67 910 l 67 233 b 315 -21 67 93 140 -21 z m 107 765 b 315 985 107 883 160 985 b 524 765 471 985 524 883 l 524 238 b 315 18 524 119 471 18 b 107 238 160 18 107 119 z m 315 68 b 472 243 435 68 472 151 l 472 760 b 315 935 472 851 435 935 b 158 760 196 935 158 851 l 158 243 b 315 68 158 151 196 68 z m 199 754 b 315 896 199 835 232 896 b 432 754 399 896 432 835 l 432 249 b 315 107 432 168 399 107 b 199 249 232 107 199 168 z m 494 1090 l 383 1243 l 247 1243 l 136 1090 l 176 1090 l 268 1217 l 363 1217 l 454 1090 z m 415 1090 l 347 1183 l 283 1183 l 215 1090 l 256 1090 l 315 1175 l 375 1090 z "},"":{"ha":1179,"x_min":0,"x_max":0,"o":"m 706 0 l 821 578 l 589 804 l 358 578 l 474 0 z m 417 0 l 358 289 l 167 383 l 69 197 l 219 0 z m 961 0 l 1110 197 l 1011 383 l 821 289 l 764 0 z "},"Ò":{"ha":631,"x_min":0,"x_max":0,"o":""},"Ú":{"ha":647,"x_min":0,"x_max":0,"o":""},"Û":{"ha":647,"x_min":0,"x_max":0,"o":"m 324 -21 b 572 233 499 -21 572 93 l 572 1003 l 532 1003 l 532 238 b 324 18 532 119 479 18 b 115 238 168 18 115 119 l 115 1003 l 75 1003 l 75 233 b 324 -21 75 93 149 -21 z m 324 68 b 481 243 443 68 481 151 l 481 1003 l 440 1003 l 440 249 b 324 107 440 168 407 107 b 207 249 240 107 207 168 l 207 1003 l 167 1003 l 167 243 b 324 68 167 151 204 68 z m 503 1090 l 392 1243 l 256 1243 l 144 1090 l 185 1090 l 276 1217 l 371 1217 l 463 1090 z m 424 1090 l 356 1183 l 292 1183 l 224 1090 l 264 1090 l 324 1175 l 383 1090 z "},"Ù":{"ha":647,"x_min":0,"x_max":0,"o":""},"ı":{"ha":288,"x_min":0,"x_max":0,"o":"m 210 0 l 210 1003 l 169 1003 l 169 0 z m 118 0 l 118 1003 l 78 1003 l 78 0 z "},"ˆ":{"ha":497,"x_min":0,"x_max":0,"o":"m 428 1090 l 317 1243 l 181 1243 l 69 1090 l 110 1090 l 201 1217 l 296 1217 l 388 1090 z m 349 1090 l 281 1183 l 217 1183 l 149 1090 l 189 1090 l 249 1175 l 308 1090 z "},"˜":{"ha":528,"x_min":0,"x_max":0,"o":"m 331 1076 b 458 1169 390 1076 436 1122 l 431 1186 b 331 1108 411 1144 379 1108 b 197 1150 283 1108 242 1150 b 121 1094 167 1150 138 1132 l 149 1076 b 197 1118 164 1108 178 1118 b 331 1076 240 1118 282 1076 z m 197 1219 b 69 1126 138 1219 92 1174 l 97 1110 b 197 1188 117 1151 149 1188 b 331 1146 244 1188 286 1146 b 407 1201 361 1146 390 1164 l 379 1219 b 331 1178 364 1188 350 1178 b 197 1219 288 1178 246 1219 z "},"¯":{"ha":501,"x_min":0,"x_max":0,"o":"m 432 1175 l 432 1213 l 69 1213 l 69 1175 z m 432 1097 l 432 1135 l 69 1135 l 69 1097 z "},"˚":{"ha":414,"x_min":0,"x_max":0,"o":"m 69 1179 b 207 1042 69 1103 131 1042 b 344 1179 283 1042 344 1103 b 207 1317 344 1256 283 1317 b 69 1179 131 1317 69 1256 z m 314 1179 b 207 1069 314 1119 268 1069 b 100 1179 146 1069 100 1119 b 207 1289 100 1239 146 1289 b 314 1179 268 1289 314 1239 z m 128 1179 b 207 1100 128 1136 164 1100 b 286 1179 250 1100 286 1136 b 207 1258 286 1222 250 1258 b 128 1179 164 1258 128 1222 z m 207 1231 b 256 1179 233 1231 256 1207 b 207 1128 256 1151 233 1128 b 158 1179 181 1128 158 1151 b 207 1231 158 1207 181 1231 z "},"¸":{"ha":450,"x_min":0,"x_max":0,"o":"m 264 -322 b 381 -182 333 -322 381 -286 b 264 -56 381 -71 333 -56 l 256 -56 l 256 0 l 231 0 l 231 -81 l 257 -81 b 353 -185 322 -81 353 -93 b 257 -297 353 -269 319 -297 l 217 -297 b 107 -196 128 -297 107 -250 l 107 -189 l 83 -189 l 83 -196 b 221 -322 83 -264 110 -322 z m 249 -264 b 319 -193 299 -264 319 -239 l 319 -183 b 250 -114 319 -132 301 -114 l 199 -114 l 199 0 l 174 0 l 174 -139 l 244 -139 b 292 -186 286 -139 292 -158 l 292 -194 b 243 -239 292 -219 283 -239 l 207 -239 b 158 -194 167 -239 158 -219 l 158 -189 l 135 -189 l 135 -194 b 211 -264 135 -233 150 -264 z "},"ˇ":{"ha":497,"x_min":0,"x_max":0,"o":"m 388 1243 l 296 1117 l 201 1117 l 110 1243 l 69 1243 l 181 1090 l 317 1090 l 428 1243 z m 308 1243 l 249 1158 l 189 1243 l 149 1243 l 217 1150 l 281 1150 l 349 1243 z "},"Ð":{"ha":671,"x_min":0,"x_max":0,"o":"m 167 476 l 167 964 l 417 964 b 558 818 518 964 558 901 l 558 185 b 417 39 558 101 518 39 l 167 39 l 167 429 l 29 429 l 29 390 l 126 390 l 126 0 l 425 0 b 599 182 549 0 599 78 l 599 821 b 425 1003 599 925 549 1003 l 126 1003 l 126 515 l 29 515 l 29 476 z m 376 476 l 376 515 l 258 515 l 258 878 l 397 878 b 467 810 451 878 467 850 l 467 193 b 397 125 467 153 451 125 l 258 125 l 258 390 l 376 390 l 376 429 l 218 429 l 218 86 l 406 86 b 507 189 481 86 507 131 l 507 814 b 406 917 507 872 481 917 l 218 917 l 218 476 z "},"€":{"ha":644,"x_min":0,"x_max":0,"o":"m 167 601 l 167 772 b 361 985 167 890 219 985 b 556 772 503 985 556 890 l 556 707 l 596 707 l 596 776 b 361 1024 596 917 522 1024 b 126 776 200 1024 126 917 l 126 640 l 40 640 l 40 601 z m 40 358 l 40 319 l 126 319 l 126 226 b 361 -21 126 86 200 -21 b 596 226 522 -21 596 86 l 596 254 l 556 254 l 556 231 b 361 18 556 113 503 18 b 167 231 219 18 167 113 l 167 358 z m 218 601 l 519 601 l 519 640 l 258 640 l 258 761 b 361 896 258 842 292 896 b 465 761 432 896 465 842 l 465 707 l 506 707 l 506 767 b 361 935 506 858 467 935 b 218 767 256 935 218 858 z m 218 358 l 218 236 b 361 68 218 144 256 68 b 506 236 467 68 506 144 l 506 254 l 465 254 l 465 242 b 361 107 465 161 432 107 b 258 242 292 107 258 161 l 258 319 l 519 319 l 519 358 z m 218 399 l 519 399 l 519 438 l 258 438 l 258 522 l 519 522 l 519 561 l 218 561 z m 167 561 l 40 561 l 40 522 l 126 522 l 126 438 l 40 438 l 40 399 l 167 399 z "}," ":{"ha":225,"x_min":0,"x_max":0,"o":""},"\u0000":{"ha":0,"x_min":0,"x_max":0,"o":""},"\r":{"ha":225,"x_min":0,"x_max":0,"o":""},"₤":{"ha":690,"x_min":0,"x_max":0,"o":"m 197 536 l 197 772 b 399 985 197 890 258 985 b 600 772 539 985 600 890 l 600 681 l 640 681 l 640 776 b 399 1024 640 917 567 1024 b 157 776 231 1024 157 917 l 157 575 l 50 575 l 50 536 z m 289 575 l 289 761 b 399 896 289 842 322 896 b 510 761 476 896 510 842 l 510 681 l 550 681 l 550 767 b 399 935 550 858 503 935 b 249 767 294 935 249 858 l 249 536 l 560 536 l 560 575 z m 560 335 l 560 374 l 289 374 l 289 457 l 560 457 l 560 496 l 249 496 l 249 335 z m 249 294 l 249 86 l 640 86 l 640 125 l 289 125 l 289 256 l 560 256 l 560 294 z m 640 0 l 640 39 l 50 39 l 50 0 z m 197 335 l 197 496 l 50 496 l 50 457 l 157 457 l 157 374 l 50 374 l 50 335 z m 50 294 l 50 256 l 157 256 l 157 125 l 50 125 l 50 86 l 197 86 l 197 294 z "},"‥":{"ha":436,"x_min":0,"x_max":0,"o":"m 174 0 l 174 125 l 135 125 l 135 0 z m 83 0 l 83 125 l 44 125 l 44 0 z m 392 0 l 392 125 l 353 125 l 353 0 z m 301 0 l 301 125 l 263 125 l 263 0 z "},"ȷ":{"ha":383,"x_min":0,"x_max":0,"o":"m 25 -7 l 60 -7 b 308 247 235 -7 308 93 l 308 1003 l 268 1003 l 268 251 b 60 32 268 119 215 32 l 25 32 z m 25 79 l 60 79 b 217 257 179 79 217 151 l 217 1003 l 176 1003 l 176 263 b 60 118 176 168 143 118 l 25 118 z "},"ĳ":{"ha":671,"x_min":0,"x_max":0,"o":"m 210 0 l 210 1003 l 169 1003 l 169 0 z m 118 0 l 118 1003 l 78 1003 l 78 0 z m 313 -7 l 347 -7 b 596 247 522 -7 596 93 l 596 1003 l 556 1003 l 556 251 b 347 32 556 119 503 32 l 313 32 z m 313 79 l 347 79 b 504 257 467 79 504 151 l 504 1003 l 464 1003 l 464 263 b 347 118 464 168 431 118 l 313 118 z "},"­":{"ha":432,"x_min":0,"x_max":0,"o":"m 375 389 l 375 429 l 57 429 l 57 389 z m 375 475 l 375 515 l 57 515 l 57 475 z "},"ĸ":{"ha":618,"x_min":0,"x_max":0,"o":"m 458 0 l 458 272 b 303 431 458 343 424 431 l 169 431 l 169 0 l 210 0 l 210 390 l 300 390 b 418 268 385 390 418 339 l 418 0 z m 118 0 l 118 1003 l 78 1003 l 78 0 z m 418 1003 l 418 638 b 300 515 418 565 385 515 l 210 515 l 210 1003 l 169 1003 l 169 475 l 303 475 b 458 633 424 475 458 563 l 458 1003 z m 457 453 b 550 626 524 472 550 551 l 550 1003 l 510 1003 l 510 629 b 389 453 510 556 489 482 b 510 276 489 424 510 350 l 510 0 l 550 0 l 550 279 b 457 453 550 353 524 433 z "},"˙":{"ha":271,"x_min":0,"x_max":0,"o":"m 201 1090 l 201 1215 l 161 1215 l 161 1090 z m 110 1090 l 110 1215 l 69 1215 l 69 1090 z "},"İ":{"ha":554,"x_min":0,"x_max":0,"o":""},"Ẅ":{"ha":986,"x_min":0,"x_max":0,"o":""},"ḟ":{"ha":607,"x_min":0,"x_max":0,"o":""},"ė":{"ha":625,"x_min":0,"x_max":0,"o":"m 158 429 l 158 243 b 315 68 158 151 196 68 b 474 243 435 68 474 151 l 474 268 l 433 268 l 433 249 b 315 107 433 168 400 107 b 199 249 232 107 199 168 l 199 390 l 564 390 l 564 769 b 315 1024 564 910 490 1024 b 67 769 140 1024 67 910 l 67 233 b 315 -21 67 93 140 -21 b 564 233 490 -21 564 93 l 564 268 l 524 268 l 524 238 b 315 18 524 119 471 18 b 107 238 160 18 107 119 l 107 765 b 315 985 107 883 160 985 b 524 765 471 985 524 883 l 524 429 z m 472 476 l 472 760 b 315 935 472 851 435 935 b 158 760 196 935 158 851 l 158 476 z m 199 754 b 315 896 199 835 232 896 b 432 754 399 896 432 835 l 432 515 l 199 515 z m 382 1090 l 382 1215 l 342 1215 l 342 1090 z m 290 1090 l 290 1215 l 250 1215 l 250 1090 z "},"Ṫ":{"ha":493,"x_min":0,"x_max":0,"o":""},"ġ":{"ha":625,"x_min":0,"x_max":0,"o":"m 107 765 b 315 985 107 883 160 985 b 524 765 471 985 524 883 l 524 653 l 564 653 l 564 769 b 315 1024 564 910 490 1024 b 67 769 140 1024 67 910 l 67 233 b 315 -21 67 93 140 -21 b 564 233 490 -21 564 93 l 564 515 l 268 515 l 268 476 l 524 476 l 524 238 b 315 18 524 119 471 18 b 107 238 160 18 107 119 z m 158 243 b 315 68 158 151 196 68 b 474 243 435 68 474 151 l 474 429 l 268 429 l 268 390 l 433 390 l 433 249 b 315 107 433 168 399 107 b 199 249 232 107 199 168 l 199 754 b 315 896 199 835 232 896 b 433 754 400 896 433 835 l 433 653 l 474 653 l 474 760 b 315 935 474 851 435 935 b 158 760 196 935 158 851 z m 382 1090 l 382 1215 l 342 1215 l 342 1090 z m 290 1090 l 290 1215 l 250 1215 l 250 1090 z "},"Ġ":{"ha":625,"x_min":0,"x_max":0,"o":"m 107 765 b 315 985 107 883 160 985 b 524 765 471 985 524 883 l 524 653 l 564 653 l 564 769 b 315 1024 564 910 490 1024 b 67 769 140 1024 67 910 l 67 233 b 315 -21 67 93 140 -21 b 564 233 490 -21 564 93 l 564 515 l 268 515 l 268 476 l 524 476 l 524 238 b 315 18 524 119 471 18 b 107 238 160 18 107 119 z m 158 243 b 315 68 158 151 196 68 b 474 243 435 68 474 151 l 474 429 l 268 429 l 268 390 l 433 390 l 433 249 b 315 107 433 168 399 107 b 199 249 232 107 199 168 l 199 754 b 315 896 199 835 232 896 b 433 754 400 896 433 835 l 433 653 l 474 653 l 474 760 b 315 935 474 851 435 935 b 158 760 196 935 158 851 z m 382 1090 l 382 1215 l 342 1215 l 342 1090 z m 290 1090 l 290 1215 l 250 1215 l 250 1090 z "},"Ċ":{"ha":606,"x_min":0,"x_max":0,"o":""},"ċ":{"ha":606,"x_min":0,"x_max":0,"o":"m 107 765 b 315 985 107 883 160 985 b 524 765 471 985 524 883 l 524 653 l 564 653 l 564 769 b 315 1024 564 910 490 1024 b 67 769 140 1024 67 910 l 67 233 b 315 -21 67 93 140 -21 b 564 233 490 -21 564 93 l 564 268 l 524 268 l 524 238 b 315 18 524 119 471 18 b 107 238 160 18 107 119 z m 158 243 b 315 68 158 151 196 68 b 474 243 435 68 474 151 l 474 268 l 433 268 l 433 249 b 315 107 433 168 400 107 b 199 249 232 107 199 168 l 199 754 b 315 896 199 835 232 896 b 433 754 400 896 433 835 l 433 653 l 474 653 l 474 760 b 315 935 474 851 435 935 b 158 760 196 935 158 851 z m 382 1090 l 382 1215 l 342 1215 l 342 1090 z m 290 1090 l 290 1215 l 250 1215 l 250 1090 z "},"Ṁ":{"ha":986,"x_min":0,"x_max":0,"o":"m 468 0 l 468 758 b 317 935 468 858 422 935 b 167 758 211 935 167 858 l 167 0 l 207 0 l 207 754 b 317 896 207 835 240 896 b 428 754 393 896 428 835 l 428 0 z m 558 0 l 558 754 b 669 896 558 835 593 896 b 779 754 746 896 779 835 l 779 0 l 819 0 l 819 758 b 669 935 819 858 775 935 b 518 758 564 935 518 858 l 518 0 z m 493 949 b 317 1024 454 993 397 1024 b 75 769 149 1024 75 910 l 75 0 l 115 0 l 115 764 b 317 985 115 888 176 985 b 493 871 385 985 450 964 b 669 985 536 964 601 985 b 871 764 810 985 871 888 l 871 0 l 911 0 l 911 769 b 669 1024 911 910 838 1024 b 493 949 589 1024 532 993 z m 560 1090 l 560 1215 l 519 1215 l 519 1090 z m 468 1090 l 468 1215 l 428 1215 l 428 1090 z "},"ŋ":{"ha":650,"x_min":0,"x_max":0,"o":"m 292 -192 l 326 -192 b 483 -14 446 -192 483 -119 l 483 728 b 453 885 483 794 476 847 b 357 938 431 921 403 938 b 169 661 210 938 169 794 l 169 0 l 210 0 l 210 667 b 350 899 210 789 243 899 b 422 861 383 899 407 888 b 443 724 442 828 443 781 l 443 -8 b 326 -153 443 -103 410 -153 l 292 -153 z m 292 -278 l 326 -278 b 575 -24 501 -278 575 -178 l 575 738 b 531 944 575 828 564 894 b 376 1024 500 990 451 1024 b 203 936 275 1024 219 963 l 203 1003 l 169 1003 l 169 831 b 368 985 174 844 218 985 b 497 921 429 985 469 964 b 535 733 526 875 535 813 l 535 -19 b 326 -239 535 -151 482 -239 l 292 -239 z m 118 0 l 118 1003 l 78 1003 l 78 0 z "},"Ŋ":{"ha":647,"x_min":0,"x_max":0,"o":"m 289 -279 l 324 -279 b 572 -25 499 -279 572 -179 l 572 769 b 324 1024 572 910 499 1024 b 75 769 149 1024 75 910 l 75 0 l 115 0 l 115 765 b 324 985 115 883 168 985 b 532 765 479 985 532 883 l 532 -21 b 324 -240 532 -153 479 -240 l 289 -240 z m 289 -193 l 324 -193 b 481 -15 443 -193 481 -121 l 481 760 b 324 935 481 851 443 935 b 167 760 204 935 167 851 l 167 0 l 207 0 l 207 754 b 324 896 207 835 240 896 b 440 754 407 896 440 835 l 440 -10 b 324 -154 440 -104 407 -154 l 289 -154 z "},"ḣ":{"ha":656,"x_min":0,"x_max":0,"o":""},"Ḣ":{"ha":656,"x_min":0,"x_max":0,"o":"m 486 476 l 486 1003 l 446 1003 l 446 515 l 210 515 l 210 1003 l 169 1003 l 169 476 z m 486 0 l 486 429 l 169 429 l 169 0 l 210 0 l 210 390 l 446 390 l 446 0 z m 578 0 l 578 1003 l 538 1003 l 538 0 z m 118 0 l 118 1003 l 78 1003 l 78 0 z m 393 1090 l 393 1215 l 353 1215 l 353 1090 z m 301 1090 l 301 1215 l 261 1215 l 261 1090 z "},"Ḟ":{"ha":486,"x_min":0,"x_max":0,"o":""},"ṫ":{"ha":597,"x_min":0,"x_max":0,"o":"m 115 1003 l 115 238 b 324 18 115 119 168 18 b 532 238 479 18 532 119 l 532 268 l 572 268 l 572 233 b 324 -21 572 93 499 -21 b 75 233 149 -21 75 93 l 75 1003 z m 556 632 l 556 593 l 207 593 l 207 249 b 324 107 207 168 240 107 b 442 249 408 107 442 168 l 442 268 l 482 268 l 482 243 b 324 68 482 151 443 68 b 167 243 204 68 167 151 l 167 632 z m 167 679 l 167 1003 l 207 1003 l 207 718 l 556 718 l 556 679 z m 418 1090 l 418 1215 l 378 1215 l 378 1090 z m 326 1090 l 326 1215 l 286 1215 l 286 1090 z "},"ŀ":{"ha":494,"x_min":0,"x_max":0,"o":"m 422 0 l 422 39 l 118 39 l 118 1003 l 78 1003 l 78 0 z m 422 86 l 422 125 l 210 125 l 210 1003 l 169 1003 l 169 86 z m 449 439 l 449 564 l 410 564 l 410 439 z m 358 439 l 358 564 l 319 564 l 319 439 z "},"Ŀ":{"ha":494,"x_min":0,"x_max":0,"o":"m 422 0 l 422 39 l 118 39 l 118 1003 l 78 1003 l 78 0 z m 422 86 l 422 125 l 210 125 l 210 1003 l 169 1003 l 169 86 z m 449 439 l 449 564 l 410 564 l 410 439 z m 358 439 l 358 564 l 319 564 l 319 439 z "},"∆":{"ha":600,"x_min":0,"x_max":0,"o":"m 565 0 l 488 819 b 300 1024 478 915 454 1024 b 113 819 146 1024 122 915 l 35 0 z m 300 985 b 447 811 418 985 439 903 l 521 39 l 79 39 l 153 811 b 300 985 161 903 182 985 z m 468 86 l 397 807 b 300 935 389 886 367 935 b 203 807 233 935 211 886 l 132 86 z m 424 125 l 176 125 l 240 804 b 300 896 247 878 263 896 b 360 804 338 896 353 878 z "},"∏":{"ha":656,"x_min":0,"x_max":0,"o":"m 578 0 l 578 1003 l 78 1003 l 78 0 l 118 0 l 118 964 l 538 964 l 538 0 z m 486 0 l 486 917 l 169 917 l 169 0 l 210 0 l 210 878 l 446 878 l 446 0 z "},"Ḃ":{"ha":611,"x_min":0,"x_max":0,"o":""},"Ḋ":{"ha":622,"x_min":0,"x_max":0,"o":"m 78 1003 l 78 0 l 376 0 b 550 182 500 0 550 78 l 550 821 b 376 1003 550 925 500 1003 z m 118 964 l 368 964 b 510 818 469 964 510 901 l 510 185 b 368 39 510 101 469 39 l 118 39 z m 169 917 l 169 86 l 357 86 b 458 189 432 86 458 131 l 458 814 b 357 917 458 872 432 917 z m 210 878 l 349 878 b 418 810 403 878 418 850 l 418 193 b 349 125 418 153 403 125 l 210 125 z m 381 1090 l 381 1215 l 340 1215 l 340 1090 z m 289 1090 l 289 1215 l 249 1215 l 249 1090 z "},"ḋ":{"ha":622,"x_min":0,"x_max":0,"o":"m 78 1003 l 78 0 l 376 0 b 550 182 500 0 550 78 l 550 821 b 376 1003 550 925 500 1003 z m 118 964 l 368 964 b 510 818 469 964 510 901 l 510 185 b 368 39 510 101 469 39 l 118 39 z m 169 917 l 169 86 l 357 86 b 458 189 432 86 458 131 l 458 814 b 357 917 458 872 432 917 z m 210 878 l 349 878 b 418 810 403 878 418 850 l 418 193 b 349 125 418 153 403 125 l 210 125 z m 381 1090 l 381 1215 l 340 1215 l 340 1090 z m 289 1090 l 289 1215 l 249 1215 l 249 1090 z "},"ḃ":{"ha":611,"x_min":0,"x_max":0,"o":""},"Ṗ":{"ha":599,"x_min":0,"x_max":0,"o":"m 118 0 l 118 964 l 368 964 b 510 818 469 964 510 901 l 510 571 b 368 425 510 488 469 425 l 169 425 l 169 0 l 210 0 l 210 386 l 376 386 b 550 568 500 386 550 464 l 550 821 b 376 1003 550 925 500 1003 l 78 1003 l 78 0 z m 169 917 l 169 472 l 357 472 b 458 575 432 472 458 517 l 458 814 b 357 917 458 872 432 917 z m 210 878 l 349 878 b 418 810 403 878 418 850 l 418 579 b 349 511 418 539 403 511 l 210 511 z m 381 1090 l 381 1215 l 340 1215 l 340 1090 z m 289 1090 l 289 1215 l 249 1215 l 249 1090 z "},"ṗ":{"ha":599,"x_min":0,"x_max":0,"o":"m 118 0 l 118 964 l 368 964 b 510 818 469 964 510 901 l 510 571 b 368 425 510 488 469 425 l 169 425 l 169 0 l 210 0 l 210 386 l 376 386 b 550 568 500 386 550 464 l 550 821 b 376 1003 550 925 500 1003 l 78 1003 l 78 0 z m 169 917 l 169 472 l 357 472 b 458 575 432 472 458 517 l 458 814 b 357 917 458 872 432 917 z m 210 878 l 349 878 b 418 810 403 878 418 850 l 418 579 b 349 511 418 539 403 511 l 210 511 z m 381 1090 l 381 1215 l 340 1215 l 340 1090 z m 289 1090 l 289 1215 l 249 1215 l 249 1090 z "},"Ė":{"ha":503,"x_min":0,"x_max":0,"o":""},"Ż":{"ha":544,"x_min":0,"x_max":0,"o":"m 511 0 l 511 39 l 68 39 l 68 79 l 414 917 l 40 917 l 40 878 l 351 878 l 33 107 l 33 0 z m 511 86 l 511 125 l 185 125 l 504 896 l 504 1003 l 40 1003 l 40 964 l 471 964 l 471 922 l 128 86 z m 339 1090 l 339 1215 l 299 1215 l 299 1090 z m 247 1090 l 247 1215 l 207 1215 l 207 1090 z "},"ż":{"ha":544,"x_min":0,"x_max":0,"o":"m 511 0 l 511 39 l 68 39 l 68 79 l 414 917 l 40 917 l 40 878 l 351 878 l 33 107 l 33 0 z m 511 86 l 511 125 l 185 125 l 504 896 l 504 1003 l 40 1003 l 40 964 l 471 964 l 471 922 l 128 86 z m 339 1090 l 339 1215 l 299 1215 l 299 1090 z m 247 1090 l 247 1215 l 207 1215 l 207 1090 z "},"Ō":{"ha":631,"x_min":0,"x_max":0,"o":""},"ō":{"ha":631,"x_min":0,"x_max":0,"o":"m 315 -21 b 564 233 490 -21 564 93 l 564 769 b 315 1024 564 910 490 1024 b 67 769 140 1024 67 910 l 67 233 b 315 -21 67 93 140 -21 z m 107 765 b 315 985 107 883 160 985 b 524 765 471 985 524 883 l 524 238 b 315 18 524 119 471 18 b 107 238 160 18 107 119 z m 315 68 b 472 243 435 68 472 151 l 472 760 b 315 935 472 851 435 935 b 158 760 196 935 158 851 l 158 243 b 315 68 158 151 196 68 z m 199 754 b 315 896 199 835 232 896 b 432 754 399 896 432 835 l 432 249 b 315 107 432 168 399 107 b 199 249 232 107 199 168 z m 497 1175 l 497 1213 l 135 1213 l 135 1175 z m 497 1097 l 497 1135 l 135 1135 l 135 1097 z "},"Ā":{"ha":617,"x_min":0,"x_max":0,"o":"m 485 0 l 457 285 l 160 285 l 132 0 l 172 0 l 196 246 l 421 246 l 444 0 z m 308 985 b 456 811 426 985 447 903 l 533 0 l 574 0 l 496 819 b 308 1024 486 915 463 1024 b 121 819 154 1024 131 915 l 43 0 l 83 0 l 161 811 b 308 985 169 903 190 985 z m 165 332 l 451 332 l 407 801 b 308 935 399 886 381 935 b 210 801 236 935 218 886 z m 249 804 b 308 896 256 878 271 896 b 368 804 346 896 361 878 l 408 371 l 208 371 z m 490 1175 l 490 1213 l 128 1213 l 128 1175 z m 490 1097 l 490 1135 l 128 1135 l 128 1097 z "},"ā":{"ha":647,"x_min":0,"x_max":0,"o":""},"Ē":{"ha":503,"x_min":0,"x_max":0,"o":"m 450 0 l 450 39 l 118 39 l 118 964 l 450 964 l 450 1003 l 78 1003 l 78 0 z m 429 476 l 429 515 l 210 515 l 210 878 l 450 878 l 450 917 l 169 917 l 169 476 z m 450 86 l 450 125 l 210 125 l 210 390 l 429 390 l 429 429 l 169 429 l 169 86 z m 446 1175 l 446 1213 l 83 1213 l 83 1175 z m 446 1097 l 446 1135 l 83 1135 l 83 1097 z "},"Ī":{"ha":439,"x_min":0,"x_max":0,"o":""},"ē":{"ha":625,"x_min":0,"x_max":0,"o":"m 158 429 l 158 243 b 315 68 158 151 196 68 b 474 243 435 68 474 151 l 474 268 l 433 268 l 433 249 b 315 107 433 168 400 107 b 199 249 232 107 199 168 l 199 390 l 564 390 l 564 769 b 315 1024 564 910 490 1024 b 67 769 140 1024 67 910 l 67 233 b 315 -21 67 93 140 -21 b 564 233 490 -21 564 93 l 564 268 l 524 268 l 524 238 b 315 18 524 119 471 18 b 107 238 160 18 107 119 l 107 765 b 315 985 107 883 160 985 b 524 765 471 985 524 883 l 524 429 z m 472 476 l 472 760 b 315 935 472 851 435 935 b 158 760 196 935 158 851 l 158 476 z m 199 754 b 315 896 199 835 232 896 b 432 754 399 896 432 835 l 432 515 l 199 515 z m 497 1175 l 497 1213 l 135 1213 l 135 1175 z m 497 1097 l 497 1135 l 135 1135 l 135 1097 z "},"ī":{"ha":439,"x_min":0,"x_max":0,"o":""},"ˉ":{"ha":501,"x_min":0,"x_max":0,"o":"m 432 1175 l 432 1213 l 69 1213 l 69 1175 z m 432 1097 l 432 1135 l 69 1135 l 69 1097 z "},"¬":{"ha":731,"x_min":0,"x_max":0,"o":"m 665 143 l 665 515 l 44 515 l 44 475 l 625 475 l 625 143 z m 583 143 l 583 433 l 44 433 l 44 393 l 543 393 l 543 143 z "},"Ẃ":{"ha":986,"x_min":0,"x_max":0,"o":""},"Ẁ":{"ha":986,"x_min":0,"x_max":0,"o":"m 428 1003 l 428 249 b 317 107 428 168 393 107 b 207 249 240 107 207 168 l 207 1003 l 167 1003 l 167 244 b 317 68 167 144 211 68 b 468 244 422 68 468 144 l 468 1003 z m 518 1003 l 518 244 b 669 68 518 144 564 68 b 819 244 775 68 819 144 l 819 1003 l 779 1003 l 779 249 b 669 107 779 168 746 107 b 558 249 593 107 558 168 l 558 1003 z m 493 54 b 669 -21 532 10 589 -21 b 911 233 838 -21 911 93 l 911 1003 l 871 1003 l 871 239 b 669 18 871 115 810 18 b 493 132 601 18 536 39 b 317 18 450 39 385 18 b 115 239 176 18 115 115 l 115 1003 l 75 1003 l 75 233 b 317 -21 75 93 149 -21 b 493 54 397 -21 454 10 z m 574 1090 l 476 1243 l 436 1243 l 535 1090 z m 494 1090 l 367 1243 l 325 1243 l 454 1090 z "},"Ź":{"ha":544,"x_min":0,"x_max":0,"o":"m 511 0 l 511 39 l 68 39 l 68 79 l 414 917 l 40 917 l 40 878 l 351 878 l 33 107 l 33 0 z m 511 86 l 511 125 l 185 125 l 504 896 l 504 1003 l 40 1003 l 40 964 l 471 964 l 471 922 l 128 86 z m 251 1090 l 350 1243 l 310 1243 l 213 1090 z m 332 1090 l 461 1243 l 419 1243 l 292 1090 z "},"ź":{"ha":544,"x_min":0,"x_max":0,"o":"m 511 0 l 511 39 l 68 39 l 68 79 l 414 917 l 40 917 l 40 878 l 351 878 l 33 107 l 33 0 z m 511 86 l 511 125 l 185 125 l 504 896 l 504 1003 l 40 1003 l 40 964 l 471 964 l 471 922 l 128 86 z m 251 1090 l 350 1243 l 310 1243 l 213 1090 z m 332 1090 l 461 1243 l 419 1243 l 292 1090 z "},"Ū":{"ha":647,"x_min":0,"x_max":0,"o":""},"ŕ":{"ha":615,"x_min":0,"x_max":0,"o":""},"Ć":{"ha":606,"x_min":0,"x_max":0,"o":"m 107 765 b 315 985 107 883 160 985 b 524 765 471 985 524 883 l 524 653 l 564 653 l 564 769 b 315 1024 564 910 490 1024 b 67 769 140 1024 67 910 l 67 233 b 315 -21 67 93 140 -21 b 564 233 490 -21 564 93 l 564 268 l 524 268 l 524 238 b 315 18 524 119 471 18 b 107 238 160 18 107 119 z m 158 243 b 315 68 158 151 196 68 b 474 243 435 68 474 151 l 474 268 l 433 268 l 433 249 b 315 107 433 168 400 107 b 199 249 232 107 199 168 l 199 754 b 315 896 199 835 232 896 b 433 754 400 896 433 835 l 433 653 l 474 653 l 474 760 b 315 935 474 851 435 935 b 158 760 196 935 158 851 z m 294 1090 l 393 1243 l 353 1243 l 256 1090 z m 375 1090 l 504 1243 l 463 1243 l 335 1090 z "},"ć":{"ha":606,"x_min":0,"x_max":0,"o":"m 107 765 b 315 985 107 883 160 985 b 524 765 471 985 524 883 l 524 653 l 564 653 l 564 769 b 315 1024 564 910 490 1024 b 67 769 140 1024 67 910 l 67 233 b 315 -21 67 93 140 -21 b 564 233 490 -21 564 93 l 564 268 l 524 268 l 524 238 b 315 18 524 119 471 18 b 107 238 160 18 107 119 z m 158 243 b 315 68 158 151 196 68 b 474 243 435 68 474 151 l 474 268 l 433 268 l 433 249 b 315 107 433 168 400 107 b 199 249 232 107 199 168 l 199 754 b 315 896 199 835 232 896 b 433 754 400 896 433 835 l 433 653 l 474 653 l 474 760 b 315 935 474 851 435 935 b 158 760 196 935 158 851 z m 294 1090 l 393 1243 l 353 1243 l 256 1090 z m 375 1090 l 504 1243 l 463 1243 l 335 1090 z "},"ǽ":{"ha":999,"x_min":0,"x_max":0,"o":""},"ḱ":{"ha":618,"x_min":0,"x_max":0,"o":"m 458 0 l 458 272 b 303 431 458 343 424 431 l 169 431 l 169 0 l 210 0 l 210 390 l 300 390 b 418 268 385 390 418 339 l 418 0 z m 118 0 l 118 1003 l 78 1003 l 78 0 z m 418 1003 l 418 638 b 300 515 418 565 385 515 l 210 515 l 210 1003 l 169 1003 l 169 475 l 303 475 b 458 633 424 475 458 563 l 458 1003 z m 457 453 b 550 626 524 472 550 551 l 550 1003 l 510 1003 l 510 629 b 389 453 510 556 489 482 b 510 276 489 424 510 350 l 510 0 l 550 0 l 550 279 b 457 453 550 353 524 433 z m 281 1090 l 379 1243 l 339 1243 l 242 1090 z m 361 1090 l 490 1243 l 449 1243 l 321 1090 z "},"Ĺ":{"ha":449,"x_min":0,"x_max":0,"o":""},"ĺ":{"ha":449,"x_min":0,"x_max":0,"o":"m 422 0 l 422 39 l 118 39 l 118 1003 l 78 1003 l 78 0 z m 422 86 l 422 125 l 210 125 l 210 1003 l 169 1003 l 169 86 z m 122 1090 l 221 1243 l 181 1243 l 83 1090 z m 203 1090 l 332 1243 l 290 1243 l 163 1090 z "},"Ń":{"ha":647,"x_min":0,"x_max":0,"o":"m 324 1024 b 75 769 149 1024 75 910 l 75 0 l 115 0 l 115 765 b 324 985 115 883 168 985 b 532 765 479 985 532 883 l 532 0 l 572 0 l 572 769 b 324 1024 572 910 499 1024 z m 324 935 b 167 760 204 935 167 851 l 167 0 l 207 0 l 207 754 b 324 896 207 835 240 896 b 440 754 407 896 440 835 l 440 0 l 481 0 l 481 760 b 324 935 481 851 443 935 z m 303 1090 l 401 1243 l 361 1243 l 264 1090 z m 383 1090 l 513 1243 l 471 1243 l 343 1090 z "},"ń":{"ha":650,"x_min":0,"x_max":0,"o":""},"ỳ":{"ha":642,"x_min":0,"x_max":0,"o":""},"ŷ":{"ha":642,"x_min":0,"x_max":0,"o":"m 69 1003 l 69 667 b 114 460 69 576 81 510 b 268 381 144 414 193 381 b 435 447 353 381 396 410 l 435 249 b 318 107 435 168 401 107 b 200 249 235 107 200 168 l 200 268 l 160 268 l 160 243 b 318 68 160 151 199 68 b 475 243 438 68 475 151 l 475 574 b 276 419 471 560 425 419 b 147 483 215 419 175 440 b 110 671 118 529 110 592 l 110 1003 z m 526 1003 l 526 238 b 318 18 526 119 474 18 b 110 238 163 18 110 119 l 110 268 l 69 268 l 69 233 b 318 -21 69 93 143 -21 b 567 233 493 -21 567 93 l 567 1003 z m 161 1003 l 161 676 b 192 519 161 610 168 557 b 288 467 214 483 242 467 b 475 743 435 467 475 610 l 475 1003 l 435 1003 l 435 738 b 294 506 435 615 401 506 b 222 543 261 506 238 517 b 201 681 203 576 201 624 l 201 1003 z m 496 1090 l 385 1243 l 249 1243 l 138 1090 l 178 1090 l 269 1217 l 364 1217 l 456 1090 z m 417 1090 l 349 1183 l 285 1183 l 217 1090 l 257 1090 l 317 1175 l 376 1090 z "},"ĥ":{"ha":656,"x_min":0,"x_max":0,"o":""},"Ĥ":{"ha":656,"x_min":0,"x_max":0,"o":"m 486 476 l 486 1003 l 446 1003 l 446 515 l 210 515 l 210 1003 l 169 1003 l 169 476 z m 486 0 l 486 429 l 169 429 l 169 0 l 210 0 l 210 390 l 446 390 l 446 0 z m 578 0 l 578 1003 l 538 1003 l 538 0 z m 118 0 l 118 1003 l 78 1003 l 78 0 z m 506 1090 l 394 1243 l 258 1243 l 147 1090 l 188 1090 l 279 1217 l 374 1217 l 465 1090 z m 426 1090 l 358 1183 l 294 1183 l 226 1090 l 267 1090 l 326 1175 l 386 1090 z "},"ř":{"ha":615,"x_min":0,"x_max":0,"o":""},"ĉ":{"ha":606,"x_min":0,"x_max":0,"o":""},"Ĉ":{"ha":606,"x_min":0,"x_max":0,"o":"m 107 765 b 315 985 107 883 160 985 b 524 765 471 985 524 883 l 524 653 l 564 653 l 564 769 b 315 1024 564 910 490 1024 b 67 769 140 1024 67 910 l 67 233 b 315 -21 67 93 140 -21 b 564 233 490 -21 564 93 l 564 268 l 524 268 l 524 238 b 315 18 524 119 471 18 b 107 238 160 18 107 119 z m 158 243 b 315 68 158 151 196 68 b 474 243 435 68 474 151 l 474 268 l 433 268 l 433 249 b 315 107 433 168 400 107 b 199 249 232 107 199 168 l 199 754 b 315 896 199 835 232 896 b 433 754 400 896 433 835 l 433 653 l 474 653 l 474 760 b 315 935 474 851 435 935 b 158 760 196 935 158 851 z m 494 1090 l 383 1243 l 247 1243 l 136 1090 l 176 1090 l 268 1217 l 363 1217 l 454 1090 z m 415 1090 l 347 1183 l 283 1183 l 215 1090 l 256 1090 l 315 1175 l 375 1090 z "},"Č":{"ha":606,"x_min":0,"x_max":0,"o":""},"č":{"ha":606,"x_min":0,"x_max":0,"o":"m 107 765 b 315 985 107 883 160 985 b 524 765 471 985 524 883 l 524 653 l 564 653 l 564 769 b 315 1024 564 910 490 1024 b 67 769 140 1024 67 910 l 67 233 b 315 -21 67 93 140 -21 b 564 233 490 -21 564 93 l 564 268 l 524 268 l 524 238 b 315 18 524 119 471 18 b 107 238 160 18 107 119 z m 158 243 b 315 68 158 151 196 68 b 474 243 435 68 474 151 l 474 268 l 433 268 l 433 249 b 315 107 433 168 400 107 b 199 249 232 107 199 168 l 199 754 b 315 896 199 835 232 896 b 433 754 400 896 433 835 l 433 653 l 474 653 l 474 760 b 315 935 474 851 435 935 b 158 760 196 935 158 851 z m 454 1243 l 363 1117 l 268 1117 l 176 1243 l 136 1243 l 247 1090 l 383 1090 l 494 1243 z m 375 1243 l 315 1158 l 256 1243 l 215 1243 l 283 1150 l 347 1150 l 415 1243 z "},"Ŵ":{"ha":986,"x_min":0,"x_max":0,"o":""},"ū":{"ha":650,"x_min":0,"x_max":0,"o":""},"Ň":{"ha":647,"x_min":0,"x_max":0,"o":""},"Ď":{"ha":622,"x_min":0,"x_max":0,"o":"m 78 1003 l 78 0 l 376 0 b 550 182 500 0 550 78 l 550 821 b 376 1003 550 925 500 1003 z m 118 964 l 368 964 b 510 818 469 964 510 901 l 510 185 b 368 39 510 101 469 39 l 118 39 z m 169 917 l 169 86 l 357 86 b 458 189 432 86 458 131 l 458 814 b 357 917 458 872 432 917 z m 210 878 l 349 878 b 418 810 403 878 418 850 l 418 193 b 349 125 418 153 403 125 l 210 125 z m 453 1243 l 361 1117 l 267 1117 l 175 1243 l 135 1243 l 246 1090 l 382 1090 l 493 1243 z m 374 1243 l 314 1158 l 254 1243 l 214 1243 l 282 1150 l 346 1150 l 414 1243 z "},"Ě":{"ha":503,"x_min":0,"x_max":0,"o":""},"Ĝ":{"ha":625,"x_min":0,"x_max":0,"o":""},"ě":{"ha":625,"x_min":0,"x_max":0,"o":""},"ĵ":{"ha":397,"x_min":0,"x_max":0,"o":"m 25 -7 l 60 -7 b 308 247 235 -7 308 93 l 308 1003 l 268 1003 l 268 251 b 60 32 268 119 215 32 l 25 32 z m 25 79 l 60 79 b 217 257 179 79 217 151 l 217 1003 l 176 1003 l 176 263 b 60 118 176 168 143 118 l 25 118 z m 422 1090 l 311 1243 l 175 1243 l 64 1090 l 104 1090 l 196 1217 l 290 1217 l 382 1090 z m 343 1090 l 275 1183 l 211 1183 l 143 1090 l 183 1090 l 243 1175 l 303 1090 z "},"ň":{"ha":650,"x_min":0,"x_max":0,"o":"m 483 0 l 483 728 b 453 885 483 794 476 847 b 357 938 431 921 403 938 b 169 661 210 938 169 794 l 169 0 l 210 0 l 210 667 b 350 899 210 789 243 899 b 422 861 383 899 407 888 b 443 724 442 828 443 781 l 443 0 z m 575 0 l 575 738 b 531 944 575 828 564 894 b 376 1024 500 990 451 1024 b 203 936 275 1024 219 963 l 203 1003 l 169 1003 l 169 829 b 368 985 169 829 211 985 b 497 921 429 985 469 964 b 535 733 526 875 535 813 l 535 0 z m 118 0 l 118 1003 l 78 1003 l 78 0 z m 486 1243 l 394 1117 l 300 1117 l 208 1243 l 168 1243 l 279 1090 l 415 1090 l 526 1243 z m 407 1243 l 347 1158 l 288 1243 l 247 1243 l 315 1150 l 379 1150 l 447 1243 z "},"ĝ":{"ha":625,"x_min":0,"x_max":0,"o":""},"ď":{"ha":622,"x_min":0,"x_max":0,"o":""},"":{"ha":365,"x_min":0,"x_max":0,"o":"m 131 -314 l 188 -69 l 147 -69 l 93 -314 z m 199 -314 l 274 -69 l 233 -69 l 161 -314 z "},"ŗ":{"ha":615,"x_min":0,"x_max":0,"o":"m 169 475 l 303 475 b 458 633 424 475 458 563 l 458 814 b 357 917 458 872 432 917 l 169 917 z m 118 0 l 118 964 l 368 964 b 510 818 469 964 510 901 l 510 629 b 389 453 510 556 489 482 b 510 276 489 424 510 350 l 510 0 l 550 0 l 550 279 b 457 453 550 353 524 433 b 550 626 524 472 550 551 l 550 821 b 376 1003 550 925 500 1003 l 78 1003 l 78 0 z m 418 638 b 300 515 418 565 385 515 l 210 515 l 210 878 l 349 878 b 418 810 403 878 418 850 z m 458 0 l 458 272 b 303 431 458 343 424 431 l 169 431 l 169 0 l 210 0 l 210 390 l 300 390 b 418 268 385 390 418 339 l 418 0 z m 256 -314 l 313 -69 l 272 -69 l 218 -314 z m 324 -314 l 399 -69 l 358 -69 l 286 -314 z "},"Ģ":{"ha":625,"x_min":0,"x_max":0,"o":"m 107 765 b 315 985 107 883 160 985 b 524 765 471 985 524 883 l 524 653 l 564 653 l 564 769 b 315 1024 564 910 490 1024 b 67 769 140 1024 67 910 l 67 233 b 315 -21 67 93 140 -21 b 564 233 490 -21 564 93 l 564 515 l 268 515 l 268 476 l 524 476 l 524 238 b 315 18 524 119 471 18 b 107 238 160 18 107 119 z m 158 243 b 315 68 158 151 196 68 b 474 243 435 68 474 151 l 474 429 l 268 429 l 268 390 l 433 390 l 433 249 b 315 107 433 168 399 107 b 199 249 232 107 199 168 l 199 754 b 315 896 199 835 232 896 b 433 754 400 896 433 835 l 433 653 l 474 653 l 474 760 b 315 935 474 851 435 935 b 158 760 196 935 158 851 z m 263 -314 l 319 -69 l 279 -69 l 225 -314 z m 331 -314 l 406 -69 l 365 -69 l 293 -314 z "},"ģ":{"ha":625,"x_min":0,"x_max":0,"o":"m 107 765 b 315 985 107 883 160 985 b 524 765 471 985 524 883 l 524 653 l 564 653 l 564 769 b 315 1024 564 910 490 1024 b 67 769 140 1024 67 910 l 67 233 b 315 -21 67 93 140 -21 b 564 233 490 -21 564 93 l 564 515 l 268 515 l 268 476 l 524 476 l 524 238 b 315 18 524 119 471 18 b 107 238 160 18 107 119 z m 158 243 b 315 68 158 151 196 68 b 474 243 435 68 474 151 l 474 429 l 268 429 l 268 390 l 433 390 l 433 249 b 315 107 433 168 399 107 b 199 249 232 107 199 168 l 199 754 b 315 896 199 835 232 896 b 433 754 400 896 433 835 l 433 653 l 474 653 l 474 760 b 315 935 474 851 435 935 b 158 760 196 935 158 851 z m 263 -314 l 319 -69 l 279 -69 l 225 -314 z m 331 -314 l 406 -69 l 365 -69 l 293 -314 z "},"ţ":{"ha":597,"x_min":0,"x_max":0,"o":"m 75 1003 l 75 233 b 324 -21 75 93 149 -21 b 572 233 499 -21 572 93 l 572 268 l 532 268 l 532 238 b 324 18 532 119 479 18 b 115 238 168 18 115 119 l 115 1003 z m 167 632 l 167 243 b 324 68 167 151 204 68 b 482 243 443 68 482 151 l 482 268 l 442 268 l 442 249 b 324 107 442 168 408 107 b 207 249 240 107 207 168 l 207 593 l 556 593 l 556 632 z m 556 679 l 556 718 l 207 718 l 207 1003 l 167 1003 l 167 679 z m 251 -314 l 308 -69 l 268 -69 l 214 -314 z m 319 -314 l 394 -69 l 354 -69 l 282 -314 z "},"Ţ":{"ha":493,"x_min":0,"x_max":0,"o":"m 313 0 l 313 878 l 465 878 l 465 917 l 272 917 l 272 0 z m 465 964 l 465 1003 l 28 1003 l 28 964 z m 221 0 l 221 917 l 28 917 l 28 878 l 181 878 l 181 0 z m 167 -314 l 224 -69 l 183 -69 l 129 -314 z m 235 -314 l 310 -69 l 269 -69 l 197 -314 z "},"ķ":{"ha":618,"x_min":0,"x_max":0,"o":"m 458 0 l 458 272 b 303 431 458 343 424 431 l 169 431 l 169 0 l 210 0 l 210 390 l 300 390 b 418 268 385 390 418 339 l 418 0 z m 118 0 l 118 1003 l 78 1003 l 78 0 z m 418 1003 l 418 638 b 300 515 418 565 385 515 l 210 515 l 210 1003 l 169 1003 l 169 475 l 303 475 b 458 633 424 475 458 563 l 458 1003 z m 457 453 b 550 626 524 472 550 551 l 550 1003 l 510 1003 l 510 629 b 389 453 510 556 489 482 b 510 276 489 424 510 350 l 510 0 l 550 0 l 550 279 b 457 453 550 353 524 433 z m 254 -314 l 311 -69 l 271 -69 l 217 -314 z m 322 -314 l 397 -69 l 357 -69 l 285 -314 z "},"ļ":{"ha":449,"x_min":0,"x_max":0,"o":"m 422 0 l 422 39 l 118 39 l 118 1003 l 78 1003 l 78 0 z m 422 86 l 422 125 l 210 125 l 210 1003 l 169 1003 l 169 86 z m 192 -314 l 249 -69 l 208 -69 l 154 -314 z m 260 -314 l 335 -69 l 294 -69 l 222 -314 z "},"Ļ":{"ha":449,"x_min":0,"x_max":0,"o":"m 422 0 l 422 39 l 118 39 l 118 1003 l 78 1003 l 78 0 z m 422 86 l 422 125 l 210 125 l 210 1003 l 169 1003 l 169 86 z m 192 -314 l 249 -69 l 208 -69 l 154 -314 z m 260 -314 l 335 -69 l 294 -69 l 222 -314 z "},"ņ":{"ha":650,"x_min":0,"x_max":0,"o":"m 483 0 l 483 728 b 453 885 483 794 476 847 b 357 938 431 921 403 938 b 169 661 210 938 169 794 l 169 0 l 210 0 l 210 667 b 350 899 210 789 243 899 b 422 861 383 899 407 888 b 443 724 442 828 443 781 l 443 0 z m 575 0 l 575 738 b 531 944 575 828 564 894 b 376 1024 500 990 451 1024 b 203 936 275 1024 219 963 l 203 1003 l 169 1003 l 169 829 b 368 985 169 829 211 985 b 497 921 429 985 469 964 b 535 733 526 875 535 813 l 535 0 z m 118 0 l 118 1003 l 78 1003 l 78 0 z m 264 -314 l 321 -69 l 281 -69 l 226 -314 z m 332 -314 l 407 -69 l 367 -69 l 294 -314 z "},"Ņ":{"ha":647,"x_min":0,"x_max":0,"o":"m 324 1024 b 75 769 149 1024 75 910 l 75 0 l 115 0 l 115 765 b 324 985 115 883 168 985 b 532 765 479 985 532 883 l 532 0 l 572 0 l 572 769 b 324 1024 572 910 499 1024 z m 324 935 b 167 760 204 935 167 851 l 167 0 l 207 0 l 207 754 b 324 896 207 835 240 896 b 440 754 407 896 440 835 l 440 0 l 481 0 l 481 760 b 324 935 481 851 443 935 z m 263 -314 l 319 -69 l 279 -69 l 225 -314 z m 331 -314 l 406 -69 l 365 -69 l 293 -314 z "},"Ŕ":{"ha":614,"x_min":0,"x_max":0,"o":""},"Ř":{"ha":614,"x_min":0,"x_max":0,"o":"m 283 475 b 460 633 401 475 460 536 l 460 813 b 358 917 460 882 428 917 l 169 917 l 169 475 z m 571 0 l 529 279 b 443 453 514 381 496 433 b 550 626 510 472 550 536 l 550 821 b 376 1003 550 925 500 1003 l 78 1003 l 78 0 l 118 0 l 118 964 l 368 964 b 510 817 463 964 510 914 l 510 629 b 374 453 510 540 481 488 b 490 276 456 431 476 374 l 531 0 z m 481 0 l 438 272 b 283 431 424 363 393 431 l 169 431 l 169 0 l 210 0 l 210 390 l 286 390 b 397 268 357 390 383 356 l 439 0 z m 418 638 b 286 515 418 550 371 515 l 210 515 l 210 878 l 349 878 b 418 810 403 878 418 850 z m 454 1243 l 363 1117 l 268 1117 l 176 1243 l 136 1243 l 247 1090 l 383 1090 l 494 1243 z m 375 1243 l 315 1158 l 256 1243 l 215 1243 l 283 1150 l 347 1150 l 415 1243 z "},"Ŗ":{"ha":614,"x_min":0,"x_max":0,"o":"m 283 475 b 460 633 401 475 460 536 l 460 813 b 358 917 460 882 428 917 l 169 917 l 169 475 z m 571 0 l 529 279 b 443 453 514 381 496 433 b 550 626 510 472 550 536 l 550 821 b 376 1003 550 925 500 1003 l 78 1003 l 78 0 l 118 0 l 118 964 l 368 964 b 510 817 463 964 510 914 l 510 629 b 374 453 510 540 481 488 b 490 276 456 431 476 374 l 531 0 z m 481 0 l 438 272 b 283 431 424 363 393 431 l 169 431 l 169 0 l 210 0 l 210 390 l 286 390 b 397 268 357 390 383 356 l 439 0 z m 418 638 b 286 515 418 550 371 515 l 210 515 l 210 878 l 349 878 b 418 810 403 878 418 850 z m 251 -314 l 308 -69 l 268 -69 l 214 -314 z m 319 -314 l 394 -69 l 354 -69 l 282 -314 z "},"Ů":{"ha":647,"x_min":0,"x_max":0,"o":""},"ṁ":{"ha":990,"x_min":0,"x_max":0,"o":""},"đ":{"ha":671,"x_min":0,"x_max":0,"o":"m 167 476 l 167 964 l 417 964 b 558 818 518 964 558 901 l 558 185 b 417 39 558 101 518 39 l 167 39 l 167 429 l 29 429 l 29 390 l 126 390 l 126 0 l 425 0 b 599 182 549 0 599 78 l 599 821 b 425 1003 599 925 549 1003 l 126 1003 l 126 515 l 29 515 l 29 476 z m 376 476 l 376 515 l 258 515 l 258 878 l 397 878 b 467 810 451 878 467 850 l 467 193 b 397 125 467 153 451 125 l 258 125 l 258 390 l 376 390 l 376 429 l 218 429 l 218 86 l 406 86 b 507 189 481 86 507 131 l 507 814 b 406 917 507 872 481 917 l 218 917 l 218 476 z "},"Đ":{"ha":671,"x_min":0,"x_max":0,"o":"m 167 476 l 167 964 l 417 964 b 558 818 518 964 558 901 l 558 185 b 417 39 558 101 518 39 l 167 39 l 167 429 l 29 429 l 29 390 l 126 390 l 126 0 l 425 0 b 599 182 549 0 599 78 l 599 821 b 425 1003 599 925 549 1003 l 126 1003 l 126 515 l 29 515 l 29 476 z m 376 476 l 376 515 l 258 515 l 258 878 l 397 878 b 467 810 451 878 467 850 l 467 193 b 397 125 467 153 451 125 l 258 125 l 258 390 l 376 390 l 376 429 l 218 429 l 218 86 l 406 86 b 507 189 481 86 507 131 l 507 814 b 406 917 507 872 481 917 l 218 917 l 218 476 z "},"ǻ":{"ha":647,"x_min":0,"x_max":0,"o":"m 481 332 l 481 760 b 324 935 481 851 443 935 b 167 760 204 935 167 851 l 167 332 z m 207 754 b 324 896 207 835 240 896 b 440 754 407 896 440 835 l 440 371 l 207 371 z m 293 969 b 217 1075 242 986 217 1031 b 324 1185 217 1135 263 1185 b 431 1075 385 1185 431 1135 b 354 969 431 1031 406 986 b 532 765 482 958 532 865 l 532 0 l 572 0 l 572 769 b 433 992 572 875 529 958 b 461 1075 451 1015 461 1043 b 324 1213 461 1151 400 1213 b 186 1075 247 1213 186 1151 b 214 992 186 1043 196 1015 b 75 769 118 958 75 875 l 75 0 l 115 0 l 115 765 b 293 969 115 865 165 958 z m 167 285 l 167 0 l 207 0 l 207 246 l 440 246 l 440 0 l 481 0 l 481 285 z m 244 1075 b 324 996 244 1032 281 996 b 403 1075 367 996 403 1032 b 324 1154 403 1118 367 1154 b 244 1075 281 1154 244 1118 z m 324 1126 b 372 1075 350 1126 372 1103 b 324 1024 372 1047 350 1024 b 275 1075 297 1024 275 1047 b 324 1126 275 1103 297 1126 z m 303 1249 l 401 1401 l 361 1401 l 264 1249 z m 383 1249 l 513 1401 l 471 1401 l 343 1249 z "},"Ǻ":{"ha":617,"x_min":0,"x_max":0,"o":"m 229 1075 b 308 996 229 1032 265 996 b 388 1075 351 996 388 1032 b 308 1154 388 1118 351 1154 b 229 1075 265 1154 229 1118 z m 308 1126 b 357 1075 335 1126 357 1103 b 308 1024 357 1047 335 1024 b 260 1075 282 1024 260 1047 b 308 1126 260 1103 282 1126 z m 485 0 l 457 285 l 160 285 l 132 0 l 172 0 l 196 246 l 421 246 l 444 0 z m 308 1213 b 171 1075 232 1213 171 1151 b 203 988 171 1042 183 1011 b 121 819 142 954 128 886 l 43 0 l 83 0 l 161 811 b 269 972 169 892 185 958 b 201 1075 225 990 201 1032 b 308 1185 201 1135 247 1185 b 415 1075 369 1185 415 1135 b 347 972 415 1032 392 990 b 456 811 432 958 447 892 l 533 0 l 574 0 l 496 819 b 414 988 489 886 475 954 b 446 1075 433 1011 446 1042 b 308 1213 446 1151 385 1213 z m 288 1249 l 386 1401 l 346 1401 l 249 1249 z m 368 1249 l 497 1401 l 456 1401 l 328 1249 z m 165 332 l 451 332 l 407 801 b 308 935 399 886 381 935 b 210 801 236 935 218 886 z m 249 804 b 308 896 256 878 271 896 b 368 804 346 896 361 878 l 408 371 l 208 371 z "},"Ḱ":{"ha":600,"x_min":0,"x_max":0,"o":""},"Ķ":{"ha":600,"x_min":0,"x_max":0,"o":"m 283 475 b 432 635 371 475 425 539 l 460 1003 l 418 1003 l 390 638 b 272 515 385 565 357 515 l 210 515 l 210 1003 l 169 1003 l 169 475 z m 550 0 l 522 279 b 429 453 515 353 489 433 b 522 626 489 472 517 551 l 550 1003 l 510 1003 l 481 631 b 360 453 475 563 460 483 b 482 275 454 425 475 346 l 510 0 z m 460 0 l 432 271 b 283 431 421 376 371 431 l 169 431 l 169 0 l 210 0 l 210 390 l 272 390 b 390 268 357 390 383 339 l 418 0 z m 118 0 l 118 1003 l 78 1003 l 78 0 z m 243 -314 l 300 -69 l 260 -69 l 206 -314 z m 311 -314 l 386 -69 l 346 -69 l 274 -314 z "},"Ỳ":{"ha":575,"x_min":0,"x_max":0,"o":""},"Ŷ":{"ha":575,"x_min":0,"x_max":0,"o":"m 261 457 b 124 629 153 464 131 549 l 89 1003 l 49 1003 l 85 621 b 221 424 93 539 118 449 l 221 0 l 261 0 z m 313 0 l 353 0 l 353 424 b 490 621 457 449 482 539 l 526 1003 l 486 1003 l 451 629 b 313 457 444 549 422 464 z m 288 550 b 213 647 238 550 219 574 l 179 1003 l 143 1003 l 178 640 b 288 511 185 564 213 511 b 397 640 363 511 390 564 l 432 1003 l 396 1003 l 363 647 b 288 550 356 574 338 550 z m 467 1090 l 356 1243 l 219 1243 l 108 1090 l 149 1090 l 240 1217 l 335 1217 l 426 1090 z m 388 1090 l 319 1183 l 256 1183 l 188 1090 l 228 1090 l 288 1175 l 347 1090 z "},"ħ":{"ha":708,"x_min":0,"x_max":0,"o":"m 513 476 l 513 760 l 196 760 l 196 476 z m 472 515 l 236 515 l 236 721 l 472 721 z m 513 0 l 513 429 l 196 429 l 196 0 l 236 0 l 236 390 l 472 390 l 472 0 z m 144 0 l 144 760 l 21 760 l 21 721 l 104 721 l 104 0 z m 604 0 l 604 721 l 688 721 l 688 760 l 564 760 l 564 0 z m 513 807 l 513 1003 l 472 1003 l 472 846 l 236 846 l 236 1003 l 196 1003 l 196 807 z m 144 807 l 144 1003 l 104 1003 l 104 846 l 21 846 l 21 807 z m 688 807 l 688 846 l 604 846 l 604 1003 l 564 1003 l 564 807 z "},"Ħ":{"ha":708,"x_min":0,"x_max":0,"o":"m 513 476 l 513 760 l 196 760 l 196 476 z m 472 515 l 236 515 l 236 721 l 472 721 z m 513 0 l 513 429 l 196 429 l 196 0 l 236 0 l 236 390 l 472 390 l 472 0 z m 144 0 l 144 760 l 21 760 l 21 721 l 104 721 l 104 0 z m 604 0 l 604 721 l 688 721 l 688 760 l 564 760 l 564 0 z m 513 807 l 513 1003 l 472 1003 l 472 846 l 236 846 l 236 1003 l 196 1003 l 196 807 z m 144 807 l 144 1003 l 104 1003 l 104 846 l 21 846 l 21 807 z m 688 807 l 688 846 l 604 846 l 604 1003 l 564 1003 l 564 807 z "},"˘":{"ha":419,"x_min":0,"x_max":0,"o":"m 210 1079 b 72 1189 121 1079 72 1129 l 72 1194 l 44 1194 l 44 1189 b 210 1051 44 1113 106 1051 b 375 1189 314 1051 375 1113 l 375 1194 l 347 1194 l 347 1189 b 210 1079 347 1129 299 1079 z m 286 1194 l 286 1189 b 210 1138 286 1161 264 1138 b 133 1189 156 1138 133 1161 l 133 1194 l 106 1194 l 106 1189 b 210 1110 106 1146 140 1110 b 314 1189 279 1110 314 1146 l 314 1194 z "},"˝":{"ha":604,"x_min":0,"x_max":0,"o":"m 161 1090 l 260 1243 l 219 1243 l 122 1090 z m 242 1090 l 371 1243 l 329 1243 l 201 1090 z m 372 1090 l 471 1243 l 431 1243 l 333 1090 z m 453 1090 l 582 1243 l 540 1243 l 413 1090 z "},"˛":{"ha":694,"x_min":0,"x_max":0,"o":"m 556 -221 b 482 -237 556 -221 528 -237 b 351 -128 415 -237 351 -199 b 451 14 351 -79 385 -22 l 414 14 b 319 -136 353 -19 319 -79 b 472 -269 319 -222 396 -269 b 556 -249 501 -269 531 -262 z m 556 -153 b 506 -162 556 -153 538 -162 b 426 -107 464 -162 426 -146 b 526 14 426 -76 450 -31 l 488 14 b 394 -117 422 -28 394 -78 b 496 -192 394 -168 444 -192 b 556 -181 525 -192 556 -181 z "},"Ă":{"ha":617,"x_min":0,"x_max":0,"o":""},"ă":{"ha":647,"x_min":0,"x_max":0,"o":"m 481 332 l 481 760 b 324 935 481 851 443 935 b 167 760 204 935 167 851 l 167 332 z m 207 754 b 324 896 207 835 240 896 b 440 754 407 896 440 835 l 440 371 l 207 371 z m 324 1024 b 75 769 149 1024 75 910 l 75 0 l 115 0 l 115 765 b 324 985 115 883 168 985 b 532 765 479 985 532 883 l 532 0 l 572 0 l 572 769 b 324 1024 572 910 499 1024 z m 167 285 l 167 0 l 207 0 l 207 246 l 440 246 l 440 0 l 481 0 l 481 285 z m 324 1079 b 186 1189 235 1079 186 1129 l 186 1194 l 158 1194 l 158 1189 b 324 1051 158 1113 219 1051 b 489 1189 428 1051 489 1113 l 489 1194 l 461 1194 l 461 1189 b 324 1079 461 1129 413 1079 z m 400 1194 l 400 1189 b 324 1138 400 1161 378 1138 b 247 1189 269 1138 247 1161 l 247 1194 l 219 1194 l 219 1189 b 324 1110 219 1146 254 1110 b 428 1189 393 1110 428 1146 l 428 1194 z "},"Ť":{"ha":493,"x_min":0,"x_max":0,"o":""},"Ŏ":{"ha":631,"x_min":0,"x_max":0,"o":""},"Ŭ":{"ha":647,"x_min":0,"x_max":0,"o":"m 324 -21 b 572 233 499 -21 572 93 l 572 1003 l 532 1003 l 532 238 b 324 18 532 119 479 18 b 115 238 168 18 115 119 l 115 1003 l 75 1003 l 75 233 b 324 -21 75 93 149 -21 z m 324 68 b 481 243 443 68 481 151 l 481 1003 l 440 1003 l 440 249 b 324 107 440 168 407 107 b 207 249 240 107 207 168 l 207 1003 l 167 1003 l 167 243 b 324 68 167 151 204 68 z m 324 1079 b 186 1189 235 1079 186 1129 l 186 1194 l 158 1194 l 158 1189 b 324 1051 158 1113 219 1051 b 489 1189 428 1051 489 1113 l 489 1194 l 461 1194 l 461 1189 b 324 1079 461 1129 413 1079 z m 400 1194 l 400 1189 b 324 1138 400 1161 378 1138 b 247 1189 269 1138 247 1161 l 247 1194 l 219 1194 l 219 1189 b 324 1110 219 1146 254 1110 b 428 1189 393 1110 428 1146 l 428 1194 z "},"ğ":{"ha":625,"x_min":0,"x_max":0,"o":""},"Ğ":{"ha":625,"x_min":0,"x_max":0,"o":"m 107 765 b 315 985 107 883 160 985 b 524 765 471 985 524 883 l 524 653 l 564 653 l 564 769 b 315 1024 564 910 490 1024 b 67 769 140 1024 67 910 l 67 233 b 315 -21 67 93 140 -21 b 564 233 490 -21 564 93 l 564 515 l 268 515 l 268 476 l 524 476 l 524 238 b 315 18 524 119 471 18 b 107 238 160 18 107 119 z m 158 243 b 315 68 158 151 196 68 b 474 243 435 68 474 151 l 474 429 l 268 429 l 268 390 l 433 390 l 433 249 b 315 107 433 168 399 107 b 199 249 232 107 199 168 l 199 754 b 315 896 199 835 232 896 b 433 754 400 896 433 835 l 433 653 l 474 653 l 474 760 b 315 935 474 851 435 935 b 158 760 196 935 158 851 z m 315 1079 b 178 1189 226 1079 178 1129 l 178 1194 l 150 1194 l 150 1189 b 315 1051 150 1113 211 1051 b 481 1189 419 1051 481 1113 l 481 1194 l 453 1194 l 453 1189 b 315 1079 453 1129 404 1079 z m 392 1194 l 392 1189 b 315 1138 392 1161 369 1138 b 239 1189 261 1138 239 1161 l 239 1194 l 211 1194 l 211 1189 b 315 1110 211 1146 246 1110 b 419 1189 385 1110 419 1146 l 419 1194 z "},"ŏ":{"ha":631,"x_min":0,"x_max":0,"o":"m 315 -21 b 564 233 490 -21 564 93 l 564 769 b 315 1024 564 910 490 1024 b 67 769 140 1024 67 910 l 67 233 b 315 -21 67 93 140 -21 z m 107 765 b 315 985 107 883 160 985 b 524 765 471 985 524 883 l 524 238 b 315 18 524 119 471 18 b 107 238 160 18 107 119 z m 315 68 b 472 243 435 68 472 151 l 472 760 b 315 935 472 851 435 935 b 158 760 196 935 158 851 l 158 243 b 315 68 158 151 196 68 z m 199 754 b 315 896 199 835 232 896 b 432 754 399 896 432 835 l 432 249 b 315 107 432 168 399 107 b 199 249 232 107 199 168 z m 315 1079 b 178 1189 226 1079 178 1129 l 178 1194 l 150 1194 l 150 1189 b 315 1051 150 1113 211 1051 b 481 1189 419 1051 481 1113 l 481 1194 l 453 1194 l 453 1189 b 315 1079 453 1129 404 1079 z m 392 1194 l 392 1189 b 315 1138 392 1161 369 1138 b 239 1189 261 1138 239 1161 l 239 1194 l 211 1194 l 211 1189 b 315 1110 211 1146 246 1110 b 419 1189 385 1110 419 1146 l 419 1194 z "},"Ĭ":{"ha":479,"x_min":0,"x_max":0,"o":""},"ĭ":{"ha":288,"x_min":0,"x_max":0,"o":"m 210 0 l 210 1003 l 169 1003 l 169 0 z m 118 0 l 118 1003 l 78 1003 l 78 0 z m 143 1079 b 6 1189 54 1079 6 1129 l 6 1194 l -22 1194 l -22 1189 b 143 1051 -22 1113 39 1051 b 308 1189 247 1051 308 1113 l 308 1194 l 281 1194 l 281 1189 b 143 1079 281 1129 232 1079 z m 219 1194 l 219 1189 b 143 1138 219 1161 197 1138 b 67 1189 89 1138 67 1161 l 67 1194 l 39 1194 l 39 1189 b 143 1110 39 1146 74 1110 b 247 1189 213 1110 247 1146 l 247 1194 z "},"ĕ":{"ha":625,"x_min":0,"x_max":0,"o":"m 158 429 l 158 243 b 315 68 158 151 196 68 b 474 243 435 68 474 151 l 474 268 l 433 268 l 433 249 b 315 107 433 168 400 107 b 199 249 232 107 199 168 l 199 390 l 564 390 l 564 769 b 315 1024 564 910 490 1024 b 67 769 140 1024 67 910 l 67 233 b 315 -21 67 93 140 -21 b 564 233 490 -21 564 93 l 564 268 l 524 268 l 524 238 b 315 18 524 119 471 18 b 107 238 160 18 107 119 l 107 765 b 315 985 107 883 160 985 b 524 765 471 985 524 883 l 524 429 z m 472 476 l 472 760 b 315 935 472 851 435 935 b 158 760 196 935 158 851 l 158 476 z m 199 754 b 315 896 199 835 232 896 b 432 754 399 896 432 835 l 432 515 l 199 515 z m 315 1079 b 178 1189 226 1079 178 1129 l 178 1194 l 150 1194 l 150 1189 b 315 1051 150 1113 211 1051 b 481 1189 419 1051 481 1113 l 481 1194 l 453 1194 l 453 1189 b 315 1079 453 1129 404 1079 z m 392 1194 l 392 1189 b 315 1138 392 1161 369 1138 b 239 1189 261 1138 239 1161 l 239 1194 l 211 1194 l 211 1189 b 315 1110 211 1146 246 1110 b 419 1189 385 1110 419 1146 l 419 1194 z "},"Ĕ":{"ha":503,"x_min":0,"x_max":0,"o":""},"Ő":{"ha":631,"x_min":0,"x_max":0,"o":""},"ő":{"ha":631,"x_min":0,"x_max":0,"o":"m 315 -21 b 564 233 490 -21 564 93 l 564 769 b 315 1024 564 910 490 1024 b 67 769 140 1024 67 910 l 67 233 b 315 -21 67 93 140 -21 z m 107 765 b 315 985 107 883 160 985 b 524 765 471 985 524 883 l 524 238 b 315 18 524 119 471 18 b 107 238 160 18 107 119 z m 315 68 b 472 243 435 68 472 151 l 472 760 b 315 935 472 851 435 935 b 158 760 196 935 158 851 l 158 243 b 315 68 158 151 196 68 z m 199 754 b 315 896 199 835 232 896 b 432 754 399 896 432 835 l 432 249 b 315 107 432 168 399 107 b 199 249 232 107 199 168 z m 189 1090 l 288 1243 l 247 1243 l 150 1090 z m 269 1090 l 399 1243 l 357 1243 l 229 1090 z m 400 1090 l 499 1243 l 458 1243 l 361 1090 z m 481 1090 l 610 1243 l 568 1243 l 440 1090 z "},"Ű":{"ha":647,"x_min":0,"x_max":0,"o":"m 324 -21 b 572 233 499 -21 572 93 l 572 1003 l 532 1003 l 532 238 b 324 18 532 119 479 18 b 115 238 168 18 115 119 l 115 1003 l 75 1003 l 75 233 b 324 -21 75 93 149 -21 z m 324 68 b 481 243 443 68 481 151 l 481 1003 l 440 1003 l 440 249 b 324 107 440 168 407 107 b 207 249 240 107 207 168 l 207 1003 l 167 1003 l 167 243 b 324 68 167 151 204 68 z m 197 1090 l 296 1243 l 256 1243 l 158 1090 z m 278 1090 l 407 1243 l 365 1243 l 238 1090 z m 408 1090 l 507 1243 l 467 1243 l 369 1090 z m 489 1090 l 618 1243 l 576 1243 l 449 1090 z "},"ŭ":{"ha":650,"x_min":0,"x_max":0,"o":""},"ű":{"ha":650,"x_min":0,"x_max":0,"o":"m 167 1003 l 167 275 b 197 118 167 208 174 156 b 293 65 219 82 247 65 b 481 342 440 65 481 208 l 481 1003 l 440 1003 l 440 336 b 300 104 440 214 407 104 b 226 142 267 104 242 115 b 207 279 207 175 207 222 l 207 1003 z m 75 1003 l 75 265 b 119 58 75 175 86 108 b 274 -21 150 13 199 -21 b 447 67 375 -21 431 40 l 447 0 l 481 0 l 481 174 b 282 18 481 174 439 18 b 153 82 221 18 181 39 b 115 269 124 128 115 190 l 115 1003 z m 532 1003 l 532 0 l 572 0 l 572 1003 z m 196 1090 l 294 1243 l 254 1243 l 157 1090 z m 276 1090 l 406 1243 l 364 1243 l 236 1090 z m 407 1090 l 506 1243 l 465 1243 l 368 1090 z m 488 1090 l 617 1243 l 575 1243 l 447 1090 z "},"Ŧ":{"ha":504,"x_min":0,"x_max":0,"o":"m 318 0 l 318 510 l 419 510 l 419 550 l 278 550 l 278 0 z m 226 0 l 226 550 l 85 550 l 85 510 l 186 510 l 186 0 z m 226 596 l 226 917 l 33 917 l 33 878 l 186 878 l 186 636 l 85 636 l 85 596 z m 419 596 l 419 636 l 318 636 l 318 878 l 471 878 l 471 917 l 278 917 l 278 596 z m 471 964 l 471 1003 l 33 1003 l 33 964 z "},"ŧ":{"ha":631,"x_min":0,"x_max":0,"o":"m 29 396 l 29 356 l 108 356 l 108 233 b 357 -21 108 93 182 -21 b 606 233 532 -21 606 93 l 606 268 l 565 268 l 565 238 b 357 18 565 119 513 18 b 149 238 201 18 149 119 l 149 396 z m 149 442 l 149 1003 l 108 1003 l 108 482 l 29 482 l 29 442 z m 200 396 l 200 243 b 357 68 200 151 238 68 b 515 243 476 68 515 151 l 515 268 l 475 268 l 475 249 b 357 107 475 168 442 107 b 240 249 274 107 240 168 l 240 356 l 483 356 l 483 396 z m 483 442 l 483 482 l 240 482 l 240 593 l 589 593 l 589 632 l 200 632 l 200 442 z m 589 679 l 589 718 l 240 718 l 240 1003 l 200 1003 l 200 679 z "},"Ĳ":{"ha":871,"x_min":0,"x_max":0,"o":"m 210 0 l 210 1003 l 169 1003 l 169 0 z m 118 0 l 118 1003 l 78 1003 l 78 0 z m 756 1003 l 756 238 b 554 18 756 119 699 18 b 351 238 410 18 351 119 l 351 268 l 313 268 l 313 233 b 554 -21 313 93 386 -21 b 796 233 722 -21 796 93 l 796 1003 z m 664 1003 l 664 249 b 554 107 664 168 631 107 b 443 249 476 107 443 168 l 443 268 l 401 268 l 401 243 b 554 68 401 151 446 68 b 704 243 663 68 704 151 l 704 1003 z "},"Ĵ":{"ha":583,"x_min":0,"x_max":0,"o":"m 468 1003 l 468 238 b 267 18 468 119 411 18 b 64 238 122 18 64 119 l 64 268 l 25 268 l 25 233 b 267 -21 25 93 99 -21 b 508 233 435 -21 508 93 l 508 1003 z m 376 1003 l 376 249 b 267 107 376 168 343 107 b 156 249 189 107 156 168 l 156 268 l 114 268 l 114 243 b 267 68 114 151 158 68 b 417 243 375 68 417 151 l 417 1003 z m 621 1090 l 510 1243 l 374 1243 l 263 1090 l 303 1090 l 394 1217 l 489 1217 l 581 1090 z m 542 1090 l 474 1183 l 410 1183 l 342 1090 l 382 1090 l 442 1175 l 501 1090 z "},"Ś":{"ha":599,"x_min":0,"x_max":0,"o":"m 504 238 b 296 18 504 119 451 18 b 88 238 140 18 88 119 l 88 268 l 47 268 l 47 233 b 296 -21 47 93 121 -21 b 544 233 471 -21 544 93 l 544 303 b 394 501 544 407 485 453 l 311 546 b 182 703 185 613 182 629 l 182 754 b 297 896 182 835 215 896 b 414 754 381 896 414 835 l 414 653 l 454 653 l 454 760 b 297 935 454 851 415 935 b 142 760 179 935 142 851 l 142 690 b 269 519 142 607 153 581 l 356 474 b 504 289 460 418 504 383 z m 413 249 b 296 107 413 168 379 107 b 178 249 211 107 178 168 l 178 268 l 138 268 l 138 243 b 296 68 138 151 176 68 b 453 243 415 68 453 151 l 453 271 b 307 440 453 351 428 374 l 217 489 b 90 675 117 543 90 576 l 90 765 b 297 985 90 883 143 985 b 504 765 451 985 504 883 l 504 653 l 544 653 l 544 769 b 297 1024 544 910 471 1024 b 50 769 124 1024 50 910 l 50 663 b 175 463 50 556 89 510 l 267 413 b 413 256 401 339 413 329 z m 275 1090 l 374 1243 l 333 1243 l 236 1090 z m 356 1090 l 485 1243 l 443 1243 l 315 1090 z "},"Ṡ":{"ha":599,"x_min":0,"x_max":0,"o":"m 504 238 b 296 18 504 119 451 18 b 88 238 140 18 88 119 l 88 268 l 47 268 l 47 233 b 296 -21 47 93 121 -21 b 544 233 471 -21 544 93 l 544 303 b 394 501 544 407 485 453 l 311 546 b 182 703 185 613 182 629 l 182 754 b 297 896 182 835 215 896 b 414 754 381 896 414 835 l 414 653 l 454 653 l 454 760 b 297 935 454 851 415 935 b 142 760 179 935 142 851 l 142 690 b 269 519 142 607 153 581 l 356 474 b 504 289 460 418 504 383 z m 413 249 b 296 107 413 168 379 107 b 178 249 211 107 178 168 l 178 268 l 138 268 l 138 243 b 296 68 138 151 176 68 b 453 243 415 68 453 151 l 453 271 b 307 440 453 351 428 374 l 217 489 b 90 675 117 543 90 576 l 90 765 b 297 985 90 883 143 985 b 504 765 451 985 504 883 l 504 653 l 544 653 l 544 769 b 297 1024 544 910 471 1024 b 50 769 124 1024 50 910 l 50 663 b 175 463 50 556 89 510 l 267 413 b 413 256 401 339 413 329 z m 363 1090 l 363 1215 l 322 1215 l 322 1090 z m 271 1090 l 271 1215 l 231 1215 l 231 1090 z "},"Ŝ":{"ha":599,"x_min":0,"x_max":0,"o":""},"ś":{"ha":599,"x_min":0,"x_max":0,"o":"m 504 238 b 296 18 504 119 451 18 b 88 238 140 18 88 119 l 88 268 l 47 268 l 47 233 b 296 -21 47 93 121 -21 b 544 233 471 -21 544 93 l 544 303 b 394 501 544 407 485 453 l 311 546 b 182 703 185 613 182 629 l 182 754 b 297 896 182 835 215 896 b 414 754 381 896 414 835 l 414 653 l 454 653 l 454 760 b 297 935 454 851 415 935 b 142 760 179 935 142 851 l 142 690 b 269 519 142 607 153 581 l 356 474 b 504 289 460 418 504 383 z m 413 249 b 296 107 413 168 379 107 b 178 249 211 107 178 168 l 178 268 l 138 268 l 138 243 b 296 68 138 151 176 68 b 453 243 415 68 453 151 l 453 271 b 307 440 453 351 428 374 l 217 489 b 90 675 117 543 90 576 l 90 765 b 297 985 90 883 143 985 b 504 765 451 985 504 883 l 504 653 l 544 653 l 544 769 b 297 1024 544 910 471 1024 b 50 769 124 1024 50 910 l 50 663 b 175 463 50 556 89 510 l 267 413 b 413 256 401 339 413 329 z m 275 1090 l 374 1243 l 333 1243 l 236 1090 z m 356 1090 l 485 1243 l 443 1243 l 315 1090 z "},"ṡ":{"ha":599,"x_min":0,"x_max":0,"o":""},"ŝ":{"ha":599,"x_min":0,"x_max":0,"o":"m 504 238 b 296 18 504 119 451 18 b 88 238 140 18 88 119 l 88 268 l 47 268 l 47 233 b 296 -21 47 93 121 -21 b 544 233 471 -21 544 93 l 544 303 b 394 501 544 407 485 453 l 311 546 b 182 703 185 613 182 629 l 182 754 b 297 896 182 835 215 896 b 414 754 381 896 414 835 l 414 653 l 454 653 l 454 760 b 297 935 454 851 415 935 b 142 760 179 935 142 851 l 142 690 b 269 519 142 607 153 581 l 356 474 b 504 289 460 418 504 383 z m 413 249 b 296 107 413 168 379 107 b 178 249 211 107 178 168 l 178 268 l 138 268 l 138 243 b 296 68 138 151 176 68 b 453 243 415 68 453 151 l 453 271 b 307 440 453 351 428 374 l 217 489 b 90 675 117 543 90 576 l 90 765 b 297 985 90 883 143 985 b 504 765 451 985 504 883 l 504 653 l 544 653 l 544 769 b 297 1024 544 910 471 1024 b 50 769 124 1024 50 910 l 50 663 b 175 463 50 556 89 510 l 267 413 b 413 256 401 339 413 329 z m 475 1090 l 364 1243 l 228 1243 l 117 1090 l 157 1090 l 249 1217 l 343 1217 l 435 1090 z m 396 1090 l 328 1183 l 264 1183 l 196 1090 l 236 1090 l 296 1175 l 356 1090 z "},"Ș":{"ha":599,"x_min":0,"x_max":0,"o":"m 504 238 b 296 18 504 119 451 18 b 88 238 140 18 88 119 l 88 268 l 47 268 l 47 233 b 296 -21 47 93 121 -21 b 544 233 471 -21 544 93 l 544 303 b 394 501 544 407 485 453 l 311 546 b 182 703 185 613 182 629 l 182 754 b 297 896 182 835 215 896 b 414 754 381 896 414 835 l 414 653 l 454 653 l 454 760 b 297 935 454 851 415 935 b 142 760 179 935 142 851 l 142 690 b 269 519 142 607 153 581 l 356 474 b 504 289 460 418 504 383 z m 413 249 b 296 107 413 168 379 107 b 178 249 211 107 178 168 l 178 268 l 138 268 l 138 243 b 296 68 138 151 176 68 b 453 243 415 68 453 151 l 453 271 b 307 440 453 351 428 374 l 217 489 b 90 675 117 543 90 576 l 90 765 b 297 985 90 883 143 985 b 504 765 451 985 504 883 l 504 653 l 544 653 l 544 769 b 297 1024 544 910 471 1024 b 50 769 124 1024 50 910 l 50 663 b 175 463 50 556 89 510 l 267 413 b 413 256 401 339 413 329 z m 243 -314 l 300 -69 l 260 -69 l 206 -314 z m 311 -314 l 386 -69 l 346 -69 l 274 -314 z "},"ș":{"ha":599,"x_min":0,"x_max":0,"o":"m 504 238 b 296 18 504 119 451 18 b 88 238 140 18 88 119 l 88 268 l 47 268 l 47 233 b 296 -21 47 93 121 -21 b 544 233 471 -21 544 93 l 544 303 b 394 501 544 407 485 453 l 311 546 b 182 703 185 613 182 629 l 182 754 b 297 896 182 835 215 896 b 414 754 381 896 414 835 l 414 653 l 454 653 l 454 760 b 297 935 454 851 415 935 b 142 760 179 935 142 851 l 142 690 b 269 519 142 607 153 581 l 356 474 b 504 289 460 418 504 383 z m 413 249 b 296 107 413 168 379 107 b 178 249 211 107 178 168 l 178 268 l 138 268 l 138 243 b 296 68 138 151 176 68 b 453 243 415 68 453 151 l 453 271 b 307 440 453 351 428 374 l 217 489 b 90 675 117 543 90 576 l 90 765 b 297 985 90 883 143 985 b 504 765 451 985 504 883 l 504 653 l 544 653 l 544 769 b 297 1024 544 910 471 1024 b 50 769 124 1024 50 910 l 50 663 b 175 463 50 556 89 510 l 267 413 b 413 256 401 339 413 329 z m 243 -314 l 300 -69 l 260 -69 l 206 -314 z m 311 -314 l 386 -69 l 346 -69 l 274 -314 z "},"Ĩ":{"ha":425,"x_min":0,"x_max":0,"o":""},"Ũ":{"ha":647,"x_min":0,"x_max":0,"o":"m 324 -21 b 572 233 499 -21 572 93 l 572 1003 l 532 1003 l 532 238 b 324 18 532 119 479 18 b 115 238 168 18 115 119 l 115 1003 l 75 1003 l 75 233 b 324 -21 75 93 149 -21 z m 324 68 b 481 243 443 68 481 151 l 481 1003 l 440 1003 l 440 249 b 324 107 440 168 407 107 b 207 249 240 107 207 168 l 207 1003 l 167 1003 l 167 243 b 324 68 167 151 204 68 z m 390 1076 b 518 1169 450 1076 496 1122 l 490 1186 b 390 1108 471 1144 439 1108 b 257 1150 343 1108 301 1150 b 181 1094 226 1150 197 1132 l 208 1076 b 257 1118 224 1108 238 1118 b 390 1076 300 1118 342 1076 z m 257 1219 b 129 1126 197 1219 151 1174 l 157 1110 b 257 1188 176 1151 208 1188 b 390 1146 304 1188 346 1146 b 467 1201 421 1146 450 1164 l 439 1219 b 390 1178 424 1188 410 1178 b 257 1219 347 1178 306 1219 z "},"ĩ":{"ha":425,"x_min":0,"x_max":0,"o":""},"ů":{"ha":650,"x_min":0,"x_max":0,"o":""},"ũ":{"ha":650,"x_min":0,"x_max":0,"o":"m 167 1003 l 167 275 b 197 118 167 208 174 156 b 293 65 219 82 247 65 b 481 342 440 65 481 208 l 481 1003 l 440 1003 l 440 336 b 300 104 440 214 407 104 b 226 142 267 104 242 115 b 207 279 207 175 207 222 l 207 1003 z m 75 1003 l 75 265 b 119 58 75 175 86 108 b 274 -21 150 13 199 -21 b 447 67 375 -21 431 40 l 447 0 l 481 0 l 481 174 b 282 18 481 174 439 18 b 153 82 221 18 181 39 b 115 269 124 128 115 190 l 115 1003 z m 532 1003 l 532 0 l 572 0 l 572 1003 z m 389 1076 b 517 1169 449 1076 494 1122 l 489 1186 b 389 1108 469 1144 438 1108 b 256 1150 342 1108 300 1150 b 179 1094 225 1150 196 1132 l 207 1076 b 256 1118 222 1108 236 1118 b 389 1076 299 1118 340 1076 z m 256 1219 b 128 1126 196 1219 150 1174 l 156 1110 b 256 1188 175 1151 207 1188 b 389 1146 303 1188 344 1146 b 465 1201 419 1146 449 1164 l 438 1219 b 389 1178 422 1188 408 1178 b 256 1219 346 1178 304 1219 z "},"^":{"ha":686,"x_min":0,"x_max":0,"o":"m 397 954 l 626 565 l 665 565 l 418 983 l 268 983 l 21 565 l 60 565 l 289 954 z m 360 915 l 326 915 l 118 565 l 157 565 l 343 878 l 529 565 l 568 565 z "},"‛":{"ha":257,"x_min":0,"x_max":0,"o":"m 218 711 l 151 1003 l 111 1003 l 181 711 z m 150 711 l 65 1003 l 25 1003 l 113 711 z "},"Ę":{"ha":503,"x_min":0,"x_max":0,"o":"m 435 -221 b 361 -237 435 -221 407 -237 b 231 -128 294 -237 231 -199 b 364 39 231 -85 251 -26 l 118 39 l 118 964 l 450 964 l 450 1003 l 78 1003 l 78 0 l 271 0 b 199 -136 224 -35 199 -86 b 351 -269 199 -222 275 -269 b 435 -249 381 -269 410 -262 z m 429 476 l 429 515 l 210 515 l 210 878 l 450 878 l 450 917 l 169 917 l 169 476 z m 450 86 l 450 125 l 210 125 l 210 390 l 429 390 l 429 429 l 169 429 l 169 86 z m 435 -153 b 385 -162 435 -153 417 -162 b 306 -107 343 -162 306 -146 b 383 0 306 -79 321 -39 l 450 0 l 450 39 l 403 39 b 274 -117 297 -24 274 -78 b 375 -192 274 -168 324 -192 b 435 -181 404 -192 435 -181 z "},"Ą":{"ha":617,"x_min":0,"x_max":0,"o":"m 308 985 b 456 811 426 985 447 903 l 532 8 b 432 -117 450 -28 432 -75 b 533 -192 432 -168 482 -192 b 593 -181 563 -192 593 -181 l 593 -153 b 543 -162 593 -153 575 -162 b 464 -107 501 -162 464 -146 b 574 0 464 -64 488 -22 l 496 819 b 308 1024 486 915 463 1024 b 121 819 154 1024 131 915 l 43 0 l 83 0 l 161 811 b 308 985 169 903 190 985 z m 485 0 l 457 285 l 160 285 l 132 0 l 172 0 l 196 246 l 421 246 l 443 8 b 357 -136 385 -29 357 -83 b 510 -269 357 -222 433 -269 b 593 -249 539 -269 568 -262 l 593 -221 b 519 -237 593 -221 565 -237 b 389 -128 453 -237 389 -199 b 485 0 389 -79 414 -29 z m 165 332 l 451 332 l 407 801 b 308 935 399 886 381 935 b 210 801 236 935 218 886 z m 249 804 b 308 896 256 878 271 896 b 368 804 346 896 361 878 l 408 371 l 208 371 z "},"Į":{"ha":288,"x_min":0,"x_max":0,"o":"m 253 -221 b 179 -237 253 -221 225 -237 b 49 -128 113 -237 49 -199 b 118 -6 49 -86 71 -40 l 118 1003 l 78 1003 l 78 -8 b 17 -136 38 -43 17 -90 b 169 -269 17 -222 93 -269 b 253 -249 199 -269 228 -262 z m 253 -153 b 203 -162 253 -153 235 -162 b 124 -107 161 -162 124 -146 b 210 0 124 -81 142 -31 l 210 1003 l 169 1003 l 169 0 b 92 -117 114 -36 92 -81 b 193 -192 92 -168 142 -192 b 253 -181 222 -192 253 -181 z "},"Ų":{"ha":647,"x_min":0,"x_max":0,"o":"m 440 1003 l 440 249 b 324 107 440 168 407 107 b 207 249 240 107 207 168 l 207 1003 l 167 1003 l 167 243 b 324 68 167 151 204 68 b 481 243 443 68 481 151 l 481 1003 z m 75 1003 l 75 233 b 275 -18 75 103 138 1 b 224 -136 242 -51 224 -94 b 376 -269 224 -222 300 -269 b 460 -249 406 -269 435 -262 l 460 -221 b 386 -237 460 -221 432 -237 b 256 -128 319 -237 256 -199 b 356 19 256 -79 283 -32 b 324 18 356 19 347 18 b 115 238 168 18 115 119 l 115 1003 z m 532 1003 l 532 238 b 401 28 532 132 482 57 b 299 -117 317 -37 299 -79 b 400 -192 299 -168 349 -192 b 460 -181 429 -192 460 -181 l 460 -153 b 410 -162 460 -153 442 -162 b 331 -107 368 -162 331 -146 b 388 -15 331 -83 344 -50 b 572 233 515 10 572 108 l 572 1003 z "},"ą":{"ha":647,"x_min":0,"x_max":0,"o":"m 481 332 l 481 760 b 324 935 481 851 443 935 b 167 760 204 935 167 851 l 167 332 z m 207 754 b 324 896 207 835 240 896 b 440 754 407 896 440 835 l 440 371 l 207 371 z m 601 -153 b 551 -162 601 -153 583 -162 b 472 -107 510 -162 472 -146 b 572 0 472 -76 492 -22 l 572 769 b 324 1024 572 910 499 1024 b 75 769 149 1024 75 910 l 75 0 l 115 0 l 115 765 b 324 985 115 883 168 985 b 532 765 479 985 532 883 l 532 3 b 440 -117 457 -31 440 -78 b 542 -192 440 -168 490 -192 b 601 -181 571 -192 601 -181 z m 601 -221 b 528 -237 601 -221 574 -237 b 397 -128 461 -237 397 -199 b 481 0 397 -79 415 -36 l 481 285 l 167 285 l 167 0 l 207 0 l 207 246 l 440 246 l 440 1 b 365 -136 392 -32 365 -85 b 518 -269 365 -222 442 -269 b 601 -249 547 -269 576 -262 z "},"ę":{"ha":625,"x_min":0,"x_max":0,"o":"m 458 -221 b 385 -237 458 -221 431 -237 b 254 -128 318 -237 254 -199 b 357 21 254 -79 285 -28 b 315 18 342 18 328 18 b 107 238 160 18 107 119 l 107 765 b 315 985 107 883 160 985 b 524 765 471 985 524 883 l 524 429 l 158 429 l 158 243 b 315 68 158 151 196 68 b 474 243 435 68 474 151 l 474 268 l 433 268 l 433 249 b 315 107 433 168 400 107 b 199 249 232 107 199 168 l 199 390 l 564 390 l 564 769 b 315 1024 564 910 490 1024 b 67 769 140 1024 67 910 l 67 233 b 274 -18 67 104 128 -1 b 222 -136 240 -51 222 -94 b 375 -269 222 -222 299 -269 b 458 -249 404 -269 433 -262 z m 472 476 l 472 760 b 315 935 472 851 435 935 b 158 760 196 935 158 851 l 158 476 z m 199 754 b 315 896 199 835 232 896 b 432 754 399 896 432 835 l 432 515 l 199 515 z m 297 -117 b 399 -192 297 -168 347 -192 b 458 -181 428 -192 458 -181 l 458 -153 b 408 -162 458 -153 440 -162 b 329 -107 367 -162 329 -146 b 389 -12 329 -82 344 -49 b 564 233 511 14 564 114 l 564 268 l 524 268 l 524 238 b 413 35 524 128 483 68 b 297 -117 319 -32 297 -81 z "},"ǫ":{"ha":631,"x_min":0,"x_max":0,"o":"m 315 68 b 472 243 435 68 472 151 l 472 760 b 315 935 472 851 435 935 b 158 760 196 935 158 851 l 158 243 b 315 68 158 151 196 68 z m 199 754 b 315 896 199 835 232 896 b 432 754 399 896 432 835 l 432 249 b 315 107 432 168 399 107 b 199 249 232 107 199 168 z m 451 -153 b 401 -162 451 -153 433 -162 b 322 -107 360 -162 322 -146 b 379 -15 322 -83 336 -50 b 564 233 507 10 564 108 l 564 769 b 315 1024 564 910 490 1024 b 67 769 140 1024 67 910 l 67 233 b 267 -18 67 103 129 1 b 215 -136 233 -51 215 -94 b 368 -269 215 -222 292 -269 b 451 -249 397 -269 426 -262 l 451 -221 b 378 -237 451 -221 424 -237 b 247 -128 311 -237 247 -199 b 347 19 247 -79 275 -32 b 315 18 347 19 339 18 b 107 238 160 18 107 119 l 107 765 b 315 985 107 883 160 985 b 524 765 471 985 524 883 l 524 238 b 393 28 524 132 474 57 b 290 -117 308 -37 290 -79 b 392 -192 290 -168 340 -192 b 451 -181 421 -192 451 -181 z "},"ų":{"ha":650,"x_min":0,"x_max":0,"o":"m 167 1003 l 167 275 b 197 118 167 208 174 156 b 293 65 219 82 247 65 b 481 342 440 65 481 208 l 481 1003 l 440 1003 l 440 336 b 300 104 440 214 407 104 b 228 142 267 104 243 115 b 207 279 208 175 207 222 l 207 1003 z m 614 -221 b 540 -237 614 -221 586 -237 b 410 -128 474 -237 410 -199 b 481 -6 410 -87 433 -40 l 481 172 b 282 18 476 158 431 18 b 153 82 221 18 181 39 b 115 269 124 128 115 190 l 115 1003 l 75 1003 l 75 265 b 119 58 75 175 86 108 b 274 -21 150 13 199 -21 b 447 67 375 -21 431 40 l 447 -1 b 378 -136 401 -36 378 -87 b 531 -269 378 -222 454 -269 b 614 -249 560 -269 589 -262 z m 614 -153 b 564 -162 614 -153 596 -162 b 485 -107 522 -162 485 -146 b 572 0 485 -76 504 -28 l 572 1003 l 532 1003 l 532 4 b 453 -117 476 -35 453 -81 b 554 -192 453 -168 503 -192 b 614 -181 583 -192 614 -181 z "},"į":{"ha":288,"x_min":0,"x_max":0,"o":"m 253 -221 b 179 -237 253 -221 225 -237 b 49 -128 113 -237 49 -199 b 118 -6 49 -86 71 -40 l 118 1003 l 78 1003 l 78 -8 b 17 -136 38 -43 17 -90 b 169 -269 17 -222 93 -269 b 253 -249 199 -269 228 -262 z m 253 -153 b 203 -162 253 -153 235 -162 b 124 -107 161 -162 124 -146 b 210 0 124 -81 142 -31 l 210 1003 l 169 1003 l 169 0 b 92 -117 114 -36 92 -81 b 193 -192 92 -168 142 -192 b 253 -181 222 -192 253 -181 z "},"Ǫ":{"ha":631,"x_min":0,"x_max":0,"o":"m 315 68 b 472 243 435 68 472 151 l 472 760 b 315 935 472 851 435 935 b 158 760 196 935 158 851 l 158 243 b 315 68 158 151 196 68 z m 199 754 b 315 896 199 835 232 896 b 432 754 399 896 432 835 l 432 249 b 315 107 432 168 399 107 b 199 249 232 107 199 168 z m 451 -153 b 401 -162 451 -153 433 -162 b 322 -107 360 -162 322 -146 b 379 -15 322 -83 336 -50 b 564 233 507 10 564 108 l 564 769 b 315 1024 564 910 490 1024 b 67 769 140 1024 67 910 l 67 233 b 267 -18 67 103 129 1 b 215 -136 233 -51 215 -94 b 368 -269 215 -222 292 -269 b 451 -249 397 -269 426 -262 l 451 -221 b 378 -237 451 -221 424 -237 b 247 -128 311 -237 247 -199 b 347 19 247 -79 275 -32 b 315 18 347 19 339 18 b 107 238 160 18 107 119 l 107 765 b 315 985 107 883 160 985 b 524 765 471 985 524 883 l 524 238 b 393 28 524 132 474 57 b 290 -117 308 -37 290 -79 b 392 -192 290 -168 340 -192 b 451 -181 421 -192 451 -181 z "},"ş":{"ha":599,"x_min":0,"x_max":0,"o":"m 328 -322 b 444 -182 397 -322 444 -286 b 328 -56 444 -71 397 -56 l 319 -56 l 319 -19 b 544 233 478 -10 544 99 l 544 303 b 394 501 544 407 485 453 l 311 546 b 182 703 185 613 182 629 l 182 754 b 297 896 182 835 215 896 b 414 754 381 896 414 835 l 414 653 l 454 653 l 454 760 b 297 935 454 851 415 935 b 142 760 179 935 142 851 l 142 690 b 269 519 142 607 153 581 l 356 474 b 504 289 460 418 504 383 l 504 238 b 294 18 504 119 451 18 l 294 -81 l 321 -81 b 417 -185 386 -81 417 -93 b 321 -297 417 -269 383 -297 l 281 -297 b 171 -196 192 -297 171 -250 l 171 -189 l 147 -189 l 147 -196 b 285 -322 147 -264 174 -322 z m 138 268 l 138 243 b 296 68 138 151 176 68 b 453 243 415 68 453 151 l 453 271 b 307 440 453 351 428 374 l 217 489 b 90 675 117 543 90 576 l 90 765 b 297 985 90 883 143 985 b 504 765 451 985 504 883 l 504 653 l 544 653 l 544 769 b 297 1024 544 910 471 1024 b 50 769 124 1024 50 910 l 50 663 b 175 463 50 556 89 510 l 267 413 b 413 256 401 339 413 329 l 413 249 b 296 107 413 168 379 107 b 178 249 211 107 178 168 l 178 268 z m 47 268 l 47 233 b 238 -15 47 103 110 6 l 238 -139 l 308 -139 b 356 -186 350 -139 356 -158 l 356 -194 b 307 -239 356 -219 347 -239 l 271 -239 b 222 -194 231 -239 222 -219 l 222 -189 l 199 -189 l 199 -194 b 275 -264 199 -233 214 -264 l 313 -264 b 383 -193 363 -264 383 -239 l 383 -183 b 314 -114 383 -132 365 -114 l 263 -114 l 263 19 b 88 238 138 33 88 122 l 88 268 z "},"Ş":{"ha":599,"x_min":0,"x_max":0,"o":"m 328 -322 b 444 -182 397 -322 444 -286 b 328 -56 444 -71 397 -56 l 319 -56 l 319 -19 b 544 233 478 -10 544 99 l 544 303 b 394 501 544 407 485 453 l 311 546 b 182 703 185 613 182 629 l 182 754 b 297 896 182 835 215 896 b 414 754 381 896 414 835 l 414 653 l 454 653 l 454 760 b 297 935 454 851 415 935 b 142 760 179 935 142 851 l 142 690 b 269 519 142 607 153 581 l 356 474 b 504 289 460 418 504 383 l 504 238 b 294 18 504 119 451 18 l 294 -81 l 321 -81 b 417 -185 386 -81 417 -93 b 321 -297 417 -269 383 -297 l 281 -297 b 171 -196 192 -297 171 -250 l 171 -189 l 147 -189 l 147 -196 b 285 -322 147 -264 174 -322 z m 138 268 l 138 243 b 296 68 138 151 176 68 b 453 243 415 68 453 151 l 453 271 b 307 440 453 351 428 374 l 217 489 b 90 675 117 543 90 576 l 90 765 b 297 985 90 883 143 985 b 504 765 451 985 504 883 l 504 653 l 544 653 l 544 769 b 297 1024 544 910 471 1024 b 50 769 124 1024 50 910 l 50 663 b 175 463 50 556 89 510 l 267 413 b 413 256 401 339 413 329 l 413 249 b 296 107 413 168 379 107 b 178 249 211 107 178 168 l 178 268 z m 47 268 l 47 233 b 238 -15 47 103 110 6 l 238 -139 l 308 -139 b 356 -186 350 -139 356 -158 l 356 -194 b 307 -239 356 -219 347 -239 l 271 -239 b 222 -194 231 -239 222 -219 l 222 -189 l 199 -189 l 199 -194 b 275 -264 199 -233 214 -264 l 313 -264 b 383 -193 363 -264 383 -239 l 383 -183 b 314 -114 383 -132 365 -114 l 263 -114 l 263 19 b 88 238 138 33 88 122 l 88 268 z "},"Ț":{"ha":493,"x_min":0,"x_max":0,"o":"m 297 -322 b 414 -182 367 -322 414 -286 b 297 -56 414 -71 367 -56 l 297 0 l 313 0 l 313 878 l 465 878 l 465 917 l 272 917 l 272 -81 l 290 -81 b 386 -185 356 -81 386 -93 b 290 -297 386 -269 353 -297 l 250 -297 b 140 -196 161 -297 140 -250 l 140 -189 l 117 -189 l 117 -196 b 254 -322 117 -264 143 -322 z m 282 -264 b 353 -193 332 -264 353 -239 l 353 -183 b 283 -114 353 -132 335 -114 l 221 -114 l 221 917 l 28 917 l 28 878 l 181 878 l 181 0 l 196 0 l 196 -139 l 278 -139 b 325 -186 319 -139 325 -158 l 325 -194 b 276 -239 325 -219 317 -239 l 240 -239 b 192 -194 200 -239 192 -219 l 192 -189 l 168 -189 l 168 -194 b 244 -264 168 -233 183 -264 z m 465 964 l 465 1003 l 28 1003 l 28 964 z "},"ț":{"ha":597,"x_min":0,"x_max":0,"o":"m 115 1003 l 75 1003 l 75 233 b 265 -15 75 103 138 6 l 265 -139 l 336 -139 b 383 -186 378 -139 383 -158 l 383 -194 b 335 -239 383 -219 375 -239 l 299 -239 b 250 -194 258 -239 250 -219 l 250 -189 l 226 -189 l 226 -194 b 303 -264 226 -233 242 -264 l 340 -264 b 411 -193 390 -264 411 -239 l 411 -183 b 342 -114 411 -132 393 -114 l 290 -114 l 290 19 b 115 238 165 33 115 122 z m 167 632 l 167 243 b 324 68 167 151 204 68 b 482 243 443 68 482 151 l 482 268 l 442 268 l 442 249 b 324 107 442 168 408 107 b 207 249 240 107 207 168 l 207 593 l 556 593 l 556 632 z m 356 -322 b 472 -182 425 -322 472 -286 b 356 -56 472 -71 425 -56 l 347 -56 l 347 -19 b 572 233 506 -10 572 99 l 572 268 l 532 268 l 532 238 b 322 18 532 119 479 18 l 322 -81 l 349 -81 b 444 -185 414 -81 444 -93 b 349 -297 444 -269 411 -297 l 308 -297 b 199 -196 219 -297 199 -250 l 199 -189 l 175 -189 l 175 -196 b 313 -322 175 -264 201 -322 z m 556 679 l 556 718 l 207 718 l 207 1003 l 167 1003 l 167 679 z "},"ẃ":{"ha":872,"x_min":0,"x_max":0,"o":""},"ŵ":{"ha":872,"x_min":0,"x_max":0,"o":"m 372 214 b 306 107 372 132 344 107 b 250 196 275 107 257 128 l 174 1003 l 135 1003 l 213 192 b 307 68 219 115 240 68 b 413 222 383 68 413 132 l 413 1003 l 372 1003 z m 500 1003 l 460 1003 l 460 222 b 565 68 460 132 489 68 b 660 192 632 68 653 115 l 738 1003 l 699 1003 l 622 196 b 567 107 615 128 597 107 b 500 214 528 107 500 132 z m 436 40 b 564 -21 464 -7 506 -21 b 751 182 713 -21 742 86 l 829 1003 l 790 1003 l 713 188 b 564 18 704 99 676 18 b 436 124 490 18 458 60 b 308 18 414 60 382 18 b 160 188 196 18 168 99 l 82 1003 l 43 1003 l 121 182 b 308 -21 131 86 160 -21 b 436 40 367 -21 408 -7 z m 615 1090 l 504 1243 l 368 1243 l 257 1090 l 297 1090 l 389 1217 l 483 1217 l 575 1090 z m 536 1090 l 468 1183 l 404 1183 l 336 1090 l 376 1090 l 436 1175 l 496 1090 z "},"ẅ":{"ha":872,"x_min":0,"x_max":0,"o":""},"ẁ":{"ha":872,"x_min":0,"x_max":0,"o":"m 372 214 b 306 107 372 132 344 107 b 250 196 275 107 257 128 l 174 1003 l 135 1003 l 213 192 b 307 68 219 115 240 68 b 413 222 383 68 413 132 l 413 1003 l 372 1003 z m 500 1003 l 460 1003 l 460 222 b 565 68 460 132 489 68 b 660 192 632 68 653 115 l 738 1003 l 699 1003 l 622 196 b 567 107 615 128 597 107 b 500 214 528 107 500 132 z m 436 40 b 564 -21 464 -7 506 -21 b 751 182 713 -21 742 86 l 829 1003 l 790 1003 l 713 188 b 564 18 704 99 676 18 b 436 124 490 18 458 60 b 308 18 414 60 382 18 b 160 188 196 18 168 99 l 82 1003 l 43 1003 l 121 182 b 308 -21 131 86 160 -21 b 436 40 367 -21 408 -7 z m 496 1090 l 399 1243 l 358 1243 l 457 1090 z m 417 1090 l 289 1243 l 247 1243 l 376 1090 z "},"ǿ":{"ha":631,"x_min":0,"x_max":0,"o":""},"Ǿ":{"ha":631,"x_min":0,"x_max":0,"o":"m 410 911 b 315 938 381 931 347 938 b 156 760 196 938 156 851 l 156 243 b 199 111 156 194 167 143 z m 196 754 b 315 899 196 838 229 899 b 372 886 339 899 357 894 l 197 221 b 196 249 197 221 196 236 z m 124 -56 l 154 -56 l 183 54 b 107 238 121 100 107 175 l 107 765 b 315 985 107 883 160 985 b 424 963 344 985 378 983 l 449 1058 l 418 1058 l 406 1011 b 315 1024 379 1018 349 1024 b 67 769 140 1024 67 910 l 67 233 b 147 33 67 153 90 81 z m 507 1058 l 476 1058 l 447 949 b 524 765 510 903 524 828 l 524 238 b 315 18 524 119 471 18 b 207 40 286 18 253 19 l 182 -56 l 213 -56 l 225 -8 b 315 -21 251 -17 282 -21 b 564 233 490 -21 564 93 l 564 769 b 483 969 564 850 540 922 z m 221 92 b 315 65 250 72 283 65 b 475 243 435 65 475 151 l 475 760 b 432 892 475 808 464 860 z m 435 249 b 315 104 435 165 401 104 b 258 117 292 104 274 108 l 433 782 b 435 754 433 782 435 767 z m 294 1090 l 393 1243 l 353 1243 l 256 1090 z m 375 1090 l 504 1243 l 463 1243 l 335 1090 z "},"ť":{"ha":597,"x_min":0,"x_max":0,"o":""},"ľ":{"ha":503,"x_min":0,"x_max":0,"o":"m 422 0 l 422 39 l 118 39 l 118 1003 l 78 1003 l 78 0 z m 422 86 l 422 125 l 210 125 l 210 1003 l 169 1003 l 169 86 z m 325 711 l 394 1003 l 354 1003 l 288 711 z m 393 711 l 481 1003 l 440 1003 l 356 711 z "},"{":{"ha":406,"x_min":0,"x_max":0,"o":"m 196 501 b 253 618 246 526 253 564 l 253 967 b 324 1047 253 1021 261 1047 l 371 1047 l 371 1085 l 303 1085 b 213 979 232 1085 213 1051 l 213 625 b 129 501 213 569 196 532 b 213 378 196 471 213 433 l 213 24 b 303 -82 213 -49 232 -82 l 371 -82 l 371 -44 l 324 -44 b 253 36 261 -44 253 -18 l 253 385 b 196 501 253 439 246 476 z m 21 486 l 21 447 l 58 447 b 128 361 99 447 128 424 l 128 -4 b 267 -151 128 -114 176 -151 l 371 -151 l 371 -114 l 288 -114 b 168 8 206 -114 168 -83 l 168 369 b 58 486 168 429 129 486 z m 58 517 b 168 633 129 517 168 574 l 168 994 b 288 1117 168 1086 206 1117 l 371 1117 l 371 1154 l 267 1154 b 128 1007 176 1154 128 1117 l 128 642 b 58 556 128 579 99 556 l 21 556 l 21 517 z "},"}":{"ha":406,"x_min":0,"x_max":0,"o":"m 210 501 b 153 385 160 476 153 439 l 153 36 b 82 -44 153 -18 144 -44 l 35 -44 l 35 -82 l 103 -82 b 193 24 174 -82 193 -49 l 193 378 b 276 501 193 433 210 471 b 193 625 210 532 193 569 l 193 979 b 103 1085 193 1051 174 1085 l 35 1085 l 35 1047 l 82 1047 b 153 967 144 1047 153 1021 l 153 618 b 210 501 153 564 160 526 z m 347 486 b 238 369 276 486 238 429 l 238 8 b 118 -114 238 -83 200 -114 l 35 -114 l 35 -151 l 139 -151 b 278 -4 229 -151 278 -114 l 278 361 b 347 447 278 424 307 447 l 385 447 l 385 486 z m 385 517 l 385 556 l 347 556 b 278 642 307 556 278 579 l 278 1007 b 139 1154 278 1117 229 1154 l 35 1154 l 35 1117 l 118 1117 b 238 994 200 1117 238 1086 l 238 633 b 347 517 238 574 276 517 z "},"≤":{"ha":503,"x_min":0,"x_max":0,"o":"m 453 0 l 453 36 l 50 36 l 50 0 z m 453 72 l 453 108 l 50 108 l 50 72 z m 390 881 l 363 901 l 29 535 l 29 521 l 363 154 l 390 175 l 69 528 z m 429 206 l 457 226 l 182 528 l 457 829 l 429 850 l 135 528 z "},"≥":{"ha":503,"x_min":0,"x_max":0,"o":"m 453 0 l 453 36 l 50 36 l 50 0 z m 453 72 l 453 108 l 50 108 l 50 72 z m 433 528 l 113 175 l 140 154 l 474 521 l 474 535 l 140 901 l 113 881 z m 368 528 l 74 850 l 46 829 l 321 528 l 46 226 l 74 206 z "},"¼":{"ha":874,"x_min":0,"x_max":0,"o":"m 247 458 l 247 1003 l 168 1003 l 17 846 l 39 826 l 175 968 l 213 968 l 213 458 z m 174 458 l 174 928 l 58 807 l 81 788 l 139 849 l 139 458 z m 238 0 l 707 1003 l 667 1003 l 197 0 z m 158 0 l 629 1003 l 589 1003 l 118 0 z m 731 0 l 731 157 l 514 157 l 514 213 l 639 544 l 603 544 l 482 224 l 482 125 l 699 125 l 699 0 z m 731 193 l 731 406 l 699 406 l 699 224 l 592 224 l 711 544 l 675 544 l 550 210 l 550 193 z m 844 193 l 844 224 l 793 224 l 793 406 l 761 406 l 761 193 z m 793 0 l 793 125 l 844 125 l 844 157 l 761 157 l 761 0 z "},"½":{"ha":933,"x_min":0,"x_max":0,"o":"m 247 458 l 247 1003 l 168 1003 l 17 846 l 39 826 l 175 968 l 213 968 l 213 458 z m 174 458 l 174 928 l 58 807 l 81 788 l 139 849 l 139 458 z m 238 0 l 707 1003 l 667 1003 l 197 0 z m 158 0 l 629 1003 l 589 1003 l 118 0 z m 889 419 b 719 565 889 504 832 565 b 550 424 606 565 550 504 l 550 367 l 586 367 l 586 415 b 719 531 586 483 628 531 b 853 415 811 531 853 483 l 853 367 b 783 261 853 317 840 292 l 703 218 b 621 114 638 183 621 163 l 621 67 l 889 67 l 889 99 l 656 99 l 656 107 b 738 197 656 144 663 157 l 821 242 b 889 356 871 269 889 301 z m 639 256 b 550 129 590 229 550 200 l 550 0 l 889 0 l 889 32 l 585 32 l 585 121 b 672 236 585 182 615 206 l 751 279 b 822 375 815 314 822 329 l 822 408 b 719 497 822 465 790 497 b 617 408 649 497 617 465 l 617 367 l 650 367 l 650 400 b 719 465 650 447 669 465 b 786 404 769 465 786 440 l 786 385 b 715 297 786 343 785 335 z "},"¾":{"ha":975,"x_min":0,"x_max":0,"o":"m 339 0 l 808 1003 l 768 1003 l 299 0 z m 260 0 l 731 1003 l 690 1003 l 219 0 z m 832 0 l 832 157 l 615 157 l 615 213 l 740 544 l 704 544 l 583 224 l 583 125 l 800 125 l 800 0 z m 832 193 l 832 406 l 800 406 l 800 224 l 693 224 l 813 544 l 776 544 l 651 210 l 651 193 z m 946 193 l 946 224 l 894 224 l 894 406 l 863 406 l 863 193 z m 894 0 l 894 125 l 946 125 l 946 157 l 863 157 l 863 0 z m 79 821 l 79 851 b 214 989 79 940 121 989 b 347 851 307 989 347 940 l 347 826 b 276 722 347 789 343 744 b 347 604 335 703 347 661 b 214 472 347 528 307 472 b 79 614 121 472 79 528 l 79 624 l 43 624 l 43 607 b 214 438 43 503 103 438 b 383 606 325 438 383 501 b 331 722 383 671 358 706 b 383 825 365 739 383 783 l 383 854 b 214 1024 383 961 325 1024 b 43 854 103 1024 43 961 l 43 821 z m 142 674 l 215 674 b 281 601 258 674 281 643 b 214 533 281 558 258 533 b 144 624 160 533 146 569 l 111 624 l 111 618 b 214 503 111 547 143 503 b 311 601 285 503 311 547 b 214 707 311 651 288 707 l 142 707 z m 142 738 l 214 738 b 311 829 288 738 311 794 l 311 847 b 214 958 311 914 285 958 b 111 847 143 958 111 914 l 111 821 l 144 821 l 144 844 b 214 928 144 889 160 928 b 281 844 268 928 281 889 l 281 832 b 217 771 281 797 258 771 l 142 771 z "},"≠":{"ha":764,"x_min":0,"x_max":0,"o":"m 71 610 l 71 571 l 335 571 l 299 432 l 71 432 l 71 393 l 331 393 l 386 610 z m 433 610 l 378 393 l 693 393 l 693 432 l 429 432 l 465 571 l 693 571 l 693 610 z m 397 654 l 463 907 l 421 907 l 365 693 l 71 693 l 71 654 z m 367 349 l 301 97 l 343 97 l 397 310 l 693 310 l 693 349 z m 444 654 l 693 654 l 693 693 l 496 693 l 551 907 l 510 907 z m 319 349 l 71 349 l 71 310 l 267 310 l 213 97 l 254 97 z "},"£":{"ha":683,"x_min":0,"x_max":0,"o":"m 190 440 l 190 772 b 392 985 190 890 251 985 b 593 772 532 985 593 890 l 593 653 l 633 653 l 633 776 b 392 1024 633 917 560 1024 b 150 776 224 1024 150 917 l 150 479 l 43 479 l 43 440 z m 282 479 l 282 761 b 392 896 282 842 315 896 b 503 761 469 896 503 842 l 503 653 l 543 653 l 543 767 b 392 935 543 858 496 935 b 242 767 288 935 242 858 l 242 440 l 553 440 l 553 479 z m 633 86 l 633 125 l 282 125 l 282 361 l 553 361 l 553 400 l 242 400 l 242 86 z m 633 0 l 633 39 l 43 39 l 43 0 z m 190 86 l 190 400 l 43 400 l 43 361 l 150 361 l 150 125 l 43 125 l 43 86 z "},"₨":{"ha":672,"x_min":0,"x_max":0,"o":"m 419 683 l 419 629 b 283 453 419 540 390 488 b 400 276 365 431 386 374 l 440 0 l 481 0 l 439 279 b 353 453 424 381 406 433 b 460 626 419 472 460 536 l 460 644 l 633 644 l 633 683 z m 81 390 l 196 390 b 307 268 267 390 293 356 l 349 0 l 390 0 l 347 272 b 193 431 333 363 303 431 l 81 431 z m 369 724 l 369 813 b 268 917 369 882 338 917 l 81 917 l 81 878 l 258 878 b 328 810 313 878 328 850 l 328 763 l 81 763 l 81 724 z m 81 683 l 81 644 l 328 644 l 328 638 b 196 515 328 550 281 515 l 81 515 l 81 475 l 193 475 b 369 633 311 475 369 536 l 369 683 z m 81 964 l 633 964 l 633 1003 l 81 1003 z m 389 917 b 419 817 408 892 419 861 l 419 724 l 633 724 l 633 763 l 460 763 l 460 821 b 440 878 460 846 453 867 l 633 878 l 633 917 z "},"₣":{"ha":560,"x_min":0,"x_max":0,"o":"m 192 254 l 192 964 l 524 964 l 524 1003 l 151 1003 l 151 294 l 26 294 l 26 254 z m 503 553 l 503 592 l 283 592 l 283 878 l 524 878 l 524 917 l 243 917 l 243 553 z m 414 254 l 414 294 l 283 294 l 283 467 l 503 467 l 503 506 l 243 506 l 243 254 z m 283 0 l 283 176 l 414 176 l 414 217 l 243 217 l 243 0 z m 192 0 l 192 217 l 26 217 l 26 176 l 151 176 l 151 0 z "},"₺":{"ha":682,"x_min":0,"x_max":0,"o":"m 286 0 b 656 431 535 0 656 175 l 615 431 b 301 39 615 279 557 39 l 201 39 l 201 449 l 72 367 l 90 338 l 161 382 l 161 0 z m 310 86 b 564 431 456 86 563 221 l 526 431 b 314 128 525 231 418 128 l 293 128 l 293 465 l 513 604 l 494 633 l 253 481 l 253 86 z m 471 669 l 453 699 l 293 597 l 293 701 l 508 838 l 490 867 l 253 718 l 253 531 z m 201 735 l 201 1003 l 161 1003 l 161 750 l 26 667 l 44 638 z m 201 499 l 201 685 l 68 601 l 86 572 l 161 619 l 161 514 l 31 432 l 49 403 z m 468 903 l 450 932 l 293 833 l 293 1003 l 253 1003 l 253 767 z "},"ƒ":{"ha":624,"x_min":0,"x_max":0,"o":"m 69 0 b 269 63 160 0 225 21 b 356 286 321 110 344 185 l 378 496 l 519 496 l 524 536 l 342 536 l 315 289 b 243 90 306 199 283 133 b 74 39 207 53 149 39 l 26 39 l 22 0 z m 76 85 b 206 129 136 85 178 101 b 263 292 240 164 254 217 l 289 536 l 108 536 l 104 496 l 244 496 l 224 294 b 178 157 217 231 206 185 b 81 125 157 136 125 125 l 35 125 l 31 85 z m 554 1003 b 354 940 464 1003 399 982 b 268 717 303 893 279 818 l 258 621 l 117 621 l 113 581 l 294 581 l 308 714 b 381 913 318 804 340 869 b 550 964 417 950 475 964 l 597 964 l 601 1003 z m 547 918 b 418 874 488 918 446 901 b 361 711 383 839 369 786 l 347 581 l 528 581 l 532 621 l 390 621 l 400 708 b 446 846 407 772 418 818 b 543 878 467 867 499 878 l 589 878 l 593 918 z "},"∑":{"ha":586,"x_min":0,"x_max":0,"o":"m 547 0 l 547 38 l 81 38 l 81 97 l 375 501 l 81 906 l 81 965 l 533 965 l 533 1003 l 40 1003 l 40 896 l 328 501 l 40 107 l 40 0 z m 547 88 l 547 125 l 206 125 l 471 490 l 471 513 l 206 878 l 533 878 l 533 915 l 132 915 l 425 511 l 425 492 l 131 88 z "},"√":{"ha":722,"x_min":0,"x_max":0,"o":"m 42 506 l 6 486 l 264 -54 l 718 992 l 683 1007 l 264 40 z m 651 1021 l 617 1036 l 264 224 l 111 543 l 75 524 l 264 129 z "},"Ω":{"ha":625,"x_min":0,"x_max":0,"o":"m 313 896 b 429 754 396 896 429 835 l 429 401 b 357 238 429 301 410 256 l 357 0 l 554 0 l 554 40 l 394 40 l 394 218 b 469 396 461 260 469 317 l 469 760 b 313 935 469 851 432 935 b 156 760 193 935 156 851 l 156 396 b 231 218 156 317 164 260 l 231 40 l 71 40 l 71 0 l 268 0 l 268 238 b 196 401 215 256 196 301 l 196 754 b 313 896 196 835 229 896 z m 313 985 b 521 765 468 985 521 883 l 521 390 b 431 199 521 272 494 235 l 431 85 l 554 85 l 554 125 l 468 125 l 468 182 b 561 386 535 221 561 297 l 561 769 b 313 1024 561 910 488 1024 b 64 769 138 1024 64 910 l 64 386 b 157 182 64 297 90 221 l 157 125 l 71 125 l 71 85 l 194 85 l 194 199 b 104 390 131 235 104 272 l 104 765 b 313 985 104 883 157 985 z "},"⁰":{"ha":453,"x_min":0,"x_max":0,"o":"m 57 607 b 226 438 57 503 107 438 b 396 607 346 438 396 503 l 396 851 b 226 1021 396 956 346 1021 b 57 851 107 1021 57 956 z m 226 986 b 360 844 319 986 360 933 l 360 614 b 226 472 360 525 319 472 b 93 614 133 472 93 525 l 93 844 b 226 986 93 933 133 986 z m 129 621 b 226 506 129 554 156 506 b 324 621 297 506 324 554 l 324 838 b 226 953 324 904 297 953 b 129 838 156 953 129 904 z m 226 918 b 288 829 272 918 288 879 l 288 629 b 226 540 288 579 272 540 b 165 629 181 540 165 579 l 165 829 b 226 918 165 879 181 918 z "},"¹":{"ha":314,"x_min":0,"x_max":0,"o":"m 246 458 l 246 1003 l 167 1003 l 15 846 l 38 826 l 174 968 l 211 968 l 211 458 z m 172 458 l 172 928 l 57 807 l 79 788 l 138 849 l 138 458 z "},"²":{"ha":454,"x_min":0,"x_max":0,"o":"m 396 878 b 226 1024 396 963 339 1024 b 57 882 113 1024 57 963 l 57 825 l 93 825 l 93 874 b 226 989 93 942 135 989 b 360 874 318 989 360 942 l 360 825 b 290 719 360 775 347 750 l 210 676 b 128 572 144 642 128 621 l 128 525 l 396 525 l 396 557 l 163 557 l 163 565 b 244 656 163 603 169 615 l 328 700 b 396 814 378 728 396 760 z m 146 714 b 57 588 97 688 57 658 l 57 458 l 396 458 l 396 490 l 92 490 l 92 579 b 179 694 92 640 122 664 l 258 738 b 329 833 322 772 329 788 l 329 867 b 226 956 329 924 297 956 b 124 867 156 956 124 924 l 124 825 l 157 825 l 157 858 b 226 924 157 906 176 924 b 293 863 276 924 293 899 l 293 843 b 222 756 293 801 292 793 z "},"³":{"ha":454,"x_min":0,"x_max":0,"o":"m 92 821 l 92 851 b 226 989 92 940 133 989 b 360 851 319 989 360 940 l 360 826 b 289 722 360 789 356 744 b 360 604 347 703 360 661 b 226 472 360 528 319 472 b 92 614 133 472 92 528 l 92 624 l 56 624 l 56 607 b 226 438 56 503 115 438 b 396 606 338 438 396 501 b 343 722 396 671 371 706 b 396 825 378 739 396 783 l 396 854 b 226 1024 396 961 338 1024 b 56 854 115 1024 56 961 l 56 821 z m 154 674 l 228 674 b 293 601 271 674 293 643 b 226 533 293 558 271 533 b 157 624 172 533 158 569 l 124 624 l 124 618 b 226 503 124 547 156 503 b 324 601 297 503 324 547 b 226 707 324 651 300 707 l 154 707 z m 154 738 l 226 738 b 324 829 300 738 324 794 l 324 847 b 226 958 324 914 297 958 b 124 847 156 958 124 914 l 124 821 l 157 821 l 157 844 b 226 928 157 889 172 928 b 293 844 281 928 293 889 l 293 832 b 229 771 293 797 271 771 l 154 771 z "},"⁴":{"ha":446,"x_min":0,"x_max":0,"o":"m 293 458 l 293 615 l 76 615 l 76 671 l 201 1003 l 165 1003 l 44 682 l 44 583 l 261 583 l 261 458 z m 293 651 l 293 864 l 261 864 l 261 682 l 154 682 l 274 1003 l 238 1003 l 113 668 l 113 651 z m 407 651 l 407 682 l 356 682 l 356 864 l 324 864 l 324 651 z m 356 458 l 356 583 l 407 583 l 407 615 l 324 615 l 324 458 z "},"₀":{"ha":453,"x_min":0,"x_max":0,"o":"m 57 149 b 226 -21 57 44 107 -21 b 396 149 346 -21 396 44 l 396 396 b 226 565 396 500 346 565 b 57 396 107 565 57 500 z m 226 531 b 360 389 319 531 360 478 l 360 156 b 226 14 360 67 319 14 b 93 156 133 14 93 67 l 93 389 b 226 531 93 478 133 531 z m 129 163 b 226 47 129 96 156 47 b 324 163 297 47 324 96 l 324 382 b 226 497 324 449 297 497 b 129 382 156 497 129 449 z m 226 463 b 288 374 272 463 288 424 l 288 171 b 226 82 288 121 272 82 b 165 171 181 82 165 121 l 165 374 b 226 463 165 424 181 463 z "},"₁":{"ha":314,"x_min":0,"x_max":0,"o":"m 246 0 l 246 544 l 167 544 l 15 388 l 38 368 l 174 510 l 211 510 l 211 0 z m 172 0 l 172 469 l 57 349 l 79 329 l 138 390 l 138 0 z "},"₂":{"ha":454,"x_min":0,"x_max":0,"o":"m 396 419 b 226 565 396 504 339 565 b 57 424 113 565 57 504 l 57 367 l 93 367 l 93 415 b 226 531 93 483 135 531 b 360 415 318 531 360 483 l 360 367 b 290 261 360 317 347 292 l 210 218 b 128 114 144 183 128 163 l 128 67 l 396 67 l 396 99 l 163 99 l 163 107 b 244 197 163 144 169 157 l 328 242 b 396 356 378 269 396 301 z m 146 256 b 57 129 97 229 57 200 l 57 0 l 396 0 l 396 32 l 92 32 l 92 121 b 179 236 92 182 122 206 l 258 279 b 329 375 322 314 329 329 l 329 408 b 226 497 329 465 297 497 b 124 408 156 497 124 465 l 124 367 l 157 367 l 157 400 b 226 465 157 447 176 465 b 293 404 276 465 293 440 l 293 385 b 222 297 293 343 292 335 z "},"₄":{"ha":446,"x_min":0,"x_max":0,"o":"m 293 0 l 293 157 l 76 157 l 76 213 l 201 544 l 165 544 l 44 224 l 44 125 l 261 125 l 261 0 z m 293 193 l 293 406 l 261 406 l 261 224 l 154 224 l 274 544 l 238 544 l 113 210 l 113 193 z m 407 193 l 407 224 l 356 224 l 356 406 l 324 406 l 324 193 z m 356 0 l 356 125 l 407 125 l 407 157 l 324 157 l 324 0 z "},"§":{"ha":613,"x_min":0,"x_max":0,"o":"m 504 203 b 296 18 504 113 451 18 b 88 238 140 18 88 119 l 88 254 l 47 254 l 47 233 b 296 -21 47 93 121 -21 b 544 206 471 -21 544 93 l 544 469 b 394 668 544 574 485 619 l 311 713 b 182 824 185 779 182 796 b 297 896 182 856 215 896 b 414 754 381 896 414 835 l 414 736 l 454 736 l 454 760 b 297 935 454 851 415 935 b 142 828 181 935 142 872 l 142 815 b 269 686 142 757 193 728 l 356 640 b 504 456 460 585 504 550 z m 413 193 b 296 107 413 154 379 107 b 178 249 211 107 178 168 l 178 254 l 138 254 l 138 243 b 296 68 138 151 176 68 b 453 196 415 68 453 136 b 307 329 453 247 433 261 l 217 378 b 90 564 117 432 90 465 l 90 824 b 297 985 90 894 143 985 b 504 765 451 985 504 883 l 504 736 l 544 736 l 544 769 b 297 1024 544 910 471 1024 b 50 825 124 1024 50 910 l 50 551 b 175 351 50 444 89 399 l 267 301 b 413 193 401 228 413 218 z m 290 440 b 179 592 193 492 179 518 l 179 639 b 219 611 179 639 197 624 l 311 561 b 415 422 388 519 415 496 l 415 369 b 374 396 415 369 397 383 z m 343 368 b 456 285 397 338 438 307 l 456 438 b 335 593 456 521 415 549 l 246 642 b 139 726 194 669 167 694 l 139 579 b 258 415 139 499 165 467 z "},"~":{"ha":739,"x_min":0,"x_max":0,"o":"m 228 779 b 88 667 179 779 133 760 l 115 650 b 224 742 158 724 185 742 b 513 650 332 742 407 650 b 710 813 582 650 647 689 l 682 829 b 518 685 622 726 574 685 b 228 779 413 685 326 779 z m 511 735 b 651 847 560 735 606 754 l 624 864 b 515 772 581 790 554 772 b 226 864 407 772 332 864 b 29 701 157 864 92 825 l 57 685 b 221 829 117 788 165 829 b 511 735 326 829 413 735 z "},"™":{"ha":978,"x_min":0,"x_max":0,"o":"m 156 458 l 156 933 l 31 933 l 31 899 l 121 899 l 121 458 z m 226 458 l 226 899 l 317 899 l 317 933 l 192 933 l 192 458 z m 317 968 l 317 1003 l 31 1003 l 31 968 z m 625 828 b 529 943 625 900 597 943 b 444 828 472 943 444 900 l 444 458 l 479 458 l 479 811 b 535 908 479 867 485 908 b 590 811 585 908 590 867 l 590 458 l 625 458 z m 661 458 l 696 458 l 696 811 b 751 908 696 867 701 908 b 807 811 801 908 807 867 l 807 458 l 842 458 l 842 828 b 757 943 842 900 814 943 b 661 828 689 943 661 900 z m 643 893 b 761 979 671 961 708 979 b 878 849 836 979 878 940 l 878 458 l 913 458 l 913 863 b 765 1014 913 964 851 1014 b 643 957 713 1014 669 994 b 521 1014 617 994 574 1014 b 374 863 435 1014 374 964 l 374 458 l 408 458 l 408 849 b 525 979 408 940 450 979 b 643 893 578 979 615 961 z "},"₫":{"ha":689,"x_min":0,"x_max":0,"o":"m 482 288 l 482 618 l 235 618 b 136 517 169 618 136 583 l 136 389 b 235 288 136 322 169 288 z m 574 201 l 574 790 l 657 790 l 657 829 l 533 829 l 533 240 l 222 240 b 85 385 135 240 85 288 l 85 521 b 222 665 85 618 135 665 l 482 665 l 482 829 l 225 829 l 225 790 l 442 790 l 442 704 l 213 704 b 44 524 107 704 44 646 l 44 382 b 213 201 44 260 107 201 z m 482 869 l 482 1003 l 442 1003 l 442 908 l 225 908 l 225 869 z m 657 869 l 657 908 l 574 908 l 574 1003 l 533 1003 l 533 869 z m 575 0 l 575 40 l 110 40 l 110 0 z m 575 81 l 575 121 l 110 121 l 110 81 z m 442 326 l 246 326 b 176 393 197 326 176 347 l 176 513 b 246 579 176 558 197 579 l 442 579 z "},"Ǽ":{"ha":853,"x_min":0,"x_max":0,"o":""},"Ľ":{"ha":503,"x_min":0,"x_max":0,"o":"m 422 0 l 422 39 l 118 39 l 118 1003 l 78 1003 l 78 0 z m 422 86 l 422 125 l 210 125 l 210 1003 l 169 1003 l 169 86 z m 325 711 l 394 1003 l 354 1003 l 288 711 z m 393 711 l 481 1003 l 440 1003 l 356 711 z "},"₃":{"ha":454,"x_min":0,"x_max":0,"o":"m 92 363 l 92 393 b 226 531 92 482 133 531 b 360 393 319 531 360 482 l 360 368 b 289 264 360 331 356 286 b 360 146 347 244 360 203 b 226 14 360 69 319 14 b 92 156 133 14 92 69 l 92 165 l 56 165 l 56 149 b 226 -21 56 44 115 -21 b 396 147 338 -21 396 43 b 343 264 396 213 371 247 b 396 367 378 281 396 325 l 396 396 b 226 565 396 503 338 565 b 56 396 115 565 56 503 l 56 363 z m 154 215 l 228 215 b 293 143 271 215 293 185 b 226 75 293 100 271 75 b 157 165 172 75 158 111 l 124 165 l 124 160 b 226 44 124 89 156 44 b 324 143 297 44 324 89 b 226 249 324 193 300 249 l 154 249 z m 154 279 l 226 279 b 324 371 300 279 324 336 l 324 389 b 226 500 324 456 297 500 b 124 389 156 500 124 456 l 124 363 l 157 363 l 157 386 b 226 469 157 431 172 469 b 293 386 281 469 293 431 l 293 374 b 229 313 293 339 271 313 l 154 313 z "}}}
